<svg width="44" height="32" viewBox="0 0 44 32" fill="none" xmlns="http://www.w3.org/2000/svg">
  <path d="M10.5964 28.984C15.3284 28.984 17.6944 24.742 17.6944 16.258C17.6944 7.83 15.3284 3.616 10.5964 3.616C5.86441 3.616 3.49841 7.83 3.49841 16.258C3.49841 24.742 5.86441 28.984 10.5964 28.984ZM10.5964 31.63C7.29241 31.63 4.73041 30.216 2.91041 27.388C1.17441 24.728 0.306407 21.018 0.306407 16.258C0.306407 10.77 1.42641 6.71 3.66641 4.078C5.43041 2.006 7.74041 0.969999 10.5964 0.969999C13.9004 0.969999 16.4624 2.342 18.2824 5.086C20.0184 7.718 20.8864 11.442 20.8864 16.258C20.8864 21.69 19.7804 25.736 17.5684 28.396C15.7764 30.552 13.4524 31.63 10.5964 31.63ZM35.066 1.6H38.384V22.768H43.004V25.456H38.384V31H35.318V25.456H22.13V22.474L35.066 1.6ZM25.532 22.768H35.318V6.598L25.532 22.768Z" fill="black"/>
</svg>
