<svg width="55" height="32" viewBox="0 0 55 32" fill="none" xmlns="http://www.w3.org/2000/svg">
  <path d="M9.93388 31H6.82588V4.876L0.147877 8.53V5.296L6.86788 1.6H9.93388V31ZM28.3555 31.63C25.4715 31.63 23.0775 30.804 21.1735 29.152C19.5775 27.78 18.5975 26.072 18.2335 24.028H21.5095C21.8735 25.652 22.7275 26.912 24.0715 27.808C25.2755 28.592 26.7175 28.984 28.3975 28.984C30.6095 28.984 32.3735 28.228 33.6895 26.716C34.8935 25.344 35.4955 23.58 35.4955 21.424C35.4955 19.016 34.7675 17.168 33.3115 15.88C32.1075 14.788 30.5255 14.242 28.5655 14.242C27.2775 14.242 26.0595 14.522 24.9115 15.082C23.7635 15.614 22.7975 16.356 22.0135 17.308H19.2835L19.9135 1.6H37.3435V4.246H22.7695L22.3915 14.2C24.2395 12.548 26.5215 11.722 29.2375 11.722C32.1775 11.722 34.5295 12.674 36.2935 14.578C37.9175 16.342 38.7295 18.666 38.7295 21.55C38.7295 24.658 37.6655 27.164 35.5375 29.068C33.6335 30.776 31.2395 31.63 28.3555 31.63ZM45.7691 0.759999V4.414C45.7691 6.486 45.2091 8.096 44.0891 9.244C43.2491 10.112 42.1571 10.672 40.8131 10.924V9.118C42.4931 8.67 43.3331 7.242 43.3331 4.834H41.7791V0.759999H45.7691ZM54.3036 0.759999V4.414C54.3036 6.486 53.7436 8.096 52.6236 9.244C51.7836 10.112 50.6916 10.672 49.3476 10.924V9.118C51.0276 8.67 51.8676 7.242 51.8676 4.834H50.3136V0.759999H54.3036Z" fill="black"/>
</svg>
