<svg width="65" height="32" viewBox="0 0 65 32" fill="none" xmlns="http://www.w3.org/2000/svg">
  <path d="M4.13261 8.992H0.81461C1.17861 6.416 2.36861 4.4 4.38461 2.944C6.14861 1.628 8.29061 0.969999 10.8106 0.969999C13.6666 0.969999 15.9626 1.81 17.6986 3.49C19.2666 4.974 20.0506 6.864 20.0506 9.16C20.0506 11.176 19.4766 13.052 18.3286 14.788C17.4326 16.216 15.8086 18.064 13.4566 20.332L5.51861 28.102H19.9666V31H1.31861V28.102L11.6086 17.938C13.6246 15.95 14.9966 14.354 15.7246 13.15C16.4806 11.918 16.8586 10.602 16.8586 9.202C16.8586 7.382 16.2426 5.968 15.0106 4.96C13.9186 4.064 12.4906 3.616 10.7266 3.616C8.79461 3.616 7.22661 4.162 6.02261 5.254C4.95861 6.206 4.32861 7.452 4.13261 8.992ZM32.5082 28.984C37.2402 28.984 39.6062 24.742 39.6062 16.258C39.6062 7.83 37.2402 3.616 32.5082 3.616C27.7762 3.616 25.4102 7.83 25.4102 16.258C25.4102 24.742 27.7762 28.984 32.5082 28.984ZM32.5082 31.63C29.2042 31.63 26.6422 30.216 24.8222 27.388C23.0862 24.728 22.2182 21.018 22.2182 16.258C22.2182 10.77 23.3382 6.71 25.5782 4.078C27.3422 2.006 29.6522 0.969999 32.5082 0.969999C35.8122 0.969999 38.3742 2.342 40.1942 5.086C41.9302 7.718 42.7982 11.442 42.7982 16.258C42.7982 21.69 41.6922 25.736 39.4802 28.396C37.6882 30.552 35.3642 31.63 32.5082 31.63ZM54.3318 28.984C59.0638 28.984 61.4298 24.742 61.4298 16.258C61.4298 7.83 59.0638 3.616 54.3318 3.616C49.5998 3.616 47.2338 7.83 47.2338 16.258C47.2338 24.742 49.5998 28.984 54.3318 28.984ZM54.3318 31.63C51.0278 31.63 48.4658 30.216 46.6458 27.388C44.9098 24.728 44.0418 21.018 44.0418 16.258C44.0418 10.77 45.1618 6.71 47.4018 4.078C49.1658 2.006 51.4758 0.969999 54.3318 0.969999C57.6358 0.969999 60.1978 2.342 62.0178 5.086C63.7538 7.718 64.6218 11.442 64.6218 16.258C64.6218 21.69 63.5158 25.736 61.3038 28.396C59.5118 30.552 57.1878 31.63 54.3318 31.63Z" fill="black"/>
</svg>
