<svg width="65" height="32" viewBox="0 0 65 32" fill="none" xmlns="http://www.w3.org/2000/svg">
  <path d="M13.3306 1.6H16.6486V22.768H21.2686V25.456H16.6486V31H13.5826V25.456H0.39461V22.474L13.3306 1.6ZM3.79661 22.768H13.5826V6.598L3.79661 22.768ZM32.2982 31.63C29.4142 31.63 27.0202 30.804 25.1162 29.152C23.5202 27.78 22.5402 26.072 22.1762 24.028H25.4522C25.8162 25.652 26.6702 26.912 28.0142 27.808C29.2182 28.592 30.6602 28.984 32.3402 28.984C34.5522 28.984 36.3162 28.228 37.6322 26.716C38.8362 25.344 39.4382 23.58 39.4382 21.424C39.4382 19.016 38.7102 17.168 37.2542 15.88C36.0502 14.788 34.4682 14.242 32.5082 14.242C31.2202 14.242 30.0022 14.522 28.8542 15.082C27.7062 15.614 26.7402 16.356 25.9562 17.308H23.2262L23.8562 1.6H41.2862V4.246H26.7122L26.3342 14.2C28.1822 12.548 30.4642 11.722 33.1802 11.722C36.1202 11.722 38.4722 12.674 40.2362 14.578C41.8602 16.342 42.6722 18.666 42.6722 21.55C42.6722 24.658 41.6082 27.164 39.4802 29.068C37.5762 30.776 35.1822 31.63 32.2982 31.63ZM54.3318 28.984C59.0638 28.984 61.4298 24.742 61.4298 16.258C61.4298 7.83 59.0638 3.616 54.3318 3.616C49.5998 3.616 47.2338 7.83 47.2338 16.258C47.2338 24.742 49.5998 28.984 54.3318 28.984ZM54.3318 31.63C51.0278 31.63 48.4658 30.216 46.6458 27.388C44.9098 24.728 44.0418 21.018 44.0418 16.258C44.0418 10.77 45.1618 6.71 47.4018 4.078C49.1658 2.006 51.4758 0.969999 54.3318 0.969999C57.6358 0.969999 60.1978 2.342 62.0178 5.086C63.7538 7.718 64.6218 11.442 64.6218 16.258C64.6218 21.69 63.5158 25.736 61.3038 28.396C59.5118 30.552 57.1878 31.63 54.3318 31.63Z" fill="black"/>
</svg>
