<svg width="43" height="32" viewBox="0 0 43 32" fill="none" xmlns="http://www.w3.org/2000/svg">
  <path d="M10.3864 31.63C7.50241 31.63 5.10841 30.804 3.20441 29.152C1.60841 27.78 0.628407 26.072 0.264407 24.028H3.54041C3.90441 25.652 4.75841 26.912 6.10241 27.808C7.30641 28.592 8.74841 28.984 10.4284 28.984C12.6404 28.984 14.4044 28.228 15.7204 26.716C16.9244 25.344 17.5264 23.58 17.5264 21.424C17.5264 19.016 16.7984 17.168 15.3424 15.88C14.1384 14.788 12.5564 14.242 10.5964 14.242C9.30841 14.242 8.09041 14.522 6.94241 15.082C5.79441 15.614 4.82841 16.356 4.04441 17.308H1.31441L1.94441 1.6H19.3744V4.246H4.80041L4.42241 14.2C6.27041 12.548 8.55241 11.722 11.2684 11.722C14.2084 11.722 16.5604 12.674 18.3244 14.578C19.9484 16.342 20.7604 18.666 20.7604 21.55C20.7604 24.658 19.6964 27.164 17.5684 29.068C15.6644 30.776 13.2704 31.63 10.3864 31.63ZM32.42 28.984C37.152 28.984 39.518 24.742 39.518 16.258C39.518 7.83 37.152 3.616 32.42 3.616C27.688 3.616 25.322 7.83 25.322 16.258C25.322 24.742 27.688 28.984 32.42 28.984ZM32.42 31.63C29.116 31.63 26.554 30.216 24.734 27.388C22.998 24.728 22.13 21.018 22.13 16.258C22.13 10.77 23.25 6.71 25.49 4.078C27.254 2.006 29.564 0.969999 32.42 0.969999C35.724 0.969999 38.286 2.342 40.106 5.086C41.842 7.718 42.71 11.442 42.71 16.258C42.71 21.69 41.604 25.736 39.392 28.396C37.6 30.552 35.276 31.63 32.42 31.63Z" fill="black"/>
</svg>
