<svg width="63" height="32" viewBox="0 0 63 32" fill="none" xmlns="http://www.w3.org/2000/svg">
  <path d="M19.9818 6.976H16.5798C16.2438 5.884 15.6278 5.044 14.7318 4.456C13.8358 3.84 12.7438 3.532 11.4558 3.532C6.72378 3.532 4.21778 7.746 3.93778 16.174C4.77778 14.69 5.93978 13.556 7.42378 12.772C8.68378 12.128 10.0278 11.806 11.4558 11.806C14.4238 11.806 16.7618 12.828 18.4698 14.872C19.9538 16.636 20.6958 18.89 20.6958 21.634C20.6958 24.966 19.5898 27.556 17.3778 29.404C15.6138 30.888 13.4998 31.63 11.0358 31.63C7.36778 31.63 4.67978 30.188 2.97178 27.304C1.57178 24.924 0.871782 21.662 0.871782 17.518C0.871782 11.106 2.10378 6.542 4.56778 3.826C6.30378 1.922 8.61378 0.969999 11.4978 0.969999C13.7378 0.969999 15.6558 1.586 17.2518 2.818C18.6518 3.882 19.5618 5.268 19.9818 6.976ZM10.9518 14.452C8.82378 14.452 7.15778 15.194 5.95378 16.678C4.88978 17.91 4.35778 19.478 4.35778 21.382C4.35778 23.65 4.98778 25.498 6.24778 26.926C7.47978 28.298 9.08978 28.984 11.0778 28.984C13.0098 28.984 14.5918 28.284 15.8238 26.884C16.9718 25.568 17.5458 23.888 17.5458 21.844C17.5458 19.38 16.8598 17.49 15.4878 16.174C14.3118 15.026 12.7998 14.452 10.9518 14.452ZM37.6054 1.6H40.9234V22.768H45.5434V25.456H40.9234V31H37.8574V25.456H24.6694V22.474L37.6054 1.6ZM28.0714 22.768H37.8574V6.598L28.0714 22.768ZM51.869 7.816C51.869 9.272 52.303 10.42 53.171 11.26C53.899 11.988 54.823 12.352 55.943 12.352C57.231 12.352 58.239 11.89 58.967 10.966C59.639 10.154 59.975 9.104 59.975 7.816C59.975 6.36 59.555 5.212 58.715 4.372C57.959 3.644 57.035 3.28 55.943 3.28C54.655 3.28 53.633 3.742 52.877 4.666C52.205 5.478 51.869 6.528 51.869 7.816ZM62.789 7.816C62.789 10.056 62.005 11.82 60.437 13.108C59.177 14.144 57.679 14.662 55.943 14.662C53.927 14.662 52.247 13.99 50.903 12.646C49.671 11.386 49.055 9.776 49.055 7.816C49.055 5.576 49.839 3.812 51.407 2.524C52.695 1.488 54.207 0.969999 55.943 0.969999C57.959 0.969999 59.625 1.642 60.941 2.986C62.173 4.246 62.789 5.856 62.789 7.816Z" fill="black"/>
</svg>
