<svg width="115" height="32" viewBox="0 0 115 32" fill="none" xmlns="http://www.w3.org/2000/svg">
  <path d="M19.5408 8.404C19.5408 11.512 17.7068 13.822 14.0388 15.334C18.4348 17.014 20.6328 19.646 20.6328 23.23C20.6328 25.862 19.5408 27.962 17.3568 29.53C15.4528 30.93 13.0308 31.63 10.0908 31.63C6.73082 31.63 4.05682 30.748 2.06882 28.984C0.388822 27.5 -0.451178 25.666 -0.451178 23.482C-0.451178 19.618 1.64882 16.972 5.84882 15.544C2.37682 14.116 0.640822 11.82 0.640822 8.656C0.640822 5.996 1.71882 3.98 3.87482 2.608C5.55482 1.516 7.62682 0.969999 10.0908 0.969999C12.9748 0.969999 15.2848 1.642 17.0208 2.986C18.7008 4.302 19.5408 6.108 19.5408 8.404ZM17.3148 23.23C17.3148 20.99 16.3348 19.31 14.3748 18.19C13.2828 17.546 11.6308 17 9.41882 16.552C5.05082 17.672 2.86682 19.898 2.86682 23.23C2.86682 25.05 3.59482 26.492 5.05082 27.556C6.33882 28.536 8.01882 29.026 10.0908 29.026C12.4708 29.026 14.3188 28.424 15.6348 27.22C16.7548 26.184 17.3148 24.854 17.3148 23.23ZM3.70682 8.488C3.70682 10.56 4.58882 12.114 6.35282 13.15C7.36082 13.738 8.76082 14.186 10.5528 14.494C14.4728 13.29 16.4328 11.288 16.4328 8.488C16.4328 6.808 15.7188 5.492 14.2908 4.54C13.1428 3.812 11.7428 3.448 10.0908 3.448C8.15882 3.448 6.60482 3.91 5.42882 4.834C4.28082 5.73 3.70682 6.948 3.70682 8.488ZM31.9144 28.984C36.6464 28.984 39.0124 24.742 39.0124 16.258C39.0124 7.83 36.6464 3.616 31.9144 3.616C27.1824 3.616 24.8164 7.83 24.8164 16.258C24.8164 24.742 27.1824 28.984 31.9144 28.984ZM31.9144 31.63C28.6104 31.63 26.0484 30.216 24.2284 27.388C22.4924 24.728 21.6244 21.018 21.6244 16.258C21.6244 10.77 22.7444 6.71 24.9844 4.078C26.7484 2.006 29.0584 0.969999 31.9144 0.969999C35.2184 0.969999 37.7804 2.342 39.6004 5.086C41.3364 7.718 42.2044 11.442 42.2044 16.258C42.2044 21.69 41.0984 25.736 38.8864 28.396C37.0944 30.552 34.7704 31.63 31.9144 31.63ZM47.186 8.992H43.868C44.232 6.416 45.422 4.4 47.438 2.944C49.202 1.628 51.344 0.969999 53.864 0.969999C56.72 0.969999 59.016 1.81 60.752 3.49C62.32 4.974 63.104 6.864 63.104 9.16C63.104 11.176 62.53 13.052 61.382 14.788C60.486 16.216 58.862 18.064 56.51 20.332L48.572 28.102H63.02V31H44.372V28.102L54.662 17.938C56.678 15.95 58.05 14.354 58.778 13.15C59.534 11.918 59.912 10.602 59.912 9.202C59.912 7.382 59.296 5.968 58.064 4.96C56.972 4.064 55.544 3.616 53.78 3.616C51.848 3.616 50.28 4.162 49.076 5.254C48.012 6.206 47.382 7.452 47.186 8.992ZM71.0676 31H67.1196V26.926H71.0676V31ZM87.6573 31H84.5493V4.876L77.8713 8.53V5.296L84.5913 1.6H87.6573V31ZM113.681 9.16L106.247 19.408L114.941 31H111.119L104.441 21.844L97.9309 31H94.2769L102.593 19.618L94.7389 9.16H98.5189L104.483 17.182L110.111 9.16H113.681Z" fill="black"/>
</svg>
