<svg width="96" height="32" viewBox="0 0 96 32" fill="none" xmlns="http://www.w3.org/2000/svg">
  <path d="M20.771 8.404C20.771 11.512 18.937 13.822 15.269 15.334C19.665 17.014 21.863 19.646 21.863 23.23C21.863 25.862 20.771 27.962 18.587 29.53C16.683 30.93 14.261 31.63 11.321 31.63C7.96098 31.63 5.28698 30.748 3.29898 28.984C1.61898 27.5 0.778978 25.666 0.778978 23.482C0.778978 19.618 2.87898 16.972 7.07898 15.544C3.60698 14.116 1.87098 11.82 1.87098 8.656C1.87098 5.996 2.94898 3.98 5.10498 2.608C6.78498 1.516 8.85698 0.969999 11.321 0.969999C14.205 0.969999 16.515 1.642 18.251 2.986C19.931 4.302 20.771 6.108 20.771 8.404ZM18.545 23.23C18.545 20.99 17.565 19.31 15.605 18.19C14.513 17.546 12.861 17 10.649 16.552C6.28098 17.672 4.09698 19.898 4.09698 23.23C4.09698 25.05 4.82498 26.492 6.28098 27.556C7.56898 28.536 9.24898 29.026 11.321 29.026C13.701 29.026 15.549 28.424 16.865 27.22C17.985 26.184 18.545 24.854 18.545 23.23ZM4.93698 8.488C4.93698 10.56 5.81898 12.114 7.58298 13.15C8.59098 13.738 9.99098 14.186 11.783 14.494C15.703 13.29 17.663 11.288 17.663 8.488C17.663 6.808 16.949 5.492 15.521 4.54C14.373 3.812 12.973 3.448 11.321 3.448C9.38898 3.448 7.83498 3.91 6.65898 4.834C5.51098 5.73 4.93698 6.948 4.93698 8.488ZM33.1446 28.984C37.8766 28.984 40.2426 24.742 40.2426 16.258C40.2426 7.83 37.8766 3.616 33.1446 3.616C28.4126 3.616 26.0466 7.83 26.0466 16.258C26.0466 24.742 28.4126 28.984 33.1446 28.984ZM33.1446 31.63C29.8406 31.63 27.2786 30.216 25.4586 27.388C23.7226 24.728 22.8546 21.018 22.8546 16.258C22.8546 10.77 23.9746 6.71 26.2146 4.078C27.9786 2.006 30.2886 0.969999 33.1446 0.969999C36.4486 0.969999 39.0106 2.342 40.8306 5.086C42.5666 7.718 43.4346 11.442 43.4346 16.258C43.4346 21.69 42.3286 25.736 40.1166 28.396C38.3246 30.552 36.0006 31.63 33.1446 31.63ZM48.4162 8.992H45.0982C45.4622 6.416 46.6522 4.4 48.6682 2.944C50.4322 1.628 52.5742 0.969999 55.0942 0.969999C57.9502 0.969999 60.2462 1.81 61.9822 3.49C63.5502 4.974 64.3342 6.864 64.3342 9.16C64.3342 11.176 63.7602 13.052 62.6122 14.788C61.7162 16.216 60.0922 18.064 57.7402 20.332L49.8022 28.102H64.2502V31H45.6022V28.102L55.8922 17.938C57.9082 15.95 59.2802 14.354 60.0082 13.15C60.7642 11.918 61.1422 10.602 61.1422 9.202C61.1422 7.382 60.5262 5.968 59.2942 4.96C58.2022 4.064 56.7742 3.616 55.0102 3.616C53.0782 3.616 51.5102 4.162 50.3062 5.254C49.2422 6.206 48.6122 7.452 48.4162 8.992ZM72.2978 31H68.3498V26.926H72.2978V31ZM85.4854 31.588C82.4334 31.588 79.9834 30.818 78.1354 29.278C76.5394 27.962 75.5594 26.212 75.1954 24.028H78.5134C78.8774 25.736 79.7174 27.01 81.0334 27.85C82.2094 28.606 83.6794 28.984 85.4434 28.984C87.7394 28.984 89.5314 28.354 90.8194 27.094C91.9114 26.03 92.4574 24.644 92.4574 22.936C92.4574 20.836 91.7294 19.24 90.2734 18.148C89.1534 17.308 87.7674 16.888 86.1154 16.888H83.3854V14.158H85.9894C87.6694 14.158 89.0274 13.64 90.0634 12.604C91.0434 11.624 91.5334 10.364 91.5334 8.824C91.5334 7.06 90.8474 5.702 89.4754 4.75C88.3554 3.994 86.9694 3.616 85.3174 3.616C83.3854 3.616 81.8174 4.092 80.6134 5.044C79.5774 5.884 78.9334 6.99 78.6814 8.362H75.4054C75.7974 5.926 77.0154 4.05 79.0594 2.734C80.8234 1.558 82.9654 0.969999 85.4854 0.969999C88.2854 0.969999 90.5534 1.698 92.2894 3.154C93.9134 4.526 94.7254 6.332 94.7254 8.572C94.7254 10.364 94.1794 11.876 93.0874 13.108C92.1354 14.2 90.8754 14.956 89.3074 15.376C91.2674 15.712 92.8354 16.594 94.0114 18.022C95.1034 19.366 95.6494 21.018 95.6494 22.978C95.6494 25.75 94.5994 27.934 92.4994 29.53C90.6514 30.902 88.3134 31.588 85.4854 31.588Z" fill="black"/>
</svg>
