<svg width="40" height="40" viewBox="0 0 40 40" fill="none" xmlns="http://www.w3.org/2000/svg">
  <path d="M19.9998 2.5C16.5386 2.5 13.1551 3.52636 10.2773 5.44928C7.39942 7.37221 5.15641 10.1053 3.83187 13.303C2.50734 16.5007 2.16078 20.0194 2.83602 23.4141C3.51126 26.8087 5.17798 29.927 7.6254 32.3744C10.0728 34.8218 13.191 36.4885 16.5857 37.1637C19.9804 37.839 23.499 37.4924 26.6967 36.1679C29.8944 34.8434 32.6276 32.6003 34.5505 29.7225C36.4734 26.8446 37.4998 23.4612 37.4998 20C37.4946 15.3603 35.6491 10.9121 32.3684 7.63138C29.0876 4.35062 24.6395 2.5052 19.9998 2.5ZM19.9998 35C16.2404 34.9944 12.62 33.5786 9.85425 31.0324C7.0885 28.4862 5.37875 24.9949 5.06301 21.2489L16.982 21.2498L14.116 24.1162C13.9999 24.2323 13.9079 24.3701 13.845 24.5217C13.7822 24.6733 13.7499 24.8359 13.7499 25C13.7499 25.1641 13.7822 25.3267 13.845 25.4783C13.9079 25.6299 13.9999 25.7677 14.116 25.8838C14.232 25.9999 14.3698 26.0919 14.5215 26.1547C14.6731 26.2175 14.8356 26.2499 14.9998 26.2499C15.1639 26.2499 15.3264 26.2175 15.4781 26.1547C15.6297 26.0919 15.7675 25.9998 15.8836 25.8838L20.883 20.8838C21.1172 20.6493 21.2487 20.3314 21.2487 20C21.2487 19.6686 21.1172 19.3507 20.883 19.1162L15.8836 14.1162C15.7675 14.0002 15.6297 13.9081 15.4781 13.8453C15.3264 13.7825 15.1639 13.7501 14.9998 13.7501C14.8356 13.7501 14.6731 13.7825 14.5215 13.8453C14.3698 13.9081 14.232 14.0001 14.116 14.1162C13.9999 14.2323 13.9079 14.3701 13.845 14.5217C13.7822 14.6733 13.7499 14.8359 13.7499 15C13.7499 15.1641 13.7822 15.3267 13.845 15.4783C13.9079 15.6299 13.9999 15.7677 14.116 15.8838L16.9816 18.7498L5.06316 18.7489C5.30721 15.8468 6.39109 13.0785 8.18245 10.7823C9.9738 8.48601 12.3951 6.76112 15.1506 5.81825C17.9061 4.87538 20.8765 4.75535 23.6991 5.47281C26.5217 6.19028 29.0742 7.71419 31.045 9.85842C33.0158 12.0027 34.3195 14.6744 34.7969 17.5474C35.2743 20.4203 34.9048 23.3701 33.7334 26.0365C32.562 28.7028 30.6394 30.9704 28.2006 32.5622C25.7617 34.1539 22.9121 35.001 19.9998 35Z" fill="black"/>
</svg>
