<svg width="40" height="40" viewBox="0 0 40 40" fill="none" xmlns="http://www.w3.org/2000/svg">
  <path d="M15.4866 16.0877C15.0016 14.8952 14.2926 13.8066 13.398 12.8809C13.1675 12.6426 12.8518 12.5057 12.5203 12.5002C12.1888 12.4947 11.8687 12.6211 11.6304 12.8516C11.3921 13.0821 11.2552 13.3978 11.2497 13.7293C11.2442 14.0608 11.3706 14.3809 11.6011 14.6192C12.2739 15.3161 12.8071 16.1352 13.1722 17.0325C13.942 18.9364 13.942 21.0649 13.1722 22.9687C12.8073 23.8657 12.274 24.6845 11.6011 25.3808C11.3706 25.6191 11.2442 25.9392 11.2497 26.2707C11.2552 26.6022 11.3921 26.9179 11.6304 27.1484C11.8687 27.3789 12.1888 27.5054 12.5203 27.4999C12.8518 27.4944 13.1675 27.3574 13.398 27.1191C14.2924 26.1937 15.0014 25.1056 15.4866 23.9136C16.5039 21.4041 16.5039 18.5971 15.4866 16.0876V16.0877Z" fill="black"/>
  <path d="M26.9735 11.2535C25.8373 8.58224 24.1926 6.1573 22.131 4.11364C22.0146 3.9979 21.8766 3.90621 21.7248 3.84382C21.5729 3.78143 21.4103 3.74955 21.2462 3.75C21.082 3.75046 20.9196 3.78324 20.7681 3.84647C20.6167 3.90971 20.4791 4.00215 20.3634 4.11854C20.2477 4.23492 20.156 4.37296 20.0936 4.52478C20.0312 4.6766 19.9993 4.83921 19.9998 5.00335C20.0002 5.16749 20.033 5.32993 20.0962 5.4814C20.1595 5.63287 20.2519 5.7704 20.3683 5.88614C22.2009 7.70286 23.6631 9.85825 24.6737 12.2326C25.7137 14.6903 26.2496 17.3318 26.2496 20.0005C26.2496 22.6692 25.7137 25.3108 24.6737 27.7685C23.6634 30.1426 22.2011 32.2976 20.3683 34.1137C20.1332 34.3474 20.0007 34.665 19.9998 34.9965C19.9988 35.3279 20.1296 35.6462 20.3634 35.8813C20.5971 36.1163 20.9147 36.2489 21.2462 36.2498C21.5777 36.2507 21.8959 36.1199 22.131 35.8862C24.193 33.8433 25.8377 31.4187 26.9735 28.7475C28.1456 25.9803 28.7496 23.0058 28.7496 20.0006C28.7496 16.9954 28.1456 14.0208 26.9735 11.2536V11.2535Z" fill="black"/>
  <path d="M22.4995 20.0008C22.5048 17.7229 22.0769 15.4648 21.2386 13.3468C20.6625 11.8945 19.8935 10.5264 18.9522 9.2794C18.5886 8.79716 18.199 8.33505 17.7852 7.89513C17.6731 7.77448 17.5382 7.67717 17.3884 7.60881C17.2386 7.54046 17.0767 7.50239 16.9121 7.49681C16.7475 7.49123 16.5834 7.51824 16.4293 7.57629C16.2752 7.63434 16.134 7.72229 16.014 7.83507C15.894 7.94785 15.7974 8.08324 15.7299 8.23346C15.6624 8.38368 15.6253 8.54577 15.6206 8.7104C15.616 8.87503 15.6439 9.03895 15.7028 9.19275C15.7617 9.34654 15.8505 9.48717 15.9639 9.60655C16.3157 9.98186 16.6473 10.3755 16.9576 10.7858C17.7635 11.8538 18.4217 13.0256 18.9144 14.2696C20.3613 17.9534 20.3613 22.0482 18.9144 25.732C18.4239 26.97 17.7699 28.1368 16.9698 29.2013C16.6574 29.6169 16.322 30.0146 15.9652 30.3927C15.7401 30.6343 15.6198 30.9552 15.6305 31.2852C15.6411 31.6152 15.7819 31.9276 16.0221 32.1543C16.2622 32.3809 16.5823 32.5033 16.9124 32.4948C17.2425 32.4863 17.5558 32.3476 17.784 32.1089C18.2039 31.6632 18.5988 31.1946 18.9669 30.7052C19.9013 29.4624 20.6653 28.1002 21.2386 26.6549C22.0769 24.5369 22.5048 22.2787 22.4995 20.0008Z" fill="black"/>
</svg>
