<svg width="40" height="40" viewBox="0 0 40 40" fill="none" xmlns="http://www.w3.org/2000/svg">
  <path d="M34.9963 17.5C34.8322 17.5001 34.6696 17.4678 34.5179 17.405C34.3662 17.3423 34.2283 17.2502 34.1122 17.1341C33.9962 17.018 33.9041 16.8802 33.8413 16.7285C33.7785 16.5768 33.7462 16.4142 33.7463 16.25C33.714 13.7324 32.72 11.3225 30.968 9.51416C30.0493 8.50882 28.9356 7.70097 27.6947 7.1398C26.4538 6.57863 25.1116 6.27589 23.75 6.25C23.4185 6.25 23.1005 6.1183 22.8661 5.88388C22.6317 5.64946 22.5 5.33152 22.5 5C22.5 4.66848 22.6317 4.35054 22.8661 4.11612C23.1005 3.8817 23.4185 3.75 23.75 3.75C25.4529 3.77618 27.1325 4.14892 28.6866 4.84549C30.2407 5.54205 31.6366 6.54784 32.7893 7.80154C34.978 10.0731 36.2148 13.0958 36.2463 16.25C36.2464 16.4142 36.2142 16.5768 36.1514 16.7285C36.0886 16.8802 35.9965 17.018 35.8804 17.1341C35.7643 17.2502 35.6265 17.3423 35.4748 17.405C35.3231 17.4678 35.1605 17.5001 34.9963 17.5Z" fill="black"/>
  <path d="M30 18.741C29.8358 18.7411 29.6732 18.7089 29.5215 18.6461C29.3698 18.5833 29.232 18.4912 29.1159 18.3751C28.9998 18.259 28.9077 18.1212 28.845 17.9695C28.7822 17.8178 28.7499 17.6552 28.75 17.491C28.8152 16.6608 28.7086 15.8261 28.4368 15.0389C28.165 14.2517 27.7339 13.529 27.1704 12.9159C25.9032 11.7806 24.244 11.1831 22.544 11.2496C22.5305 11.2496 22.5159 11.2484 22.5 11.2496C22.1685 11.2503 21.8503 11.1192 21.6154 10.8852C21.3805 10.6513 21.2482 10.3336 21.2476 10.0021C21.2469 9.67053 21.378 9.35233 21.612 9.11745C21.8459 8.88257 22.1636 8.75026 22.4951 8.74961H22.5464C24.8999 8.66709 27.1902 9.52137 28.9148 11.1251C29.7248 11.9659 30.3507 12.9661 30.7528 14.0622C31.1548 15.1582 31.3242 16.326 31.25 17.491C31.2501 17.6552 31.2178 17.8178 31.155 17.9695C31.0923 18.1212 31.0002 18.259 30.8841 18.3751C30.768 18.4912 30.6302 18.5833 30.4785 18.6461C30.3268 18.7089 30.1642 18.7411 30 18.741Z" fill="black"/>
  <path d="M30.2645 24.3951C29.856 23.9874 29.3711 23.6641 28.8377 23.4437C28.3042 23.2234 27.7325 23.1104 27.1553 23.111C26.5781 23.1117 26.0068 23.2261 25.4738 23.4477C24.9408 23.6693 24.4568 23.9937 24.0492 24.4025C24.0492 24.4025 22.6032 25.8761 21.9596 26.5255C19.7324 26.4334 17.6214 25.5067 16.0462 23.9294C14.4711 22.3522 13.5471 20.24 13.458 18.0126C14.1078 17.3682 15.5782 15.9202 15.5855 15.9129C16.409 15.0881 16.8716 13.9703 16.8716 12.8048C16.8716 11.6393 16.409 10.5215 15.5855 9.69672L12.1426 6.24922C11.3038 5.44744 10.1881 5 9.02769 5C7.86729 5 6.75159 5.44744 5.91274 6.24922L4.07224 8.09223C1.56246 10.6041 0.953011 19.3799 10.7736 29.2135C17.023 35.4724 22.845 37.5001 26.8998 37.5001C28.6956 37.6255 30.4716 37.0623 31.8669 35.9249L33.7074 34.082C34.534 33.2544 34.9983 32.1326 34.9983 30.9629C34.9983 29.7932 34.534 28.6714 33.7074 27.8438L30.2645 24.3951ZM31.9389 32.3112L30.0984 34.1076C28.4996 35.7048 21.1791 36.0447 12.542 27.3962C3.90371 18.7464 4.24322 11.4626 5.8407 9.86303L7.68121 8.06002C7.85785 7.88287 8.06772 7.74231 8.29877 7.64641C8.52983 7.55051 8.77754 7.50114 9.02771 7.50114C9.27788 7.50114 9.52559 7.55051 9.75665 7.64641C9.98771 7.74231 10.1976 7.88287 10.3742 8.06002L13.8171 11.4675C14.1701 11.8211 14.369 12.3 14.3703 12.7996C14.3717 13.2993 14.1755 13.7792 13.8244 14.1347C13.8244 14.1347 11.9424 15.9875 11.4857 16.4448C9.85644 18.0811 12.0707 23.4902 14.28 25.7024C15.7319 27.1161 17.5199 28.1367 19.4755 28.668C20.6137 28.9799 22.6533 29.3725 23.5266 28.4993C23.9809 28.0444 25.8251 26.1672 25.8251 26.1659C26.1796 25.8124 26.6599 25.6138 27.1606 25.6138C27.6613 25.6138 28.1416 25.8124 28.4961 26.1659L31.939 29.6146C32.2964 29.9723 32.4971 30.4573 32.4971 30.9629C32.4971 31.4685 32.2964 31.9535 31.939 32.3112L31.9389 32.3112Z" fill="black"/>
</svg>
