<svg width="40" height="40" viewBox="0 0 40 40" fill="none" xmlns="http://www.w3.org/2000/svg">
  <path d="M33.7505 5H27.5005C26.5063 5.00109 25.5531 5.39652 24.8501 6.09955C24.147 6.80257 23.7516 7.75577 23.7505 8.75V11.2502L23.748 11.25H7.50174C6.1757 11.2516 4.90444 11.7791 3.96684 12.7168C3.02925 13.6545 2.5019 14.9258 2.50049 16.2518V24.2499C2.50049 24.2645 2.50049 24.2792 2.50174 24.2938C2.50049 24.3085 2.50049 24.3231 2.50049 24.3378V24.9982C2.50176 26.3243 3.02904 27.5958 3.96664 28.5336C4.90425 29.4715 6.1756 29.9991 7.50174 30.0007H10.7506L10.0921 31.8891C9.98861 32.2524 9.97083 32.6347 10.0401 33.0061C10.1094 33.3774 10.2638 33.7276 10.4913 34.0291C10.7188 34.3307 11.0132 34.5754 11.3512 34.7439C11.6892 34.9125 12.0617 35.0004 12.4395 35.0007H18.8091C19.1872 35.0022 19.5604 34.9151 19.8987 34.7464C20.2371 34.5777 20.5311 34.332 20.7574 34.029C20.9915 33.7178 21.1479 33.3551 21.2135 32.9712C21.2791 32.5873 21.252 32.1933 21.1346 31.822L20.5022 30.0007H23.7481C23.8254 30.0007 23.8973 29.9814 23.9738 29.9779C24.2271 30.7124 24.7027 31.3499 25.3346 31.802C25.9666 32.254 26.7235 32.4982 27.5005 32.5007H33.7505C34.7447 32.4996 35.6979 32.1042 36.401 31.4012C37.104 30.6981 37.4994 29.7449 37.5005 28.7507V8.75C37.4994 7.75577 37.104 6.80257 36.401 6.09955C35.6979 5.39652 34.7447 5.00109 33.7505 5ZM12.5249 32.5006L13.3986 30.0006H17.8564L18.7237 32.5006H12.5249ZM23.7481 27.5006H7.50174C6.83844 27.4997 6.2026 27.2357 5.73369 26.7665C5.26479 26.2974 5.0011 25.6614 5.00049 24.9981V24.3377C5.00049 24.3231 5.00049 24.3084 4.99924 24.2938C5.00049 24.2791 5.00049 24.2645 5.00049 24.2498V16.2518C5.00114 15.5886 5.26485 14.9527 5.73377 14.4837C6.20269 14.0147 6.83851 13.7508 7.50174 13.75H23.7481C24.4114 13.7508 25.0474 14.0146 25.5166 14.4836C25.9857 14.9526 26.2497 15.5885 26.2506 16.2518V24.9982C26.2497 25.6616 25.9857 26.2976 25.5166 26.7667C25.0475 27.2358 24.4115 27.4997 23.7481 27.5006ZM35.0006 28.7506C35.0004 29.0821 34.8686 29.3999 34.6342 29.6343C34.3998 29.8686 34.082 30.0004 33.7506 30.0006H27.5006C27.2571 30.0002 27.019 29.9287 26.8157 29.7948C26.6123 29.661 26.4525 29.4706 26.3558 29.2471C27.0853 28.8031 27.6886 28.1793 28.1079 27.4353C28.5272 26.6913 28.7485 25.8522 28.7506 24.9982V16.2518C28.7478 15.378 28.5153 14.5203 28.0766 13.7646C27.6378 13.0089 27.0081 12.3819 26.2506 11.9463V8.75C26.2509 8.41858 26.3827 8.10083 26.6171 7.86648C26.8514 7.63213 27.1692 7.50033 27.5006 7.5H33.7506C34.082 7.50033 34.3997 7.63213 34.6341 7.86648C34.8684 8.10083 35.0002 8.41858 35.0006 8.75V28.7506Z" fill="black"/>
  <path d="M30.625 13.75C31.6605 13.75 32.5 12.9105 32.5 11.875C32.5 10.8395 31.6605 10 30.625 10C29.5895 10 28.75 10.8395 28.75 11.875C28.75 12.9105 29.5895 13.75 30.625 13.75Z" fill="black"/>
</svg>
