<svg width="40" height="40" viewBox="0 0 40 40" fill="none" xmlns="http://www.w3.org/2000/svg">
  <path d="M30.0005 35H27.5261C26.0512 35.0365 24.6131 34.5368 23.4787 33.5935C22.3442 32.6503 21.5904 31.3276 21.3571 29.8708C23.0804 29.5524 24.638 28.6411 25.76 27.2949C26.882 25.9487 27.4977 24.2525 27.5005 22.5V10C27.5003 8.27694 26.9069 6.60646 25.82 5.26942C24.7331 3.93239 23.219 3.01033 21.5323 2.65826C19.8456 2.30619 18.089 2.54558 16.5581 3.33618C15.0271 4.12679 13.8149 5.4204 13.1255 6.99953C13.0587 7.15007 13.0223 7.31233 13.0184 7.47698C13.0145 7.64163 13.0432 7.80543 13.1028 7.95895C13.1625 8.11247 13.2518 8.25269 13.3659 8.37155C13.4799 8.4904 13.6163 8.58555 13.7672 8.65151C13.9181 8.71748 14.0805 8.75296 14.2452 8.75592C14.4099 8.75888 14.5735 8.72925 14.7267 8.66876C14.8799 8.60826 15.0196 8.51807 15.1378 8.40339C15.256 8.28871 15.3504 8.15179 15.4155 8.00051C15.8751 6.94757 16.6832 6.08496 17.7039 5.55771C18.7247 5.03046 19.8958 4.87071 21.0205 5.10532C22.1452 5.33994 23.1548 5.95461 23.8796 6.846C24.6044 7.73739 25.0002 8.85114 25.0005 10V22.5C25.0004 23.5496 24.67 24.5725 24.0562 25.4238C23.4424 26.2752 22.5763 26.9118 21.5806 27.2436C20.5849 27.5754 19.51 27.5854 18.5083 27.2724C17.5065 26.9593 16.6286 26.339 15.999 25.4993C15.7997 25.2348 15.5035 25.0603 15.1756 25.014C14.8477 24.9676 14.5148 25.0533 14.25 25.2522C13.9851 25.451 13.81 25.7468 13.7631 26.0747C13.7161 26.4025 13.8012 26.7356 13.9995 27.0008C15.167 28.5639 16.9025 29.605 18.8311 29.8993C19.0665 31.8327 19.9477 33.63 21.332 35H10.0005C9.66897 35 9.35102 35.1317 9.1166 35.3661C8.88218 35.6006 8.75049 35.9185 8.75049 36.25C8.75049 36.5815 8.88218 36.8995 9.1166 37.1339C9.35102 37.3683 9.66897 37.5 10.0005 37.5H30.0005C30.332 37.5 30.65 37.3683 30.8844 37.1339C31.1188 36.8995 31.2505 36.5815 31.2505 36.25C31.2505 35.9185 31.1188 35.6006 30.8844 35.3661C30.65 35.1317 30.332 35 30.0005 35Z" fill="black"/>
  <path d="M10.3667 21.6161C10.2506 21.7321 10.1586 21.8699 10.0958 22.0216C10.033 22.1732 10.0006 22.3357 10.0006 22.4999C10.0006 22.664 10.033 22.8265 10.0958 22.9782C10.1586 23.1298 10.2506 23.2676 10.3667 23.3837C10.6011 23.618 10.919 23.7497 11.2505 23.7497C11.4146 23.7497 11.5771 23.7174 11.7288 23.6546C11.8804 23.5918 12.0182 23.4997 12.1343 23.3837L17.1343 18.3837C17.2504 18.2676 17.3425 18.1298 17.4053 17.9782C17.4681 17.8265 17.5005 17.664 17.5005 17.4999C17.5005 17.3357 17.4681 17.1732 17.4053 17.0215C17.3425 16.8699 17.2504 16.7321 17.1343 16.6161L12.1343 11.6161C11.8999 11.3817 11.582 11.25 11.2505 11.25C10.919 11.25 10.6011 11.3817 10.3667 11.6161C10.1323 11.8505 10.0006 12.1684 10.0006 12.4999C10.0006 12.8313 10.1323 13.1493 10.3667 13.3837L13.233 16.2499H6.25049C5.91897 16.2499 5.60102 16.3816 5.3666 16.616C5.13218 16.8504 5.00049 17.1684 5.00049 17.4999C5.00049 17.8314 5.13218 18.1494 5.3666 18.3838C5.60102 18.6182 5.91897 18.7499 6.25049 18.7499H13.2329L10.3667 21.6161Z" fill="black"/>
</svg>
