<svg width="40" height="40" viewBox="0 0 40 40" fill="none" xmlns="http://www.w3.org/2000/svg">
  <path d="M31.2505 5H8.75049C7.09348 5.00195 5.5049 5.66105 4.33322 6.83273C3.16154 8.00441 2.50244 9.59299 2.50049 11.25V22.5195C2.50049 22.5403 2.50049 22.5598 2.50174 22.5806C2.50049 22.6001 2.50049 22.6196 2.50049 22.6404V23.75C2.50243 25.407 3.16154 26.9956 4.33322 28.1673C5.5049 29.3389 7.09348 29.9981 8.75049 30H13.7515L13.001 31.001C12.7226 31.3724 12.5531 31.8139 12.5115 32.2761C12.4699 32.7384 12.5578 33.2031 12.7654 33.6182C12.9729 34.0333 13.292 34.3824 13.6867 34.6265C14.0815 34.8705 14.5364 34.9999 15.0005 35H25.0005C25.4646 35 25.9196 34.8707 26.3144 34.6266C26.7091 34.3825 27.0281 34.0333 27.2356 33.6181C27.4431 33.2029 27.5308 32.7381 27.489 32.2759C27.4471 31.8136 27.2774 31.3722 26.9987 31.001L26.249 30H31.2505C32.9075 29.9981 34.496 29.3389 35.6677 28.1673C36.8394 26.9956 37.4985 25.407 37.5005 23.75V11.25C37.4985 9.593 36.8394 8.00442 35.6677 6.83274C34.4961 5.66106 32.9075 5.00196 31.2505 5ZM25.0005 32.5H15.0005L16.8755 30H23.1255L25.0005 32.5ZM35.0005 23.75C34.9994 24.7442 34.604 25.6974 33.9009 26.4004C33.1979 27.1035 32.2447 27.4989 31.2505 27.5H8.75049C7.75626 27.4989 6.80306 27.1035 6.10004 26.4004C5.39701 25.6974 5.00157 24.7442 5.00049 23.75V22.6404C5.00049 22.6196 5.00049 22.6001 4.99924 22.5806C5.00049 22.5598 5.00049 22.5403 5.00049 22.5195V11.25C5.00157 10.2558 5.39701 9.30257 6.10004 8.59955C6.80306 7.89652 7.75626 7.50109 8.75049 7.5H31.2505C32.2447 7.50109 33.1979 7.89652 33.9009 8.59955C34.604 9.30257 34.9994 10.2558 35.0005 11.25V23.75Z" fill="black"/>
  <path d="M26.8178 11.4821C26.8177 11.2015 26.7062 10.9323 26.5078 10.7338C26.3093 10.5354 26.0401 10.4239 25.7595 10.4239L19.7724 10.4239C19.4946 10.4281 19.2295 10.5415 19.0345 10.7395C18.8395 10.9375 18.7302 11.2042 18.7302 11.4821C18.7302 11.76 18.8395 12.0268 19.0346 12.2248C19.2296 12.4228 19.4946 12.5361 19.7725 12.5403L23.2042 12.5401L19.0231 16.7212C18.8246 16.9197 18.7131 17.1889 18.7131 17.4696C18.7131 17.7503 18.8246 18.0195 19.0231 18.218C19.2216 18.4165 19.4908 18.528 19.7715 18.528C20.0522 18.528 20.3214 18.4165 20.5199 18.218L24.701 14.0369L24.701 17.4688C24.7052 17.7467 24.8185 18.0117 25.0165 18.2068C25.2145 18.4018 25.4813 18.5111 25.7592 18.5111C26.0371 18.5111 26.3038 18.4018 26.5019 18.2068C26.6999 18.0118 26.8132 17.7467 26.8175 17.4689L26.8178 11.4821Z" fill="black"/>
  <path d="M13.4235 22.764C13.4235 23.0446 13.535 23.3138 13.7334 23.5122C13.9319 23.7107 14.2011 23.8222 14.4817 23.8222L20.4688 23.8222C20.7466 23.818 21.0117 23.7046 21.2067 23.5066C21.4017 23.3086 21.511 23.0419 21.511 22.764C21.511 22.486 21.4017 22.2193 21.2067 22.0213C21.0116 21.8233 20.7466 21.71 20.4687 21.7057L17.037 21.706L21.2181 17.5249C21.4166 17.3264 21.5281 17.0572 21.5281 16.7765C21.5281 16.4958 21.4166 16.2266 21.2181 16.0281C21.0196 15.8296 20.7504 15.7181 20.4697 15.7181C20.189 15.7181 19.9198 15.8296 19.7214 16.0281L15.5402 20.2092L15.5402 16.7773C15.536 16.4994 15.4227 16.2344 15.2247 16.0393C15.0267 15.8443 14.7599 15.735 14.482 15.735C14.2041 15.735 13.9374 15.8443 13.7394 16.0393C13.5413 16.2343 13.428 16.4993 13.4237 16.7772L13.4235 22.764Z" fill="black"/>
</svg>

