<svg width="40" height="40" viewBox="0 0 40 40" fill="none" xmlns="http://www.w3.org/2000/svg">
  <path d="M28.7505 15H27.5017V10.5676C27.5017 5.96801 24.2766 2.5 20.0005 2.5C15.7256 2.5 12.503 5.96801 12.503 10.5676V15H11.2505C9.92478 15.0013 8.65377 15.5285 7.71637 16.4659C6.77897 17.4033 6.25177 18.6743 6.25047 20V32.5C6.25179 33.8257 6.779 35.0967 7.71639 36.0341C8.65379 36.9715 9.92479 37.4987 11.2505 37.5H28.7505C30.0761 37.4987 31.3471 36.9715 32.2845 36.0341C33.2219 35.0967 33.7491 33.8257 33.7505 32.5V20C33.7491 18.6743 33.2219 17.4033 32.2845 16.4659C31.3471 15.5285 30.0761 15.0013 28.7505 15ZM15.003 10.5676C15.003 7.3413 17.105 5 20.0005 5C22.8984 5 25.0017 7.34125 25.0017 10.5676V15H15.003V10.5676ZM31.2505 32.5C31.2496 33.1628 30.9859 33.7982 30.5173 34.2668C30.0486 34.7355 29.4132 34.9991 28.7505 35H11.2505C10.5877 34.9991 9.9523 34.7355 9.48365 34.2668C9.01499 33.7982 8.75133 33.1628 8.75047 32.5V20C8.75133 19.3372 9.01499 18.7018 9.48365 18.2332C9.9523 17.7645 10.5877 17.5009 11.2505 17.5H28.7505C29.4132 17.5009 30.0486 17.7645 30.5173 18.2332C30.9859 18.7018 31.2496 19.3372 31.2505 20V32.5Z" fill="black"/>
</svg>
