<svg width="24" height="34" viewBox="0 0 24 34" fill="none" xmlns="http://www.w3.org/2000/svg">
  <path d="M22 9.50001C21.8358 9.49991 21.6732 9.53218 21.5215 9.59496C21.3698 9.65775 21.232 9.74982 21.1159 9.86591C20.9998 9.982 20.9077 10.1198 20.845 10.2715C20.7822 10.4232 20.7499 10.5858 20.75 10.75V13.9763C20.7502 14.2388 20.6859 14.4974 20.5629 14.7294C20.4399 14.9614 20.2619 15.1597 20.0444 15.3068L13.25 19.9076V5.01758L16.1163 7.88383C16.2323 7.99989 16.3701 8.09195 16.5217 8.15476C16.6734 8.21757 16.8359 8.24989 17 8.24989C17.1642 8.24988 17.3267 8.21755 17.4784 8.15474C17.63 8.09192 17.7678 7.99985 17.8838 7.88379C17.9999 7.76772 18.092 7.62994 18.1548 7.4783C18.2176 7.32665 18.2499 7.16412 18.2499 6.99999C18.2499 6.83585 18.2176 6.67333 18.1547 6.52169C18.0919 6.37005 17.9999 6.23227 17.8838 6.11621L12.8838 1.11621C12.7677 1.00011 12.63 0.908011 12.4783 0.845176C12.3267 0.782341 12.1641 0.75 12 0.75C11.8359 0.75 11.6733 0.782341 11.5217 0.845176C11.37 0.908011 11.2323 1.00011 11.1162 1.11621L6.11621 6.11621C5.88182 6.3506 5.75013 6.66851 5.75013 7C5.75013 7.33148 5.88181 7.64939 6.11621 7.88379C6.3506 8.11818 6.66851 8.24987 7 8.24987C7.33148 8.24987 7.64939 8.11819 7.88379 7.88379L10.75 5.01754V27.6113L3.95679 23.0107C3.73899 22.8638 3.56063 22.6657 3.43739 22.4336C3.31414 22.2016 3.24979 21.9429 3.25 21.6802V19.5C3.25 19.1685 3.1183 18.8505 2.88388 18.6161C2.64946 18.3817 2.33152 18.25 2 18.25C1.66848 18.25 1.35054 18.3817 1.11612 18.6161C0.881697 18.8505 0.75 19.1685 0.75 19.5V21.6802C0.749747 22.3514 0.914092 23.0124 1.22864 23.6053C1.54318 24.1982 1.99833 24.7049 2.5542 25.0811L10.75 30.6308V32C10.75 32.3315 10.8817 32.6495 11.1161 32.8839C11.3505 33.1183 11.6685 33.25 12 33.25C12.3315 33.25 12.6495 33.1183 12.8839 32.8839C13.1183 32.6495 13.25 32.3315 13.25 32V22.9269L21.447 17.3772C22.0026 17.0008 22.4574 16.494 22.7717 15.9011C23.086 15.3082 23.2502 14.6474 23.25 13.9763V10.7501C23.2501 10.5859 23.2178 10.4233 23.1551 10.2716C23.0923 10.1199 23.0002 9.98204 22.8841 9.86594C22.768 9.74984 22.6302 9.65776 22.4785 9.59497C22.3268 9.53218 22.1642 9.49991 22 9.50001Z" fill="black"/>
</svg>
