<svg width="69" height="32" viewBox="0 0 69 32" fill="none" xmlns="http://www.w3.org/2000/svg">
  <path d="M12.4826 28.858C15.2826 28.858 17.4247 28.228 18.9087 26.968C20.1407 25.96 20.7567 24.644 20.7567 23.02C20.7567 21.872 20.5186 20.948 20.0426 20.248C19.4826 19.464 18.5027 18.764 17.1026 18.148C15.7026 17.504 13.6446 16.846 10.9286 16.174C7.31665 15.278 4.81065 14.088 3.41065 12.604C2.23465 11.372 1.64665 9.748 1.64665 7.732C1.64665 5.324 2.68265 3.42 4.75465 2.02C6.65865 0.759999 9.16465 0.129999 12.2726 0.129999C15.6326 0.129999 18.3906 0.913999 20.5467 2.482C22.4226 3.882 23.5706 5.716 23.9907 7.984H20.5886C20.2526 6.276 19.2866 4.974 17.6906 4.078C16.2907 3.294 14.4987 2.902 12.3146 2.902C9.71065 2.902 7.77865 3.406 6.51865 4.414C5.48265 5.226 4.96465 6.276 4.96465 7.564C4.96465 9.132 5.56665 10.336 6.77065 11.176C7.94665 11.988 10.1026 12.786 13.2386 13.57C17.5506 14.662 20.4907 15.992 22.0587 17.56C23.4027 18.876 24.0747 20.654 24.0747 22.894C24.0747 25.554 22.9407 27.71 20.6727 29.362C18.5727 30.874 15.8567 31.63 12.5246 31.63C9.08065 31.63 6.25265 30.748 4.04065 28.984C2.10865 27.444 0.932649 25.414 0.512649 22.894H3.91465C4.25065 24.91 5.27265 26.45 6.98065 27.514C8.43665 28.41 10.2706 28.858 12.4826 28.858ZM46.5299 0.759999V3.7H36.3659V31H33.0479V3.7H22.9679V0.759999H46.5299ZM47.0703 0.759999H57.0663C60.9023 0.759999 63.8003 1.712 65.7603 3.616C67.4683 5.268 68.3223 7.536 68.3223 10.42C68.3223 13.584 67.1883 15.992 64.9203 17.644C62.9323 19.072 60.2583 19.786 56.8983 19.786H50.3463V31H47.0703V0.759999ZM57.1503 3.49H50.3463V17.056H56.9823C59.7543 17.056 61.8123 16.398 63.1563 15.082C64.3043 13.962 64.8783 12.408 64.8783 10.42C64.8783 8.068 64.1223 6.29 62.6103 5.086C61.2663 4.022 59.4463 3.49 57.1503 3.49Z" fill="black"/>
</svg>
