<svg width="40" height="40" viewBox="0 0 40 40" fill="none" xmlns="http://www.w3.org/2000/svg">
  <path d="M31.2505 7.5H8.75049C7.09348 7.50195 5.5049 8.16105 4.33322 9.33274C3.16154 10.5044 2.50244 12.093 2.50049 13.75V18.75C2.50244 20.407 3.16154 21.9956 4.33322 23.1673C5.5049 24.3389 7.09348 24.9981 8.75049 25H11.2505V30C11.2514 30.6628 11.515 31.2982 11.9837 31.7668C12.4523 32.2355 13.0877 32.4991 13.7505 32.5H26.2505C26.9133 32.4991 27.5486 32.2355 28.0173 31.7668C28.486 31.2982 28.7496 30.6628 28.7505 30V25H31.2505C32.9075 24.9981 34.4961 24.3389 35.6678 23.1673C36.8394 21.9956 37.4985 20.407 37.5005 18.75V13.75C37.4985 12.093 36.8394 10.5044 35.6678 9.33273C34.4961 8.16105 32.9075 7.50195 31.2505 7.5ZM26.2468 30H13.7505V25H26.2487L26.2468 30ZM35.0005 18.75C34.9994 19.7442 34.604 20.6974 33.9009 21.4005C33.1979 22.1035 32.2447 22.4989 31.2505 22.5H8.75049C7.75626 22.4989 6.80306 22.1035 6.10004 21.4005C5.39701 20.6974 5.00157 19.7442 5.00049 18.75V13.75C5.00157 12.7558 5.39701 11.8026 6.10004 11.0995C6.80306 10.3965 7.75626 10.0011 8.75049 10H31.2505C32.2447 10.0011 33.1979 10.3965 33.9009 11.0995C34.604 11.8026 34.9994 12.7558 35.0005 13.75V18.75Z" fill="black"/>
  <path d="M21.2505 15H18.7505C18.419 15 18.101 15.1317 17.8666 15.3661C17.6322 15.6005 17.5005 15.9185 17.5005 16.25C17.5005 16.5815 17.6322 16.8995 17.8666 17.1339C18.101 17.3683 18.419 17.5 18.7505 17.5H21.2505C21.582 17.5 21.9 17.3683 22.1344 17.1339C22.3688 16.8995 22.5005 16.5815 22.5005 16.25C22.5005 15.9185 22.3688 15.6005 22.1344 15.3661C21.9 15.1317 21.582 15 21.2505 15Z" fill="black"/>
</svg>
