<svg width="36" height="23" viewBox="0 0 36 23" fill="none" xmlns="http://www.w3.org/2000/svg">
  <path d="M7.81184 22H5.59184V3.34L0.821838 5.95V3.64L5.62184 0.999999H7.81184V22ZM17.9101 22H15.0901V19.09H17.9101V22ZM34.2299 5.86C34.2299 8.08 32.9199 9.73 30.2999 10.81C33.4399 12.01 35.0099 13.89 35.0099 16.45C35.0099 18.33 34.2299 19.83 32.6699 20.95C31.3099 21.95 29.5799 22.45 27.4799 22.45C25.0799 22.45 23.1699 21.82 21.7499 20.56C20.5499 19.5 19.9499 18.19 19.9499 16.63C19.9499 13.87 21.4499 11.98 24.4499 10.96C21.9699 9.94 20.7299 8.3 20.7299 6.04C20.7299 4.14 21.4999 2.7 23.0399 1.72C24.2399 0.939999 25.7199 0.549999 27.4799 0.549999C29.5399 0.549999 31.1899 1.03 32.4299 1.99C33.6299 2.93 34.2299 4.22 34.2299 5.86ZM32.6399 16.45C32.6399 14.85 31.9399 13.65 30.5399 12.85C29.7599 12.39 28.5799 12 26.9999 11.68C23.8799 12.48 22.3199 14.07 22.3199 16.45C22.3199 17.75 22.8399 18.78 23.8799 19.54C24.7999 20.24 25.9999 20.59 27.4799 20.59C29.1799 20.59 30.4999 20.16 31.4399 19.3C32.2399 18.56 32.6399 17.61 32.6399 16.45ZM22.9199 5.92C22.9199 7.4 23.5499 8.51 24.8099 9.25C25.5299 9.67 26.5299 9.99 27.8099 10.21C30.6099 9.35 32.0099 7.92 32.0099 5.92C32.0099 4.72 31.4999 3.78 30.4799 3.1C29.6599 2.58 28.6599 2.32 27.4799 2.32C26.0999 2.32 24.9899 2.65 24.1499 3.31C23.3299 3.95 22.9199 4.82 22.9199 5.92Z" fill="black"/>
</svg>
