<svg width="133" height="32" viewBox="0 0 133 32" fill="none" xmlns="http://www.w3.org/2000/svg">
  <path d="M10.0618 31H6.95377V4.876L0.275768 8.53V5.296L6.99577 1.6H10.0618V31ZM28.6934 28.984C33.4254 28.984 35.7914 24.742 35.7914 16.258C35.7914 7.83 33.4254 3.616 28.6934 3.616C23.9614 3.616 21.5954 7.83 21.5954 16.258C21.5954 24.742 23.9614 28.984 28.6934 28.984ZM28.6934 31.63C25.3894 31.63 22.8274 30.216 21.0074 27.388C19.2714 24.728 18.4034 21.018 18.4034 16.258C18.4034 10.77 19.5234 6.71 21.7634 4.078C23.5274 2.006 25.8374 0.969999 28.6934 0.969999C31.9974 0.969999 34.5594 2.342 36.3794 5.086C38.1154 7.718 38.9834 11.442 38.9834 16.258C38.9834 21.69 37.8774 25.736 35.6654 28.396C33.8734 30.552 31.5494 31.63 28.6934 31.63ZM50.4668 0.759999H53.7848V28.06H68.6108V31H50.4668V0.759999ZM73.0125 31H69.8625V9.16H73.0125V31ZM73.2225 4.666H69.6525V0.759999H73.2225V4.666ZM78.842 31H75.734V9.16H78.296L78.674 12.436C79.402 11.204 80.368 10.252 81.572 9.58C82.804 8.88 84.148 8.53 85.604 8.53C88.124 8.53 90.07 9.314 91.442 10.882C92.646 12.254 93.248 14.102 93.248 16.426V31H90.14V16.51C90.14 14.662 89.622 13.276 88.586 12.352C87.69 11.568 86.458 11.176 84.89 11.176C83.126 11.176 81.656 11.806 80.48 13.066C79.388 14.242 78.842 15.712 78.842 17.476V31ZM111.206 24.868H114.566C113.978 27.052 112.774 28.76 110.954 29.992C109.33 31.084 107.384 31.63 105.116 31.63C101.756 31.63 99.124 30.51 97.22 28.27C95.484 26.226 94.616 23.496 94.616 20.08C94.616 16.16 95.708 13.164 97.892 11.092C99.712 9.384 102.022 8.53 104.822 8.53C108.098 8.53 110.618 9.636 112.382 11.848C114.034 13.976 114.86 16.958 114.86 20.794H97.808C97.948 23.678 98.802 25.834 100.37 27.262C101.658 28.41 103.282 28.984 105.242 28.984C106.81 28.984 108.154 28.564 109.274 27.724C110.226 26.968 110.87 26.016 111.206 24.868ZM104.864 11.05C102.848 11.05 101.224 11.736 99.992 13.108C98.816 14.368 98.116 16.09 97.892 18.274H111.668C111.528 15.782 110.744 13.892 109.316 12.604C108.14 11.568 106.656 11.05 104.864 11.05ZM129.694 25.162C129.694 23.958 129.218 23.048 128.266 22.432C127.314 21.788 125.536 21.214 122.932 20.71C120.356 20.178 118.494 19.38 117.346 18.316C116.31 17.336 115.792 16.076 115.792 14.536C115.792 12.604 116.576 11.092 118.144 10C119.6 9.02 121.56 8.53 124.024 8.53C126.544 8.53 128.602 9.16 130.198 10.42C131.598 11.512 132.452 12.954 132.76 14.746H129.568C129.344 13.542 128.686 12.604 127.594 11.932C126.614 11.316 125.396 11.008 123.94 11.008C122.204 11.008 120.902 11.372 120.034 12.1C119.334 12.66 118.984 13.374 118.984 14.242C118.984 15.306 119.376 16.118 120.16 16.678C120.972 17.238 122.442 17.728 124.57 18.148C127.622 18.764 129.764 19.59 130.996 20.626C132.256 21.662 132.886 23.104 132.886 24.952C132.886 27.024 132.004 28.676 130.24 29.908C128.672 31.056 126.614 31.63 124.066 31.63C121.266 31.63 119.04 30.944 117.388 29.572C115.988 28.396 115.19 26.87 114.994 24.994H118.186C118.606 27.738 120.58 29.11 124.108 29.11C125.984 29.11 127.426 28.676 128.434 27.808C129.274 27.08 129.694 26.198 129.694 25.162Z" fill="black"/>
</svg>
