<svg width="61" height="32" viewBox="0 0 61 32" fill="none" xmlns="http://www.w3.org/2000/svg">
  <path d="M9.87661 31H6.76861V4.876L0.0906103 8.53V5.296L6.81061 1.6H9.87661V31ZM28.5082 28.984C33.2402 28.984 35.6062 24.742 35.6062 16.258C35.6062 7.83 33.2402 3.616 28.5082 3.616C23.7762 3.616 21.4102 7.83 21.4102 16.258C21.4102 24.742 23.7762 28.984 28.5082 28.984ZM28.5082 31.63C25.2042 31.63 22.6422 30.216 20.8222 27.388C19.0862 24.728 18.2182 21.018 18.2182 16.258C18.2182 10.77 19.3382 6.71 21.5782 4.078C23.3422 2.006 25.6522 0.969999 28.5082 0.969999C31.8122 0.969999 34.3742 2.342 36.1942 5.086C37.9302 7.718 38.7982 11.442 38.7982 16.258C38.7982 21.69 37.6922 25.736 35.4802 28.396C33.6882 30.552 31.3642 31.63 28.5082 31.63ZM50.3318 28.984C55.0638 28.984 57.4298 24.742 57.4298 16.258C57.4298 7.83 55.0638 3.616 50.3318 3.616C45.5998 3.616 43.2338 7.83 43.2338 16.258C43.2338 24.742 45.5998 28.984 50.3318 28.984ZM50.3318 31.63C47.0278 31.63 44.4658 30.216 42.6458 27.388C40.9098 24.728 40.0418 21.018 40.0418 16.258C40.0418 10.77 41.1618 6.71 43.4018 4.078C45.1658 2.006 47.4758 0.969999 50.3318 0.969999C53.6358 0.969999 56.1978 2.342 58.0178 5.086C59.7538 7.718 60.6218 11.442 60.6218 16.258C60.6218 21.69 59.5158 25.736 57.3038 28.396C55.5118 30.552 53.1878 31.63 50.3318 31.63Z" fill="black"/>
</svg>
