<svg width="105" height="36" viewBox="0 0 105 36" fill="none" xmlns="http://www.w3.org/2000/svg">
  <path d="M10.1761 31H7.06806V4.876L0.390064 8.53V5.296L7.11006 1.6H10.1761V31ZM28.8077 28.984C33.5397 28.984 35.9057 24.742 35.9057 16.258C35.9057 7.83 33.5397 3.616 28.8077 3.616C24.0757 3.616 21.7097 7.83 21.7097 16.258C21.7097 24.742 24.0757 28.984 28.8077 28.984ZM28.8077 31.63C25.5037 31.63 22.9417 30.216 21.1217 27.388C19.3857 24.728 18.5177 21.018 18.5177 16.258C18.5177 10.77 19.6377 6.71 21.8777 4.078C23.6417 2.006 25.9517 0.969999 28.8077 0.969999C32.1117 0.969999 34.6737 2.342 36.4937 5.086C38.2297 7.718 39.0977 11.442 39.0977 16.258C39.0977 21.69 37.9917 25.736 35.7797 28.396C33.9877 30.552 31.6637 31.63 28.8077 31.63ZM60.0813 8.404C60.0813 11.512 58.2473 13.822 54.5793 15.334C58.9753 17.014 61.1732 19.646 61.1732 23.23C61.1732 25.862 60.0813 27.962 57.8973 29.53C55.9933 30.93 53.5713 31.63 50.6313 31.63C47.2713 31.63 44.5973 30.748 42.6093 28.984C40.9293 27.5 40.0893 25.666 40.0893 23.482C40.0893 19.618 42.1893 16.972 46.3893 15.544C42.9173 14.116 41.1813 11.82 41.1813 8.656C41.1813 5.996 42.2593 3.98 44.4153 2.608C46.0953 1.516 48.1673 0.969999 50.6313 0.969999C53.5153 0.969999 55.8253 1.642 57.5613 2.986C59.2413 4.302 60.0813 6.108 60.0813 8.404ZM57.8553 23.23C57.8553 20.99 56.8753 19.31 54.9153 18.19C53.8233 17.546 52.1713 17 49.9593 16.552C45.5913 17.672 43.4073 19.898 43.4073 23.23C43.4073 25.05 44.1353 26.492 45.5913 27.556C46.8793 28.536 48.5593 29.026 50.6313 29.026C53.0113 29.026 54.8593 28.424 56.1753 27.22C57.2953 26.184 57.8553 24.854 57.8553 23.23ZM44.2473 8.488C44.2473 10.56 45.1293 12.114 46.8933 13.15C47.9013 13.738 49.3013 14.186 51.0933 14.494C55.0133 13.29 56.9733 11.288 56.9733 8.488C56.9733 6.808 56.2593 5.492 54.8313 4.54C53.6833 3.812 52.2833 3.448 50.6313 3.448C48.6993 3.448 47.1453 3.91 45.9693 4.834C44.8213 5.73 44.2473 6.948 44.2473 8.488ZM72.4548 28.984C77.1868 28.984 79.5528 24.742 79.5528 16.258C79.5528 7.83 77.1868 3.616 72.4548 3.616C67.7228 3.616 65.3568 7.83 65.3568 16.258C65.3568 24.742 67.7228 28.984 72.4548 28.984ZM72.4548 31.63C69.1508 31.63 66.5888 30.216 64.7688 27.388C63.0328 24.728 62.1648 21.018 62.1648 16.258C62.1648 10.77 63.2848 6.71 65.5248 4.078C67.2888 2.006 69.5988 0.969999 72.4548 0.969999C75.7588 0.969999 78.3208 2.342 80.1408 5.086C81.8768 7.718 82.7448 11.442 82.7448 16.258C82.7448 21.69 81.6388 25.736 79.4268 28.396C77.6348 30.552 75.3108 31.63 72.4548 31.63ZM84.7864 9.16H87.3484L87.8104 12.646C88.6504 11.302 89.7424 10.266 91.0864 9.538C92.3744 8.866 93.8164 8.53 95.4124 8.53C98.4644 8.53 100.83 9.622 102.51 11.806C104.05 13.822 104.82 16.51 104.82 19.87C104.82 23.846 103.784 26.884 101.712 28.984C99.9764 30.748 97.7784 31.63 95.1184 31.63C93.5504 31.63 92.1364 31.294 90.8764 30.622C89.6164 29.922 88.6224 28.928 87.8944 27.64V38.56H84.7864V9.16ZM101.544 19.786C101.544 16.762 100.816 14.494 99.3604 12.982C98.1844 11.778 96.6304 11.176 94.6984 11.176C92.5704 11.176 90.8624 11.974 89.5744 13.57C88.3144 15.11 87.6844 17.238 87.6844 19.954C87.6844 23.006 88.4264 25.344 89.9104 26.968C91.1144 28.312 92.6964 28.984 94.6564 28.984C96.8964 28.984 98.6184 28.13 99.8224 26.422C100.97 24.826 101.544 22.614 101.544 19.786Z" fill="black"/>
</svg>
