<svg width="77" height="32" viewBox="0 0 77 32" fill="none" xmlns="http://www.w3.org/2000/svg">
  <path d="M10.416 31H7.30799V4.876L0.629986 8.53V5.296L7.34999 1.6H10.416V31ZM22.4956 8.992H19.1776C19.5416 6.416 20.7316 4.4 22.7476 2.944C24.5116 1.628 26.6536 0.969999 29.1736 0.969999C32.0296 0.969999 34.3256 1.81 36.0616 3.49C37.6296 4.974 38.4136 6.864 38.4136 9.16C38.4136 11.176 37.8396 13.052 36.6916 14.788C35.7956 16.216 34.1716 18.064 31.8196 20.332L23.8816 28.102H38.3296V31H19.6816V28.102L29.9716 17.938C31.9876 15.95 33.3596 14.354 34.0876 13.15C34.8436 11.918 35.2216 10.602 35.2216 9.202C35.2216 7.382 34.6056 5.968 33.3736 4.96C32.2816 4.064 30.8536 3.616 29.0896 3.616C27.1576 3.616 25.5896 4.162 24.3856 5.254C23.3216 6.206 22.6916 7.452 22.4956 8.992ZM50.8712 28.984C55.6032 28.984 57.9692 24.742 57.9692 16.258C57.9692 7.83 55.6032 3.616 50.8712 3.616C46.1392 3.616 43.7732 7.83 43.7732 16.258C43.7732 24.742 46.1392 28.984 50.8712 28.984ZM50.8712 31.63C47.5672 31.63 45.0052 30.216 43.1852 27.388C41.4492 24.728 40.5812 21.018 40.5812 16.258C40.5812 10.77 41.7012 6.71 43.9412 4.078C45.7052 2.006 48.0152 0.969999 50.8712 0.969999C54.1752 0.969999 56.7372 2.342 58.5572 5.086C60.2932 7.718 61.1612 11.442 61.1612 16.258C61.1612 21.69 60.0552 25.736 57.8432 28.396C56.0512 30.552 53.7272 31.63 50.8712 31.63ZM65.2608 7.816C65.2608 9.272 65.6948 10.42 66.5628 11.26C67.2908 11.988 68.2148 12.352 69.3348 12.352C70.6228 12.352 71.6308 11.89 72.3588 10.966C73.0308 10.154 73.3668 9.104 73.3668 7.816C73.3668 6.36 72.9468 5.212 72.1068 4.372C71.3508 3.644 70.4268 3.28 69.3348 3.28C68.0468 3.28 67.0248 3.742 66.2688 4.666C65.5968 5.478 65.2608 6.528 65.2608 7.816ZM76.1808 7.816C76.1808 10.056 75.3968 11.82 73.8288 13.108C72.5688 14.144 71.0708 14.662 69.3348 14.662C67.3188 14.662 65.6388 13.99 64.2948 12.646C63.0628 11.386 62.4468 9.776 62.4468 7.816C62.4468 5.576 63.2308 3.812 64.7988 2.524C66.0868 1.488 67.5988 0.969999 69.3348 0.969999C71.3508 0.969999 73.0168 1.642 74.3328 2.986C75.5648 4.246 76.1808 5.856 76.1808 7.816Z" fill="black"/>
</svg>
