<svg width="63" height="31" viewBox="0 0 63 31" fill="none" xmlns="http://www.w3.org/2000/svg">
  <path d="M10.1588 31H7.05084V4.876L0.372837 8.53V5.296L7.09284 1.6H10.1588V31ZM40.3404 0.759999V3.7H30.1764V31H26.8584V3.7H16.7784V0.759999H40.3404ZM40.8809 0.759999H51.4649C54.9369 0.759999 57.5549 1.544 59.3189 3.112C60.8029 4.456 61.5449 6.262 61.5449 8.53C61.5449 10.126 60.9989 11.554 59.9069 12.814C58.9549 13.934 57.7789 14.662 56.3789 14.998C58.2549 15.278 59.7949 16.174 60.9989 17.686C62.0909 19.086 62.6369 20.696 62.6369 22.516C62.6369 25.4 61.5729 27.57 59.4449 29.026C57.5409 30.342 54.8949 31 51.5069 31H40.8809V0.759999ZM52.1789 16.426H44.1569V28.27H52.0109C54.5309 28.27 56.3929 27.71 57.5969 26.59C58.6609 25.61 59.1929 24.252 59.1929 22.516C59.1929 20.472 58.5069 18.918 57.1349 17.854C55.9029 16.902 54.2509 16.426 52.1789 16.426ZM51.8009 3.322H44.1569V13.822H52.0529C54.1529 13.822 55.7629 13.262 56.8829 12.142C57.7789 11.218 58.2269 10.014 58.2269 8.53C58.2269 6.766 57.5829 5.436 56.2949 4.54C55.2029 3.728 53.7049 3.322 51.8009 3.322Z" fill="black"/>
</svg>
