<svg width="52" height="32" viewBox="0 0 52 32" fill="none" xmlns="http://www.w3.org/2000/svg">
  <path d="M3.59257 8.992H0.274571C0.638571 6.416 1.82857 4.4 3.84457 2.944C5.60857 1.628 7.75057 0.969999 10.2706 0.969999C13.1266 0.969999 15.4226 1.81 17.1586 3.49C18.7266 4.974 19.5106 6.864 19.5106 9.16C19.5106 11.176 18.9366 13.052 17.7886 14.788C16.8926 16.216 15.2686 18.064 12.9166 20.332L4.97857 28.102H19.4266V31H0.778571V28.102L11.0686 17.938C13.0846 15.95 14.4566 14.354 15.1846 13.15C15.9406 11.918 16.3186 10.602 16.3186 9.202C16.3186 7.382 15.7026 5.968 14.4706 4.96C13.3786 4.064 11.9506 3.616 10.1866 3.616C8.25457 3.616 6.68657 4.162 5.48257 5.254C4.41857 6.206 3.78857 7.452 3.59257 8.992ZM27.4742 31H23.5262V26.926H27.4742V31ZM40.6618 31.63C37.7778 31.63 35.3838 30.804 33.4798 29.152C31.8838 27.78 30.9038 26.072 30.5398 24.028H33.8158C34.1798 25.652 35.0338 26.912 36.3778 27.808C37.5818 28.592 39.0238 28.984 40.7038 28.984C42.9158 28.984 44.6798 28.228 45.9958 26.716C47.1998 25.344 47.8018 23.58 47.8018 21.424C47.8018 19.016 47.0738 17.168 45.6178 15.88C44.4138 14.788 42.8318 14.242 40.8718 14.242C39.5838 14.242 38.3658 14.522 37.2178 15.082C36.0698 15.614 35.1038 16.356 34.3198 17.308H31.5898L32.2198 1.6H49.6498V4.246H35.0758L34.6978 14.2C36.5458 12.548 38.8278 11.722 41.5438 11.722C44.4838 11.722 46.8358 12.674 48.5998 14.578C50.2238 16.342 51.0358 18.666 51.0358 21.55C51.0358 24.658 49.9718 27.164 47.8438 29.068C45.9398 30.776 43.5458 31.63 40.6618 31.63Z" fill="black"/>
</svg>
