<svg width="55" height="26" viewBox="0 0 55 26" fill="none" xmlns="http://www.w3.org/2000/svg">
  <path d="M2.76863 7.28H0.398631C0.658631 5.44 1.50863 4 2.94863 2.96C4.20863 2.02 5.73863 1.55 7.53863 1.55C9.57863 1.55 11.2186 2.15 12.4586 3.35C13.5786 4.41 14.1386 5.76 14.1386 7.4C14.1386 8.84 13.7286 10.18 12.9086 11.42C12.2686 12.44 11.1086 13.76 9.42863 15.38L3.75863 20.93H14.0786V23H0.758631V20.93L8.10863 13.67C9.54863 12.25 10.5286 11.11 11.0486 10.25C11.5886 9.37 11.8586 8.43 11.8586 7.43C11.8586 6.13 11.4186 5.12 10.5386 4.4C9.75863 3.76 8.73863 3.44 7.47863 3.44C6.09863 3.44 4.97863 3.83 4.11863 4.61C3.35863 5.29 2.90863 6.18 2.76863 7.28ZM24.9269 2H27.2969V17.12H30.5969V19.04H27.2969V23H25.1069V19.04H15.6869V16.91L24.9269 2ZM18.1169 17.12H25.1069V5.57L18.1169 17.12ZM39.8852 0.95L32.8352 25.7H30.7052L37.7552 0.95H39.8852ZM54.0731 4.01L45.0731 23H42.5531L51.7031 4.01H40.7531V2H54.0731V4.01Z" fill="black"/>
</svg>
