<svg width="77" height="29" viewBox="0 0 77 29" fill="none" xmlns="http://www.w3.org/2000/svg">
  <path d="M71.2857 2H50.7143C49.1993 2.00175 47.7469 2.59495 46.6756 3.64946C45.6044 4.70397 45.0018 6.1337 45 7.625V17.7676C45 17.7863 45 17.8038 45.0011 17.8225C45 17.8401 45 17.8577 45 17.8763V18.875C45.0018 20.3663 45.6044 21.796 46.6756 22.8505C47.7469 23.9051 49.1993 24.4982 50.7143 24.5H55.2866L54.6005 25.4009C54.346 25.7351 54.191 26.1325 54.153 26.5485C54.1149 26.9645 54.1953 27.3828 54.385 27.7564C54.5748 28.13 54.8665 28.4442 55.2274 28.6638C55.5883 28.8835 56.0043 28.9999 56.4286 29H65.5714C65.9958 29 66.4118 28.8836 66.7727 28.6639C67.1336 28.4443 67.4253 28.13 67.615 27.7563C67.8047 27.3826 67.8849 26.9643 67.8466 26.5483C67.8084 26.1323 67.6532 25.735 67.3984 25.4009L66.713 24.5H71.2857C72.8007 24.4982 74.2531 23.9051 75.3244 22.8505C76.3956 21.796 76.9982 20.3663 77 18.875V7.625C76.9982 6.1337 76.3956 4.70398 75.3244 3.64947C74.2531 2.59496 72.8007 2.00176 71.2857 2V2ZM65.5714 26.75H56.4286L58.1429 24.5H63.8572L65.5714 26.75ZM74.7143 18.875C74.7133 19.7698 74.3518 20.6277 73.709 21.2604C73.0662 21.8931 72.1947 22.249 71.2857 22.25H50.7143C49.8053 22.249 48.9338 21.8931 48.291 21.2604C47.6483 20.6277 47.2867 19.7698 47.2857 18.875V17.8763C47.2857 17.8577 47.2857 17.8401 47.2846 17.8225C47.2857 17.8038 47.2857 17.7863 47.2857 17.7676V7.625C47.2867 6.73019 47.6483 5.87232 48.291 5.23959C48.9338 4.60687 49.8053 4.25098 50.7143 4.25H71.2857C72.1947 4.25098 73.0662 4.60687 73.709 5.23959C74.3518 5.87232 74.7133 6.73019 74.7143 7.625V18.875Z" fill="black"/>
  <path d="M3.47719 8.04H0.317186C0.663853 5.58666 1.79719 3.66666 3.71719 2.28C5.39719 1.02667 7.43719 0.399999 9.83719 0.399999C12.5572 0.399999 14.7439 1.2 16.3972 2.8C17.8905 4.21333 18.6372 6.01333 18.6372 8.2C18.6372 10.12 18.0905 11.9067 16.9972 13.56C16.1439 14.92 14.5972 16.68 12.3572 18.84L4.79719 26.24H18.5572V29H0.797186V26.24L10.5972 16.56C12.5172 14.6667 13.8239 13.1467 14.5172 12C15.2372 10.8267 15.5972 9.57333 15.5972 8.24C15.5972 6.50666 15.0105 5.16 13.8372 4.2C12.7972 3.34667 11.4372 2.92 9.75719 2.92C7.91719 2.92 6.42385 3.44 5.27719 4.48C4.26385 5.38666 3.66385 6.57333 3.47719 8.04ZM37.5416 8.2L30.4616 17.96L38.7416 29H35.1016L28.7416 20.28L22.5416 29H19.0616L26.9816 18.16L19.5016 8.2H23.1016L28.7816 15.84L34.1416 8.2H37.5416Z" fill="black"/>
</svg>
