<svg width="63" height="23" viewBox="0 0 63 23" fill="none" xmlns="http://www.w3.org/2000/svg">
  <path d="M7.97344 22.42C5.79344 22.42 4.04344 21.87 2.72344 20.77C1.58344 19.83 0.883436 18.58 0.623436 17.02H2.99344C3.25344 18.24 3.85344 19.15 4.79344 19.75C5.63344 20.29 6.68344 20.56 7.94344 20.56C9.58344 20.56 10.8634 20.11 11.7834 19.21C12.5634 18.45 12.9534 17.46 12.9534 16.24C12.9534 14.74 12.4334 13.6 11.3934 12.82C10.5934 12.22 9.60344 11.92 8.42344 11.92H6.47344V9.97H8.33344C9.53344 9.97 10.5034 9.6 11.2434 8.86C11.9434 8.16 12.2934 7.26 12.2934 6.16C12.2934 4.9 11.8034 3.93 10.8234 3.25C10.0234 2.71 9.03344 2.44 7.85344 2.44C6.47344 2.44 5.35344 2.78 4.49344 3.46C3.75344 4.06 3.29344 4.85 3.11344 5.83H0.773436C1.05344 4.09 1.92344 2.75 3.38344 1.81C4.64344 0.969999 6.17344 0.549999 7.97344 0.549999C9.97344 0.549999 11.5934 1.07 12.8334 2.11C13.9934 3.09 14.5734 4.38 14.5734 5.98C14.5734 7.26 14.1834 8.34 13.4034 9.22C12.7234 10 11.8234 10.54 10.7034 10.84C12.1034 11.08 13.2234 11.71 14.0634 12.73C14.8434 13.69 15.2334 14.87 15.2334 16.27C15.2334 18.25 14.4834 19.81 12.9834 20.95C11.6634 21.93 9.99344 22.42 7.97344 22.42ZM23.7117 20.56C27.0917 20.56 28.7817 17.53 28.7817 11.47C28.7817 5.45 27.0917 2.44 23.7117 2.44C20.3317 2.44 18.6417 5.45 18.6417 11.47C18.6417 17.53 20.3317 20.56 23.7117 20.56ZM23.7117 22.45C21.3517 22.45 19.5217 21.44 18.2217 19.42C16.9817 17.52 16.3617 14.87 16.3617 11.47C16.3617 7.55 17.1617 4.65 18.7617 2.77C20.0217 1.29 21.6717 0.549999 23.7117 0.549999C26.0717 0.549999 27.9017 1.53 29.2017 3.49C30.4417 5.37 31.0617 8.03 31.0617 11.47C31.0617 15.35 30.2717 18.24 28.6917 20.14C27.4117 21.68 25.7517 22.45 23.7117 22.45ZM39.3 20.56C42.68 20.56 44.37 17.53 44.37 11.47C44.37 5.45 42.68 2.44 39.3 2.44C35.92 2.44 34.23 5.45 34.23 11.47C34.23 17.53 35.92 20.56 39.3 20.56ZM39.3 22.45C36.94 22.45 35.11 21.44 33.81 19.42C32.57 17.52 31.95 14.87 31.95 11.47C31.95 7.55 32.75 4.65 34.35 2.77C35.61 1.29 37.26 0.549999 39.3 0.549999C41.66 0.549999 43.49 1.53 44.79 3.49C46.03 5.37 46.65 8.03 46.65 11.47C46.65 15.35 45.86 18.24 44.28 20.14C43 21.68 41.34 22.45 39.3 22.45ZM54.8883 20.56C58.2683 20.56 59.9583 17.53 59.9583 11.47C59.9583 5.45 58.2683 2.44 54.8883 2.44C51.5083 2.44 49.8183 5.45 49.8183 11.47C49.8183 17.53 51.5083 20.56 54.8883 20.56ZM54.8883 22.45C52.5283 22.45 50.6983 21.44 49.3983 19.42C48.1583 17.52 47.5383 14.87 47.5383 11.47C47.5383 7.55 48.3383 4.65 49.9383 2.77C51.1983 1.29 52.8483 0.549999 54.8883 0.549999C57.2483 0.549999 59.0783 1.53 60.3783 3.49C61.6183 5.37 62.2383 8.03 62.2383 11.47C62.2383 15.35 61.4483 18.24 59.8683 20.14C58.5883 21.68 56.9283 22.45 54.8883 22.45Z" fill="black"/>
</svg>
