<svg width="32" height="32" viewBox="0 0 32 32" fill="none" xmlns="http://www.w3.org/2000/svg">
  <path d="M16.7113 2.29297C16.6185 2.20009 16.5083 2.12641 16.387 2.07614C16.2656 2.02587 16.1356 2 16.0043 2C15.873 2 15.7429 2.02587 15.6216 2.07614C15.5003 2.12641 15.3901 2.20009 15.2973 2.29297L11.3007 6.28907C11.2078 6.38192 11.1342 6.49214 11.0839 6.61346C11.0337 6.73477 11.0078 6.86479 11.0078 6.9961C11.0078 7.12741 11.0337 7.25743 11.0839 7.37874C11.1342 7.50006 11.2078 7.61028 11.3007 7.70313C11.3935 7.79598 11.5038 7.86963 11.6251 7.91988C11.7464 7.97013 11.8764 7.99599 12.0077 7.99599C12.139 7.99599 12.269 7.97013 12.3904 7.91988C12.5117 7.86963 12.6219 7.79598 12.7147 7.70313L16.0043 4.41407L19.3007 7.70996C19.4882 7.89747 19.7425 8.00282 20.0077 8.00282C20.2729 8.00282 20.5272 7.89747 20.7147 7.70996C20.9023 7.52244 21.0076 7.26811 21.0076 7.00293C21.0076 6.73774 20.9023 6.48341 20.7147 6.2959L16.7113 2.29297Z" fill="black"/>
  <path d="M19.3007 24.2889L16.0043 27.5858L12.7147 24.2958C12.6219 24.2029 12.5117 24.1293 12.3903 24.079C12.269 24.0288 12.139 24.0029 12.0077 24.0029C11.8764 24.0029 11.7464 24.0288 11.6251 24.079C11.5037 24.1293 11.3935 24.2029 11.3007 24.2958C11.2078 24.3886 11.1342 24.4989 11.0839 24.6202C11.0337 24.7415 11.0078 24.8715 11.0078 25.0028C11.0078 25.1341 11.0337 25.2641 11.0839 25.3855C11.1342 25.5068 11.2078 25.617 11.3007 25.7098L15.2973 29.7069C15.3901 29.7998 15.5003 29.8735 15.6216 29.9237C15.7429 29.974 15.873 29.9999 16.0043 29.9999C16.1356 29.9999 16.2656 29.974 16.387 29.9237C16.5083 29.8735 16.6185 29.7998 16.7113 29.7069L20.7147 25.703C20.9023 25.5155 21.0076 25.2612 21.0076 24.996C21.0076 24.7308 20.9023 24.4765 20.7147 24.289C20.5272 24.1014 20.2729 23.9961 20.0077 23.9961C19.7425 23.9961 19.4882 24.1014 19.3007 24.289V24.2889Z" fill="black"/>
  <path d="M7.71048 11.2891C7.61765 11.1962 7.50742 11.1225 7.38611 11.0722C7.26479 11.022 7.13476 10.9961 7.00344 10.9961C6.87213 10.9961 6.7421 11.022 6.62078 11.0722C6.49946 11.1225 6.38924 11.1962 6.29641 11.2891L2.29297 15.293C2.20009 15.3858 2.12641 15.496 2.07614 15.6173C2.02587 15.7386 2 15.8687 2 16C2 16.1313 2.02587 16.2613 2.07614 16.3827C2.12641 16.504 2.20009 16.6142 2.29297 16.707L6.28955 20.7031C6.47707 20.8906 6.73139 20.996 6.99658 20.996C7.26177 20.996 7.51609 20.8906 7.70361 20.7031C7.89113 20.5156 7.99647 20.2613 7.99647 19.9961C7.99647 19.7309 7.89113 19.4766 7.70361 19.2891L4.41409 16L7.71048 12.7031C7.80336 12.6103 7.87704 12.5001 7.9273 12.3788C7.97757 12.2574 8.00344 12.1274 8.00344 11.9961C8.00344 11.8648 7.97757 11.7347 7.9273 11.6134C7.87704 11.4921 7.80336 11.3819 7.71048 11.2891Z" fill="black"/>
  <path d="M29.7103 15.2929L25.7069 11.289C25.5194 11.1014 25.2651 10.9961 24.9999 10.9961C24.7347 10.9961 24.4804 11.1014 24.2929 11.289C24.1053 11.4765 24 11.7308 24 11.996C24 12.2612 24.1053 12.5155 24.2929 12.703L27.5893 15.9999L24.2997 19.289C24.1122 19.4765 24.0068 19.7308 24.0068 19.996C24.0068 20.2612 24.1122 20.5155 24.2997 20.703C24.4872 20.8905 24.7416 20.9959 25.0067 20.9959C25.2719 20.9959 25.5263 20.8905 25.7138 20.703L29.7104 16.7069C29.8032 16.6141 29.8769 16.5039 29.9272 16.3825C29.9774 16.2612 30.0033 16.1312 30.0033 15.9999C30.0033 15.8686 29.9774 15.7385 29.9272 15.6172C29.8769 15.4959 29.8032 15.3857 29.7104 15.2929H29.7103Z" fill="black"/>
  <path d="M16 18C17.1046 18 18 17.1046 18 16C18 14.8954 17.1046 14 16 14C14.8954 14 14 14.8954 14 16C14 17.1046 14.8954 18 16 18Z" fill="black"/>
</svg>
