<svg width="68" height="23" viewBox="0 0 68 23" fill="none" xmlns="http://www.w3.org/2000/svg">
  <path d="M9.71246 0.999999H12.0825V16.12H15.3825V18.04H12.0825V22H9.89246V18.04H0.47246V15.91L9.71246 0.999999ZM2.90246 16.12H9.89246V4.57L2.90246 16.12ZM28.6907 6.4L23.3807 13.72L29.5907 22H26.8607L22.0907 15.46L17.4407 22H14.8307L20.7707 13.87L15.1607 6.4H17.8607L22.1207 12.13L26.1407 6.4H28.6907ZM43.0408 22.45C40.9808 22.45 39.2708 21.86 37.9108 20.68C36.7708 19.7 36.0708 18.48 35.8108 17.02H38.1508C38.4108 18.18 39.0208 19.08 39.9808 19.72C40.8408 20.28 41.8708 20.56 43.0708 20.56C44.6508 20.56 45.9108 20.02 46.8508 18.94C47.7108 17.96 48.1408 16.7 48.1408 15.16C48.1408 13.44 47.6208 12.12 46.5808 11.2C45.7208 10.42 44.5908 10.03 43.1908 10.03C42.2708 10.03 41.4008 10.23 40.5808 10.63C39.7608 11.01 39.0708 11.54 38.5108 12.22H36.5608L37.0108 0.999999H49.4608V2.89H39.0508L38.7808 10C40.1008 8.82 41.7308 8.23 43.6708 8.23C45.7708 8.23 47.4508 8.91 48.7108 10.27C49.8708 11.53 50.4508 13.19 50.4508 15.25C50.4508 17.47 49.6908 19.26 48.1708 20.62C46.8108 21.84 45.1008 22.45 43.0408 22.45ZM67.9291 22H64.7791L54.4891 11.59V22H52.1491V0.399999H54.4891V10.24L64.1191 0.399999H66.9991L56.7091 10.75L67.9291 22Z" fill="black"/>
</svg>
