<svg width="49" height="24" viewBox="0 0 49 24" fill="none" xmlns="http://www.w3.org/2000/svg">
  <path d="M7.53594 23.45C5.47594 23.45 3.76594 22.86 2.40594 21.68C1.26594 20.7 0.565936 19.48 0.305936 18.02H2.64594C2.90594 19.18 3.51594 20.08 4.47594 20.72C5.33594 21.28 6.36594 21.56 7.56594 21.56C9.14594 21.56 10.4059 21.02 11.3459 19.94C12.2059 18.96 12.6359 17.7 12.6359 16.16C12.6359 14.44 12.1159 13.12 11.0759 12.2C10.2159 11.42 9.08594 11.03 7.68594 11.03C6.76594 11.03 5.89594 11.23 5.07594 11.63C4.25594 12.01 3.56594 12.54 3.00594 13.22H1.05594L1.50594 2H13.9559V3.89H3.54594L3.27594 11C4.59594 9.82 6.22594 9.23 8.16594 9.23C10.2659 9.23 11.9459 9.91 13.2059 11.27C14.3659 12.53 14.9459 14.19 14.9459 16.25C14.9459 18.47 14.1859 20.26 12.6659 21.62C11.3059 22.84 9.59594 23.45 7.53594 23.45ZM20.0642 23H17.2442V20.09H20.0642V23ZM23.034 19.13H25.464C25.684 19.91 26.134 20.52 26.814 20.96C27.494 21.4 28.314 21.62 29.274 21.62C30.974 21.62 32.264 20.87 33.144 19.37C34.024 17.89 34.514 15.63 34.614 12.59C34.034 13.65 33.204 14.46 32.124 15.02C31.224 15.48 30.274 15.71 29.274 15.71C27.194 15.71 25.544 15.02 24.324 13.64C23.224 12.38 22.674 10.73 22.674 8.69C22.674 6.41 23.414 4.6 24.894 3.26C26.154 2.12 27.694 1.55 29.514 1.55C32.154 1.55 34.084 2.57 35.304 4.61C36.324 6.29 36.834 8.63 36.834 11.63C36.834 19.51 34.284 23.45 29.184 23.45C27.564 23.45 26.174 23.01 25.014 22.13C24.014 21.35 23.354 20.35 23.034 19.13ZM29.634 13.82C31.134 13.82 32.324 13.29 33.204 12.23C33.964 11.33 34.344 10.21 34.344 8.87C34.344 7.25 33.884 5.93 32.964 4.91C32.104 3.93 30.964 3.44 29.544 3.44C28.124 3.44 26.974 3.96 26.094 5C25.314 5.92 24.924 7.1 24.924 8.54C24.924 10.34 25.434 11.72 26.454 12.68C27.294 13.44 28.354 13.82 29.634 13.82ZM45.6423 11.6L43.2423 7.61L40.8423 11.63L39.1623 10.37L42.2523 6.83L37.6623 5.78L38.3523 3.8L42.6123 5.63L42.2223 0.95H44.2923L43.8723 5.63L48.1923 3.8L48.8823 5.78L44.2623 6.83L47.3223 10.37L45.6423 11.6Z" fill="black"/>
</svg>
