<svg width="137" height="32" viewBox="0 0 137 32" fill="none" xmlns="http://www.w3.org/2000/svg">
  <path d="M10.6598 31.63C7.77577 31.63 5.38177 30.804 3.47777 29.152C1.88177 27.78 0.901768 26.072 0.537768 24.028H3.81377C4.17777 25.652 5.03177 26.912 6.37577 27.808C7.57977 28.592 9.02177 28.984 10.7018 28.984C12.9138 28.984 14.6778 28.228 15.9938 26.716C17.1978 25.344 17.7998 23.58 17.7998 21.424C17.7998 19.016 17.0718 17.168 15.6158 15.88C14.4118 14.788 12.8298 14.242 10.8698 14.242C9.58177 14.242 8.36377 14.522 7.21577 15.082C6.06777 15.614 5.10177 16.356 4.31777 17.308H1.58777L2.21777 1.6H19.6478V4.246H5.07377L4.69577 14.2C6.54377 12.548 8.82577 11.722 11.5418 11.722C14.4818 11.722 16.8338 12.674 18.5978 14.578C20.2218 16.342 21.0338 18.666 21.0338 21.55C21.0338 24.658 19.9698 27.164 17.8418 29.068C15.9378 30.776 13.5438 31.63 10.6598 31.63ZM42.0594 6.976H38.6574C38.3214 5.884 37.7054 5.044 36.8094 4.456C35.9134 3.84 34.8214 3.532 33.5334 3.532C28.8014 3.532 26.2954 7.746 26.0154 16.174C26.8554 14.69 28.0174 13.556 29.5014 12.772C30.7614 12.128 32.1054 11.806 33.5334 11.806C36.5014 11.806 38.8394 12.828 40.5474 14.872C42.0314 16.636 42.7734 18.89 42.7734 21.634C42.7734 24.966 41.6674 27.556 39.4554 29.404C37.6914 30.888 35.5774 31.63 33.1134 31.63C29.4454 31.63 26.7574 30.188 25.0494 27.304C23.6494 24.924 22.9494 21.662 22.9494 17.518C22.9494 11.106 24.1814 6.542 26.6454 3.826C28.3814 1.922 30.6914 0.969999 33.5754 0.969999C35.8154 0.969999 37.7334 1.586 39.3294 2.818C40.7294 3.882 41.6394 5.268 42.0594 6.976ZM33.0294 14.452C30.9014 14.452 29.2354 15.194 28.0314 16.678C26.9674 17.91 26.4354 19.478 26.4354 21.382C26.4354 23.65 27.0654 25.498 28.3254 26.926C29.5574 28.298 31.1674 28.984 33.1554 28.984C35.0874 28.984 36.6694 28.284 37.9014 26.884C39.0494 25.568 39.6234 23.888 39.6234 21.844C39.6234 19.38 38.9374 17.49 37.5654 16.174C36.3894 15.026 34.8774 14.452 33.0294 14.452ZM54.4668 0.759999H57.7848V28.06H72.6108V31H54.4668V0.759999ZM77.0125 31H73.8625V9.16H77.0125V31ZM77.2225 4.666H73.6525V0.759999H77.2225V4.666ZM82.842 31H79.734V9.16H82.296L82.674 12.436C83.402 11.204 84.368 10.252 85.572 9.58C86.804 8.88 88.148 8.53 89.604 8.53C92.124 8.53 94.07 9.314 95.442 10.882C96.646 12.254 97.248 14.102 97.248 16.426V31H94.14V16.51C94.14 14.662 93.622 13.276 92.586 12.352C91.69 11.568 90.458 11.176 88.89 11.176C87.126 11.176 85.656 11.806 84.48 13.066C83.388 14.242 82.842 15.712 82.842 17.476V31ZM115.206 24.868H118.566C117.978 27.052 116.774 28.76 114.954 29.992C113.33 31.084 111.384 31.63 109.116 31.63C105.756 31.63 103.124 30.51 101.22 28.27C99.484 26.226 98.616 23.496 98.616 20.08C98.616 16.16 99.708 13.164 101.892 11.092C103.712 9.384 106.022 8.53 108.822 8.53C112.098 8.53 114.618 9.636 116.382 11.848C118.034 13.976 118.86 16.958 118.86 20.794H101.808C101.948 23.678 102.802 25.834 104.37 27.262C105.658 28.41 107.282 28.984 109.242 28.984C110.81 28.984 112.154 28.564 113.274 27.724C114.226 26.968 114.87 26.016 115.206 24.868ZM108.864 11.05C106.848 11.05 105.224 11.736 103.992 13.108C102.816 14.368 102.116 16.09 101.892 18.274H115.668C115.528 15.782 114.744 13.892 113.316 12.604C112.14 11.568 110.656 11.05 108.864 11.05ZM133.694 25.162C133.694 23.958 133.218 23.048 132.266 22.432C131.314 21.788 129.536 21.214 126.932 20.71C124.356 20.178 122.494 19.38 121.346 18.316C120.31 17.336 119.792 16.076 119.792 14.536C119.792 12.604 120.576 11.092 122.144 10C123.6 9.02 125.56 8.53 128.024 8.53C130.544 8.53 132.602 9.16 134.198 10.42C135.598 11.512 136.452 12.954 136.76 14.746H133.568C133.344 13.542 132.686 12.604 131.594 11.932C130.614 11.316 129.396 11.008 127.94 11.008C126.204 11.008 124.902 11.372 124.034 12.1C123.334 12.66 122.984 13.374 122.984 14.242C122.984 15.306 123.376 16.118 124.16 16.678C124.972 17.238 126.442 17.728 128.57 18.148C131.622 18.764 133.764 19.59 134.996 20.626C136.256 21.662 136.886 23.104 136.886 24.952C136.886 27.024 136.004 28.676 134.24 29.908C132.672 31.056 130.614 31.63 128.066 31.63C125.266 31.63 123.04 30.944 121.388 29.572C119.988 28.396 119.19 26.87 118.994 24.994H122.186C122.606 27.738 124.58 29.11 128.108 29.11C129.984 29.11 131.426 28.676 132.434 27.808C133.274 27.08 133.694 26.198 133.694 25.162Z" fill="black"/>
</svg>
