<svg width="59" height="32" viewBox="0 0 59 32" fill="none" xmlns="http://www.w3.org/2000/svg">
  <path d="M20.5858 8.404C20.5858 11.512 18.7518 13.822 15.0838 15.334C19.4798 17.014 21.6778 19.646 21.6778 23.23C21.6778 25.862 20.5858 27.962 18.4018 29.53C16.4978 30.93 14.0758 31.63 11.1358 31.63C7.77578 31.63 5.10178 30.748 3.11378 28.984C1.43378 27.5 0.593782 25.666 0.593782 23.482C0.593782 19.618 2.69378 16.972 6.89378 15.544C3.42178 14.116 1.68578 11.82 1.68578 8.656C1.68578 5.996 2.76378 3.98 4.91978 2.608C6.59978 1.516 8.67178 0.969999 11.1358 0.969999C14.0198 0.969999 16.3298 1.642 18.0658 2.986C19.7458 4.302 20.5858 6.108 20.5858 8.404ZM18.3598 23.23C18.3598 20.99 17.3798 19.31 15.4198 18.19C14.3278 17.546 12.6758 17 10.4638 16.552C6.09578 17.672 3.91178 19.898 3.91178 23.23C3.91178 25.05 4.63978 26.492 6.09578 27.556C7.38378 28.536 9.06378 29.026 11.1358 29.026C13.5158 29.026 15.3638 28.424 16.6798 27.22C17.7998 26.184 18.3598 24.854 18.3598 23.23ZM4.75178 8.488C4.75178 10.56 5.63378 12.114 7.39778 13.15C8.40578 13.738 9.80578 14.186 11.5978 14.494C15.5178 13.29 17.4778 11.288 17.4778 8.488C17.4778 6.808 16.7638 5.492 15.3358 4.54C14.1878 3.812 12.7878 3.448 11.1358 3.448C9.20378 3.448 7.64978 3.91 6.47378 4.834C5.32578 5.73 4.75178 6.948 4.75178 8.488ZM36.1514 31H33.0434V4.876L26.3654 8.53V5.296L33.0854 1.6H36.1514V31ZM47.349 7.816C47.349 9.272 47.783 10.42 48.651 11.26C49.379 11.988 50.303 12.352 51.423 12.352C52.711 12.352 53.719 11.89 54.447 10.966C55.119 10.154 55.455 9.104 55.455 7.816C55.455 6.36 55.035 5.212 54.195 4.372C53.439 3.644 52.515 3.28 51.423 3.28C50.135 3.28 49.113 3.742 48.357 4.666C47.685 5.478 47.349 6.528 47.349 7.816ZM58.269 7.816C58.269 10.056 57.485 11.82 55.917 13.108C54.657 14.144 53.159 14.662 51.423 14.662C49.407 14.662 47.727 13.99 46.383 12.646C45.151 11.386 44.535 9.776 44.535 7.816C44.535 5.576 45.319 3.812 46.887 2.524C48.175 1.488 49.687 0.969999 51.423 0.969999C53.439 0.969999 55.105 1.642 56.421 2.986C57.653 4.246 58.269 5.856 58.269 7.816Z" fill="black"/>
</svg>
