<svg width="42" height="23" viewBox="0 0 42 23" fill="none" xmlns="http://www.w3.org/2000/svg">
  <path d="M14.9898 5.86C14.9898 8.08 13.6798 9.73 11.0598 10.81C14.1998 12.01 15.7698 13.89 15.7698 16.45C15.7698 18.33 14.9898 19.83 13.4298 20.95C12.0698 21.95 10.3398 22.45 8.23985 22.45C5.83985 22.45 3.92985 21.82 2.50985 20.56C1.30985 19.5 0.709845 18.19 0.709845 16.63C0.709845 13.87 2.20985 11.98 5.20985 10.96C2.72985 9.94 1.48985 8.3 1.48985 6.04C1.48985 4.14 2.25985 2.7 3.79985 1.72C4.99985 0.939999 6.47985 0.549999 8.23985 0.549999C10.2998 0.549999 11.9498 1.03 13.1898 1.99C14.3898 2.93 14.9898 4.22 14.9898 5.86ZM13.3998 16.45C13.3998 14.85 12.6998 13.65 11.2998 12.85C10.5198 12.39 9.33985 12 7.75985 11.68C4.63985 12.48 3.07985 14.07 3.07985 16.45C3.07985 17.75 3.59985 18.78 4.63985 19.54C5.55985 20.24 6.75985 20.59 8.23985 20.59C9.93985 20.59 11.2598 20.16 12.1998 19.3C12.9998 18.56 13.3998 17.61 13.3998 16.45ZM3.67985 5.92C3.67985 7.4 4.30985 8.51 5.56985 9.25C6.28985 9.67 7.28985 9.99 8.56985 10.21C11.3698 9.35 12.7698 7.92 12.7698 5.92C12.7698 4.72 12.2598 3.78 11.2398 3.1C10.4198 2.58 9.41985 2.32 8.23985 2.32C6.85985 2.32 5.74985 2.65 4.90985 3.31C4.08985 3.95 3.67985 4.82 3.67985 5.92ZM23.6781 22.42C21.4981 22.42 19.7481 21.87 18.4281 20.77C17.2881 19.83 16.5881 18.58 16.3281 17.02H18.6981C18.9581 18.24 19.5581 19.15 20.4981 19.75C21.3381 20.29 22.3881 20.56 23.6481 20.56C25.2881 20.56 26.5681 20.11 27.4881 19.21C28.2681 18.45 28.6581 17.46 28.6581 16.24C28.6581 14.74 28.1381 13.6 27.0981 12.82C26.2981 12.22 25.3081 11.92 24.1281 11.92H22.1781V9.97H24.0381C25.2381 9.97 26.2081 9.6 26.9481 8.86C27.6481 8.16 27.9981 7.26 27.9981 6.16C27.9981 4.9 27.5081 3.93 26.5281 3.25C25.7281 2.71 24.7381 2.44 23.5581 2.44C22.1781 2.44 21.0581 2.78 20.1981 3.46C19.4581 4.06 18.9981 4.85 18.8181 5.83H16.4781C16.7581 4.09 17.6281 2.75 19.0881 1.81C20.3481 0.969999 21.8781 0.549999 23.6781 0.549999C25.6781 0.549999 27.2981 1.07 28.5381 2.11C29.6981 3.09 30.2781 4.38 30.2781 5.98C30.2781 7.26 29.8881 8.34 29.1081 9.22C28.4281 10 27.5281 10.54 26.4081 10.84C27.8081 11.08 28.9281 11.71 29.7681 12.73C30.5481 13.69 30.9381 14.87 30.9381 16.27C30.9381 18.25 30.1881 19.81 28.6881 20.95C27.3681 21.93 25.6981 22.42 23.6781 22.42ZM34.1064 5.44C34.1064 6.48 34.4164 7.3 35.0364 7.9C35.5564 8.42 36.2164 8.68 37.0164 8.68C37.9364 8.68 38.6564 8.35 39.1764 7.69C39.6564 7.11 39.8964 6.36 39.8964 5.44C39.8964 4.4 39.5964 3.58 38.9964 2.98C38.4564 2.46 37.7964 2.2 37.0164 2.2C36.0964 2.2 35.3664 2.53 34.8264 3.19C34.3464 3.77 34.1064 4.52 34.1064 5.44ZM41.9064 5.44C41.9064 7.04 41.3464 8.3 40.2264 9.22C39.3264 9.96 38.2564 10.33 37.0164 10.33C35.5764 10.33 34.3764 9.85 33.4164 8.89C32.5364 7.99 32.0964 6.84 32.0964 5.44C32.0964 3.84 32.6564 2.58 33.7764 1.66C34.6964 0.919999 35.7764 0.549999 37.0164 0.549999C38.4564 0.549999 39.6464 1.03 40.5864 1.99C41.4664 2.89 41.9064 4.04 41.9064 5.44Z" fill="black"/>
</svg>
