<svg width="40" height="40" viewBox="0 0 40 40" fill="none" xmlns="http://www.w3.org/2000/svg">
  <path d="M16.0877 24.5129C14.8952 24.9979 13.8066 25.7069 12.8809 26.6015C12.6426 26.832 12.5057 27.1478 12.5002 27.4792C12.4947 27.8107 12.6211 28.1308 12.8516 28.3691C13.0821 28.6074 13.3978 28.7443 13.7293 28.7498C14.0608 28.7553 14.3809 28.6289 14.6192 28.3984C15.3161 27.7256 16.1352 27.1924 17.0325 26.8274C18.9364 26.0575 21.0649 26.0575 22.9687 26.8274C23.8657 27.1922 24.6845 27.7255 25.3808 28.3984C25.6191 28.6289 25.9392 28.7553 26.2707 28.7498C26.6022 28.7443 26.9179 28.6074 27.1484 28.3691C27.3789 28.1308 27.5054 27.8107 27.4999 27.4792C27.4944 27.1478 27.3574 26.832 27.1191 26.6015C26.1937 25.7071 25.1056 24.9981 23.9136 24.5129C21.4041 23.4956 18.5971 23.4956 16.0876 24.5129L16.0877 24.5129Z" fill="black"/>
  <path d="M11.2535 13.0263C8.58224 14.1625 6.1573 15.8072 4.11364 17.8688C3.9979 17.9851 3.90621 18.1232 3.84382 18.275C3.78143 18.4268 3.74955 18.5894 3.75 18.7536C3.75046 18.9177 3.78324 19.0802 3.84647 19.2316C3.90971 19.3831 4.00215 19.5206 4.11854 19.6364C4.23492 19.7521 4.37296 19.8438 4.52478 19.9062C4.6766 19.9686 4.83921 20.0005 5.00335 20C5.16749 19.9995 5.32993 19.9668 5.4814 19.9035C5.63287 19.8403 5.7704 19.7478 5.88614 19.6315C7.70286 17.7989 9.85825 16.3367 12.2326 15.326C14.6903 14.286 17.3318 13.7501 20.0005 13.7501C22.6692 13.7501 25.3108 14.286 27.7685 15.326C30.1426 16.3364 32.2976 17.7987 34.1137 19.6315C34.3474 19.8665 34.665 19.9991 34.9965 20C35.3279 20.0009 35.6462 19.8701 35.8813 19.6364C36.1163 19.4026 36.2489 19.0851 36.2498 18.7536C36.2507 18.4221 36.1199 18.1038 35.8862 17.8688C33.8433 15.8068 31.4187 14.162 28.7475 13.0263C25.9803 11.8541 23.0058 11.2501 20.0006 11.2501C16.9954 11.2501 14.0208 11.8541 11.2536 13.0263L11.2535 13.0263Z" fill="black"/>
  <path d="M19.9969 17.4995C17.719 17.4942 15.4609 17.9221 13.3429 18.7605C11.8906 19.3365 10.5225 20.1056 9.2755 21.0468C8.79325 21.4105 8.33115 21.8 7.89122 22.2138C7.77057 22.3259 7.67327 22.4608 7.60491 22.6106C7.53655 22.7605 7.49849 22.9223 7.49291 23.0869C7.48732 23.2515 7.51434 23.4156 7.57239 23.5697C7.63044 23.7239 7.71838 23.865 7.83116 23.985C7.94394 24.105 8.07934 24.2016 8.22956 24.2691C8.37978 24.3366 8.54186 24.3738 8.70649 24.3784C8.87112 24.3831 9.03504 24.3551 9.18884 24.2962C9.34263 24.2373 9.48327 24.1486 9.60265 24.0351C9.97795 23.6834 10.3716 23.3517 10.7818 23.0414C11.8499 22.2355 13.0217 21.5773 14.2657 21.0847C17.9495 19.6377 22.0443 19.6377 25.7281 21.0847C26.9661 21.5751 28.1329 22.2291 29.1974 23.0292C29.6129 23.3416 30.0107 23.677 30.3888 24.0339C30.6304 24.2589 30.9513 24.3792 31.2813 24.3685C31.6113 24.3579 31.9237 24.2171 32.1504 23.9769C32.377 23.7368 32.4994 23.4167 32.4909 23.0866C32.4824 22.7565 32.3437 22.4432 32.105 22.215C31.6593 21.7951 31.1906 21.4003 30.7013 21.0322C29.4585 20.0978 28.0963 19.3338 26.651 18.7604C24.533 17.9221 22.2748 17.4942 19.9969 17.4995V17.4995Z" fill="black"/>
</svg>
