<svg width="40" height="40" viewBox="0 0 40 40" fill="none" xmlns="http://www.w3.org/2000/svg">
  <path d="M27.4995 10.002C26.9499 10.0002 26.4151 10.1801 25.9784 10.5138C25.5416 10.8476 25.2275 11.3163 25.0849 11.8471C24.9422 12.378 24.9791 12.941 25.1898 13.4487C25.4004 13.9564 25.773 14.3802 26.2495 14.6541V21.2507C26.2495 21.5823 26.3812 21.9002 26.6156 22.1346C26.8501 22.369 27.168 22.5007 27.4995 22.5007C27.8311 22.5007 28.149 22.369 28.3834 22.1346C28.6178 21.9002 28.7495 21.5823 28.7495 21.2507V14.6541C29.2261 14.3802 29.5986 13.9564 29.8093 13.4487C30.0199 12.941 30.0568 12.378 29.9142 11.8471C29.7716 11.3163 29.4574 10.8476 29.0207 10.5138C28.584 10.1801 28.0492 10.0002 27.4995 10.002Z" fill="black"/>
  <path d="M34.9995 17.8486V11.252C34.9995 10.9204 34.8678 10.6025 34.6334 10.3681C34.399 10.1336 34.081 10.002 33.7495 10.002C33.418 10.002 33.1 10.1336 32.8656 10.3681C32.6312 10.6025 32.4995 10.9204 32.4995 11.252V17.8486C32.0229 18.1238 31.6504 18.5485 31.4398 19.057C31.2292 19.5654 31.1923 20.1292 31.3347 20.6607C31.4771 21.1923 31.791 21.6621 32.2276 21.9971C32.6642 22.3321 33.1992 22.5137 33.7495 22.5137C34.2998 22.5137 34.8348 22.3321 35.2714 21.9971C35.708 21.6621 36.0219 21.1923 36.1643 20.6607C36.3068 20.1292 36.2698 19.5654 36.0592 19.057C35.8486 18.5485 35.4761 18.1238 34.9995 17.8486Z" fill="black"/>
  <path d="M23.7363 35H21.262C19.7874 35.0365 18.3496 34.537 17.2152 33.5942C16.0809 32.6514 15.3269 31.3292 15.0931 29.8728C16.8192 29.5571 18.3802 28.6468 19.5049 27.2999C20.6296 25.953 21.247 24.2547 21.2498 22.5V10C21.2498 9.01509 21.0558 8.03982 20.6789 7.12987C20.3019 6.21993 19.7495 5.39314 19.0531 4.6967C18.3566 4.00026 17.5298 3.44781 16.6199 3.0709C15.7099 2.69399 14.7347 2.5 13.7498 2.5C12.7648 2.5 11.7896 2.69399 10.8796 3.0709C9.96969 3.44781 9.14289 4.00026 8.44645 4.6967C7.75001 5.39314 7.19757 6.21993 6.82066 7.12987C6.44375 8.03982 6.24975 9.01509 6.24975 10V22.5C6.25283 24.2823 6.8901 26.0053 8.0475 27.3606C9.20489 28.716 10.8069 29.6152 12.5667 29.8973C12.8017 31.8314 13.6831 33.6295 15.0679 35H3.73633C3.40481 35 3.08687 35.1317 2.85244 35.3661C2.61802 35.6005 2.48633 35.9185 2.48633 36.25C2.48633 36.5815 2.61802 36.8995 2.85244 37.1339C3.08687 37.3683 3.40481 37.5 3.73633 37.5H23.7363C24.0678 37.5 24.3858 37.3683 24.6202 37.1339C24.8546 36.8995 24.9863 36.5815 24.9863 36.25C24.9863 35.9185 24.8546 35.6005 24.6202 35.3661C24.3858 35.1317 24.0678 35 23.7363 35V35ZM8.74975 22.5V9.99999C8.74975 8.67391 9.27654 7.40214 10.2142 6.46445C11.1519 5.52677 12.4237 4.99999 13.7498 4.99999C15.0758 4.99999 16.3476 5.52677 17.2853 6.46445C18.223 7.40214 18.7498 8.67391 18.7498 9.99999V22.5C18.7498 23.8261 18.223 25.0978 17.2853 26.0355C16.3476 26.9732 15.0758 27.5 13.7498 27.5C12.4237 27.5 11.1519 26.9732 10.2142 26.0355C9.27654 25.0978 8.74975 23.8261 8.74975 22.5Z" fill="black"/>
</svg>
