<svg width="40" height="40" viewBox="0 0 40 40" fill="none" xmlns="http://www.w3.org/2000/svg">
  <path d="M37.1337 35.3661L33.0174 31.2498H33.7504C34.0819 31.2498 34.3999 31.1181 34.6343 30.8837C34.8687 30.6493 35.0004 30.3313 35.0004 29.9998C35.0004 29.6683 34.8687 29.3504 34.6343 29.1159C34.3999 28.8815 34.0819 28.7498 33.7504 28.7498H32.3687L31.0868 17.2984C30.8768 15.4649 30.2094 13.7136 29.1459 12.2053C28.0824 10.6971 26.6569 9.48028 25.0004 8.66674V7.45389C25.0022 6.79705 24.8736 6.14637 24.6222 5.53956C24.3707 4.93274 24.0014 4.38183 23.5356 3.91874C22.5833 3.0091 21.317 2.5015 20.0001 2.5015C18.6832 2.5015 17.4169 3.0091 16.4646 3.91874C15.9988 4.38183 15.6295 4.93273 15.378 5.53955C15.1266 6.14637 14.998 6.79704 14.9998 7.45389V8.66674C14.0189 9.15998 13.1175 9.79754 12.3257 10.5581L4.63369 2.86608C4.51762 2.75002 4.37984 2.65795 4.22819 2.59514C4.07655 2.53233 3.91402 2.5 3.74988 2.5C3.58574 2.5 3.42321 2.53233 3.27157 2.59514C3.11993 2.65796 2.98214 2.75002 2.86608 2.86609C2.75002 2.98215 2.65795 3.11994 2.59514 3.27158C2.53233 3.42322 2.5 3.58575 2.5 3.74989C2.5 4.08138 2.63169 4.39929 2.86609 4.63369L35.3661 37.1337C35.6005 37.3681 35.9184 37.4998 36.2499 37.4998C36.5814 37.4998 36.8993 37.3681 37.1337 37.1337C37.3681 36.8993 37.4998 36.5814 37.4998 36.2499C37.4998 35.9184 37.3681 35.6005 37.1337 35.3661ZM17.4998 7.47739C17.4989 7.14897 17.5632 6.82364 17.6889 6.52023C17.8146 6.21682 17.9993 5.94137 18.2322 5.70983C18.7083 5.25473 19.3415 5.00075 20.0001 5.00075C20.6587 5.00075 21.2919 5.25473 21.768 5.70983C22.0009 5.94137 22.1856 6.21683 22.3113 6.52023C22.437 6.82364 22.5013 7.14898 22.5004 7.4774V7.78944C20.8559 7.40343 19.1443 7.40341 17.4998 7.78937V7.47739ZM19.9998 9.99989C22.1146 9.98389 24.1612 10.748 25.7481 12.146C27.335 13.5441 28.3509 15.478 28.6015 17.578L29.7684 28.0008L14.0889 12.3214C15.6948 10.828 17.8069 9.99849 19.9998 9.9999V9.99989Z" fill="black"/>
  <path d="M10.1476 28.7508L11.3977 17.5801C11.4267 17.3241 11.4686 17.0724 11.5196 16.8243L9.50782 14.8125C9.21296 15.6157 9.01351 16.4508 8.91358 17.3006L7.63221 28.7508H6.25C5.91848 28.7508 5.60054 28.8825 5.36612 29.1169C5.1317 29.3513 5 29.6693 5 30.0008C5 30.3323 5.1317 30.6503 5.36612 30.8847C5.60054 31.1191 5.91848 31.2508 6.25 31.2508H13.75C13.7471 32.8835 14.3843 34.4523 15.5249 35.6205C16.6655 36.7887 18.2186 37.4633 19.8509 37.4995C21.4831 37.5357 23.0646 36.9306 24.2558 35.8141C25.4471 34.6976 26.1532 33.1586 26.2227 31.5274L23.4461 28.7508H10.1476ZM20 35.0008C19.0058 34.9997 18.0526 34.6043 17.3496 33.9013C16.6466 33.1982 16.2511 32.245 16.25 31.2508H23.7507C23.7494 32.2451 23.3539 33.1983 22.6507 33.9013C21.9476 34.6043 20.9943 34.9997 20 35.0008H20Z" fill="black"/>
</svg>
