<svg width="40" height="40" viewBox="0 0 40 40" fill="none" xmlns="http://www.w3.org/2000/svg">
  <path d="M31.2486 11.25H26.2499C25.9183 11.25 25.6004 11.3817 25.366 11.6161C25.1316 11.8505 24.9999 12.1685 24.9999 12.5C24.9999 12.8315 25.1316 13.1495 25.366 13.3839C25.6004 13.6183 25.9183 13.75 26.2499 13.75H28.2331L24.1161 17.8662C24 17.9823 23.908 18.1201 23.8451 18.2717C23.7823 18.4234 23.75 18.5859 23.75 18.75C23.75 18.9142 23.7823 19.0767 23.8451 19.2283C23.908 19.38 24 19.5178 24.1161 19.6338C24.3505 19.8682 24.6684 19.9999 24.9999 19.9999C25.164 19.9999 25.3265 19.9676 25.4782 19.9048C25.6298 19.8419 25.7676 19.7499 25.8837 19.6338L29.9994 15.5189L29.9999 17.5C29.9999 17.8316 30.1316 18.1495 30.366 18.3839C30.6004 18.6183 30.9183 18.75 31.2499 18.75C31.5814 18.75 31.8993 18.6183 32.1337 18.3839C32.3682 18.1495 32.4999 17.8316 32.4999 17.5L32.4986 12.5C32.4987 12.3359 32.4664 12.1733 32.4037 12.0216C32.3409 11.8699 32.2488 11.732 32.1327 11.6159C32.0166 11.4998 31.8788 11.4077 31.7271 11.345C31.5754 11.2822 31.4128 11.2499 31.2486 11.25Z" fill="black"/>
  <path d="M31.25 6.25H8.75C7.09299 6.25195 5.50441 6.91105 4.33273 8.08273C3.16105 9.25441 2.50195 10.843 2.5 12.5V27.5C2.50195 29.157 3.16105 30.7456 4.33273 31.9173C5.50441 33.0889 7.09299 33.7481 8.75 33.75H31.25C32.907 33.7481 34.4956 33.0889 35.6673 31.9173C36.8389 30.7456 37.498 29.157 37.5 27.5V12.5C37.498 10.843 36.8389 9.25442 35.6673 8.08273C34.4956 6.91105 32.907 6.25195 31.25 6.25ZM8.75 31.25C7.75577 31.2489 6.80257 30.8535 6.09955 30.1505C5.39652 29.4474 5.00109 28.4942 5 27.5V21.25H16.3147C17.3089 21.2511 18.2621 21.6465 18.9651 22.3495C19.6682 23.0526 20.0636 24.0058 20.0647 25V31.25H8.75ZM35 27.5C34.9989 28.4942 34.6035 29.4474 33.9004 30.1504C33.1974 30.8535 32.2442 31.2489 31.25 31.25H22.5647V25C22.5628 23.343 21.9036 21.7544 20.732 20.5827C19.5603 19.4111 17.9717 18.7519 16.3147 18.75H5V12.5C5.00109 11.5058 5.39652 10.5526 6.09955 9.84955C6.80257 9.14652 7.75577 8.75109 8.75 8.75H31.25C32.2442 8.75109 33.1974 9.14652 33.9004 9.84955C34.6035 10.5526 34.9989 11.5058 35 12.5V27.5Z" fill="black"/>
</svg>
