<svg width="40" height="40" viewBox="0 0 40 40" fill="none" xmlns="http://www.w3.org/2000/svg">
  <path d="M28.0269 27.5408L20.4988 19.9993L28.0232 12.4602C28.2813 12.2021 28.4797 11.8904 28.6042 11.5473C28.7288 11.2041 28.7765 10.8378 28.744 10.4741C28.709 10.1008 28.5914 9.74002 28.3997 9.41783C28.208 9.09563 27.947 8.82014 27.6356 8.61134L20.4475 4.08735C20.1663 3.89119 19.8368 3.77585 19.4947 3.75386C19.1525 3.73187 18.8109 3.80408 18.507 3.96264C18.203 4.12119 17.9483 4.36003 17.7706 4.65319C17.5929 4.94635 17.4989 5.28261 17.4989 5.62544L17.4995 16.9951L9.64307 9.12647C9.5274 9.00928 9.38971 8.91611 9.23791 8.85231C9.08611 8.78852 8.92321 8.75536 8.75855 8.75474C8.59389 8.75412 8.43074 8.78605 8.27846 8.84869C8.12619 8.91134 7.9878 9.00347 7.87125 9.11978C7.7547 9.23609 7.66229 9.37429 7.59933 9.52644C7.53638 9.67858 7.50411 9.84167 7.5044 10.0063C7.50468 10.171 7.53751 10.334 7.60099 10.4859C7.66448 10.6378 7.75737 10.7757 7.87432 10.8916L16.9911 19.9749L7.87484 29.1082C7.75789 29.2241 7.665 29.3619 7.60152 29.5139C7.53803 29.6658 7.50521 29.8288 7.50492 29.9934C7.50464 30.1581 7.5369 30.3212 7.59986 30.4733C7.66282 30.6255 7.75523 30.7637 7.87177 30.88C7.98832 30.9963 8.12671 31.0884 8.27899 31.1511C8.43126 31.2137 8.59442 31.2456 8.75907 31.245C8.92373 31.2444 9.08664 31.2112 9.23844 31.1474C9.39023 31.0837 9.52792 30.9905 9.64359 30.8733L17.4994 23.0034L17.5 34.3743C17.4992 34.719 17.5938 35.0573 17.7734 35.3516C17.953 35.646 18.2106 35.8848 18.5175 36.0418C18.7881 36.1815 19.0883 36.2543 19.3928 36.2542C19.754 36.258 20.1075 36.1487 20.4035 35.9417L27.7094 31.3421C28.005 31.1313 28.2511 30.8586 28.4306 30.5431C28.6101 30.2276 28.7187 29.8767 28.7489 29.515C28.7791 29.1532 28.7302 28.7892 28.6055 28.4483C28.4808 28.1074 28.2833 27.7977 28.0268 27.5408L28.0269 27.5408ZM26.2532 10.6951L19.9995 16.9597L19.9989 6.7583L26.2532 10.6951ZM20.0001 33.2439L19.9995 22.9717L26.3179 29.2656L20.0001 33.2439Z" fill="black"/>
</svg>
