<svg width="32" height="32" viewBox="0 0 32 32" fill="none" xmlns="http://www.w3.org/2000/svg">
  <path d="M16 12.25C16.6904 12.25 17.25 11.6904 17.25 11C17.25 10.3096 16.6904 9.75 16 9.75C15.3096 9.75 14.75 10.3096 14.75 11C14.75 11.6904 15.3096 12.25 16 12.25Z" fill="black"/>
  <path d="M16 18.25C16.6904 18.25 17.25 17.6904 17.25 17C17.25 16.3096 16.6904 15.75 16 15.75C15.3096 15.75 14.75 16.3096 14.75 17C14.75 17.6904 15.3096 18.25 16 18.25Z" fill="black"/>
  <path d="M16 24.25C16.6904 24.25 17.25 23.6904 17.25 23C17.25 22.3096 16.6904 21.75 16 21.75C15.3096 21.75 14.75 22.3096 14.75 23C14.75 23.6904 15.3096 24.25 16 24.25Z" fill="black"/>
  <path d="M10 12.25C10.6904 12.25 11.25 11.6904 11.25 11C11.25 10.3096 10.6904 9.75 10 9.75C9.30964 9.75 8.75 10.3096 8.75 11C8.75 11.6904 9.30964 12.25 10 12.25Z" fill="black"/>
  <path d="M23 4.999V3C23 2.73478 22.8946 2.48043 22.7071 2.29289C22.5196 2.10536 22.2652 2 22 2C21.7348 2 21.4804 2.10536 21.2929 2.29289C21.1054 2.48043 21 2.73478 21 3V4.999H11V3C11 2.73478 10.8946 2.48043 10.7071 2.29289C10.5196 2.10536 10.2652 2 10 2C9.73478 2 9.48043 2.10536 9.29289 2.29289C9.10536 2.48043 9 2.73478 9 3V4.999C7.6744 5.00056 6.40353 5.52784 5.46619 6.46519C4.52884 7.40253 4.00156 8.6734 4 9.999V23.999C4.00156 25.3246 4.52884 26.5955 5.46619 27.5328C6.40353 28.4702 7.6744 28.9974 9 28.999H23C24.3256 28.9974 25.5965 28.4702 26.5338 27.5328C27.4712 26.5955 27.9984 25.3246 28 23.999V9.999C27.9984 8.6734 27.4712 7.40253 26.5338 6.46519C25.5965 5.52784 24.3256 5.00056 23 4.999ZM26 23.999C25.9991 24.7944 25.6828 25.5569 25.1204 26.1194C24.5579 26.6818 23.7954 26.9981 23 26.999H9C8.20462 26.9981 7.44206 26.6818 6.87964 26.1194C6.31722 25.5569 6.00087 24.7944 6 23.999V9.999C6.00087 9.20362 6.31722 8.44106 6.87964 7.87864C7.44206 7.31622 8.20462 6.99987 9 6.999H23C23.7954 6.99987 24.5579 7.31622 25.1204 7.87864C25.6828 8.44106 25.9991 9.20362 26 9.999V23.999Z" fill="black"/>
  <path d="M10 18.25C10.6904 18.25 11.25 17.6904 11.25 17C11.25 16.3096 10.6904 15.75 10 15.75C9.30964 15.75 8.75 16.3096 8.75 17C8.75 17.6904 9.30964 18.25 10 18.25Z" fill="black"/>
  <path d="M10 24.25C10.6904 24.25 11.25 23.6904 11.25 23C11.25 22.3096 10.6904 21.75 10 21.75C9.30964 21.75 8.75 22.3096 8.75 23C8.75 23.6904 9.30964 24.25 10 24.25Z" fill="black"/>
  <path d="M22 12.25C22.6904 12.25 23.25 11.6904 23.25 11C23.25 10.3096 22.6904 9.75 22 9.75C21.3096 9.75 20.75 10.3096 20.75 11C20.75 11.6904 21.3096 12.25 22 12.25Z" fill="black"/>
  <path d="M22 18.25C22.6904 18.25 23.25 17.6904 23.25 17C23.25 16.3096 22.6904 15.75 22 15.75C21.3096 15.75 20.75 16.3096 20.75 17C20.75 17.6904 21.3096 18.25 22 18.25Z" fill="black"/>
  <path d="M22 24.25C22.6904 24.25 23.25 23.6904 23.25 23C23.25 22.3096 22.6904 21.75 22 21.75C21.3096 21.75 20.75 22.3096 20.75 23C20.75 23.6904 21.3096 24.25 22 24.25Z" fill="black"/>
</svg>
