<svg width="32" height="32" viewBox="0 0 32 32" fill="none" xmlns="http://www.w3.org/2000/svg">
  <path d="M29.707 6.29297L25.707 2.29297C25.6141 2.20009 25.5039 2.12641 25.3826 2.07614C25.2613 2.02587 25.1312 2 24.9999 2C24.8686 2 24.7386 2.02587 24.6173 2.07614C24.496 2.12641 24.3857 2.20009 24.2929 2.29297L20.2929 6.29297C20.2001 6.38582 20.1264 6.49605 20.0762 6.61736C20.0259 6.73867 20 6.8687 20 7C20 7.13131 20.0259 7.26133 20.0762 7.38265C20.1264 7.50396 20.2001 7.61419 20.2929 7.70703C20.4804 7.89455 20.7347 7.9999 20.9999 7.9999C21.1312 7.9999 21.2613 7.97403 21.3826 7.92378C21.5039 7.87353 21.6141 7.79988 21.707 7.70703L24 5.41403V24.125C24.0341 25.099 23.6879 26.0481 23.0347 26.7713C22.3814 27.4945 21.4724 27.9352 20.5 28C19.5275 27.9352 18.6185 27.4945 17.9652 26.7713C17.312 26.0481 16.9658 25.099 17 24.125V7.875C17.0281 6.37252 16.4694 4.91827 15.4423 3.82123C14.4153 2.72419 13.001 2.07085 11.5 2C9.99889 2.07084 8.58459 2.72419 7.55758 3.82123C6.53056 4.91826 5.97178 6.37252 5.99996 7.875V26.5869L3.70696 24.2939C3.61411 24.2011 3.50388 24.1274 3.38256 24.0772C3.26125 24.0269 3.13122 24.001 2.99991 24.001C2.8686 24.001 2.73858 24.0269 2.61726 24.0772C2.49595 24.1274 2.38572 24.2011 2.29287 24.2939C2.20002 24.3868 2.12636 24.497 2.07611 24.6183C2.02586 24.7396 2 24.8697 2 25.001C2 25.1323 2.02586 25.2623 2.07612 25.3836C2.12637 25.5049 2.20002 25.6152 2.29287 25.708L6.29287 29.708C6.3857 29.8009 6.49593 29.8746 6.61724 29.9248C6.73856 29.9751 6.86858 30.001 6.9999 30.001C7.13122 30.001 7.26125 29.9751 7.38256 29.9248C7.50388 29.8746 7.6141 29.8009 7.70693 29.708L11.7069 25.708C11.7998 25.6152 11.8734 25.5049 11.9237 25.3836C11.9739 25.2623 11.9998 25.1323 11.9998 25.001C11.9998 24.8697 11.9739 24.7397 11.9237 24.6183C11.8734 24.497 11.7998 24.3868 11.7069 24.2939C11.6141 24.2011 11.5039 24.1274 11.3825 24.0772C11.2612 24.0269 11.1312 24.0011 10.9999 24.0011C10.8686 24.0011 10.7386 24.0269 10.6173 24.0772C10.4959 24.1274 10.3857 24.2011 10.2929 24.2939L7.99987 26.5869V7.875C7.9657 6.90102 8.31188 5.95195 8.96513 5.22871C9.61839 4.50546 10.5274 4.0648 11.4999 4C12.4723 4.0648 13.3814 4.50546 14.0346 5.22871C14.6879 5.95195 15.034 6.90102 14.9999 7.875V24.125C14.9717 25.6275 15.5305 27.0817 16.5575 28.1788C17.5845 29.2758 18.9988 29.9292 20.4999 30C22.0009 29.9292 23.4152 29.2758 24.4423 28.1788C25.4693 27.0817 26.028 25.6275 25.9999 24.125V5.41411L28.2929 7.70711C28.3857 7.79996 28.496 7.87362 28.6173 7.92387C28.7386 7.97411 28.8686 7.99998 28.9999 7.99997C29.1312 7.99997 29.2613 7.97411 29.3826 7.92385C29.5039 7.8736 29.6141 7.79994 29.707 7.70709C29.7998 7.61424 29.8735 7.504 29.9237 7.38268C29.974 7.26137 29.9998 7.13134 29.9998 7.00003C29.9998 6.86871 29.974 6.73869 29.9237 6.61737C29.8735 6.49605 29.7998 6.38582 29.707 6.29297V6.29297Z" fill="black"/>
</svg>
