<svg width="40" height="40" viewBox="0 0 40 40" fill="none" xmlns="http://www.w3.org/2000/svg">
  <path d="M36.3115 11.6224C35.9496 11.3971 35.5357 11.2688 35.1098 11.25C34.6839 11.2312 34.2603 11.3224 33.8799 11.5149C33.842 11.5333 33.8053 11.5541 33.77 11.5772L30.0017 13.9725V12.5C29.9998 10.843 29.3407 9.25442 28.169 8.08273C26.9973 6.91105 25.4087 6.25195 23.7517 6.25H8.75171C7.0947 6.25195 5.50612 6.91105 4.33444 8.08273C3.16276 9.25442 2.50366 10.843 2.50171 12.5V27.5C2.50366 29.157 3.16276 30.7456 4.33444 31.9173C5.50612 33.0889 7.0947 33.7481 8.75171 33.75H23.7517C25.4087 33.7481 26.9973 33.0889 28.169 31.9173C29.3407 30.7456 29.9998 29.157 30.0017 27.5V26.0275L33.77 28.4229C33.8059 28.446 33.843 28.4672 33.8811 28.4864C34.2622 28.6768 34.6857 28.7667 35.1113 28.7475C35.5369 28.7282 35.9506 28.6005 36.3129 28.3764C36.6753 28.1524 36.9744 27.8394 37.1818 27.4673C37.3892 27.0951 37.4981 26.6761 37.498 26.2501V13.7501C37.4999 13.3233 37.3917 12.9033 37.1838 12.5306C36.976 12.1579 36.6756 11.8451 36.3115 11.6224ZM27.5017 27.5C27.5006 28.4943 27.1052 29.4474 26.4022 30.1505C25.6991 30.8535 24.7459 31.2489 23.7517 31.25H8.75171C7.75748 31.2489 6.80428 30.8535 6.10126 30.1505C5.39823 29.4474 5.00279 28.4943 5.00171 27.5V12.5C5.0028 11.5058 5.39824 10.5526 6.10126 9.84958C6.80429 9.14655 7.75748 8.75111 8.75171 8.75003H23.7517C24.7459 8.75111 25.6991 9.14655 26.4022 9.84957C27.1052 10.5526 27.5006 11.5058 27.5017 12.5V27.5ZM30.0017 23.0661V16.9339L34.998 13.7586L34.9993 26.2427L30.0017 23.0661Z" fill="black"/>
</svg>
