<svg width="40" height="40" viewBox="0 0 40 40" fill="none" xmlns="http://www.w3.org/2000/svg">
  <path d="M26.25 21.875C27.2855 21.875 28.125 21.0355 28.125 20C28.125 18.9645 27.2855 18.125 26.25 18.125C25.2145 18.125 24.375 18.9645 24.375 20C24.375 21.0355 25.2145 21.875 26.25 21.875Z" fill="black"/>
  <path d="M20 21.875C21.0355 21.875 21.875 21.0355 21.875 20C21.875 18.9645 21.0355 18.125 20 18.125C18.9645 18.125 18.125 18.9645 18.125 20C18.125 21.0355 18.9645 21.875 20 21.875Z" fill="black"/>
  <path d="M13.75 21.875C14.7855 21.875 15.625 21.0355 15.625 20C15.625 18.9645 14.7855 18.125 13.75 18.125C12.7145 18.125 11.875 18.9645 11.875 20C11.875 21.0355 12.7145 21.875 13.75 21.875Z" fill="black"/>
  <path d="M20.0004 3.75C17.0759 3.75033 14.2057 4.53978 11.6924 6.0351C9.17914 7.53042 7.1159 9.67621 5.72027 12.2462C4.32464 14.8162 3.64834 17.7152 3.76268 20.6374C3.87702 23.5597 4.77776 26.3969 6.36993 28.85C5.90088 30.1577 4.98431 31.2574 3.78243 31.9543C3.58955 32.0758 3.41505 32.1875 3.26368 32.2991C3.00016 32.4897 2.7917 32.7466 2.65944 33.0437C2.52718 33.3408 2.47582 33.6676 2.51055 33.991C2.54517 34.3176 2.66438 34.6295 2.85638 34.8959C3.04839 35.1623 3.30657 35.3741 3.60543 35.5103C4.8303 36.0177 6.14573 36.2702 7.47143 36.2524C9.4416 36.2601 11.3753 35.7211 13.0574 34.6954C15.2603 35.7361 17.6689 36.2682 20.1052 36.2524C22.5415 36.2366 24.943 35.6732 27.1321 34.6039C29.3213 33.5346 31.242 31.9868 32.7522 30.075C34.2624 28.1632 35.3234 25.9364 35.8567 23.5591C36.3901 21.1819 36.3822 18.7152 35.8335 16.3415C35.2848 13.9677 34.2094 11.7477 32.687 9.8457C31.1645 7.94368 29.2338 6.4083 27.0378 5.35316C24.8419 4.29803 22.4367 3.75013 20.0004 3.75ZM20.0004 33.75C17.7546 33.7497 15.5429 33.2008 13.5576 32.1509C13.3528 32.0423 13.1219 31.9927 12.8906 32.0078C12.6593 32.0229 12.4367 32.102 12.2478 32.2362C11.3268 32.8883 10.2823 33.345 9.17829 33.5785C8.07431 33.8119 6.93424 33.8171 5.82818 33.5938C7.30237 32.4639 8.39196 30.9066 8.94818 29.1345C9.01969 28.9429 9.04318 28.7366 9.0166 28.5338C8.99001 28.331 8.91416 28.1378 8.79568 27.9711C7.00847 25.4593 6.11718 22.4197 6.2649 19.3405C6.41263 16.2612 7.59079 13.3209 9.61024 10.9917C11.6297 8.66246 14.3733 7.07939 17.4005 6.49665C20.4277 5.91392 23.5629 6.36533 26.3027 7.77841C29.0426 9.19149 31.2281 11.4843 32.5084 14.2886C33.7887 17.0929 34.0895 20.2462 33.3626 23.242C32.6356 26.2379 30.923 28.9025 28.4998 30.8081C26.0765 32.7138 23.0832 33.7498 20.0004 33.75Z" fill="black"/>
</svg>
