<svg width="40" height="40" viewBox="0 0 40 40" fill="none" xmlns="http://www.w3.org/2000/svg">
  <path d="M31.25 6.25H8.75C7.09299 6.25195 5.50441 6.91105 4.33273 8.08273C3.16105 9.25441 2.50195 10.843 2.5 12.5V27.5C2.50195 29.157 3.16105 30.7456 4.33273 31.9173C5.50441 33.089 7.09299 33.7481 8.75 33.75H31.25C32.907 33.7481 34.4956 33.0889 35.6673 31.9173C36.8389 30.7456 37.498 29.157 37.5 27.5V12.5C37.498 10.843 36.8389 9.25441 35.6673 8.08273C34.4956 6.91105 32.907 6.25195 31.25 6.25V6.25ZM35 27.5C34.9989 28.4942 34.6035 29.4474 33.9004 30.1505C33.1974 30.8535 32.2442 31.2489 31.25 31.25H8.75C7.75577 31.2489 6.80257 30.8535 6.09955 30.1505C5.39652 29.4474 5.00109 28.4942 5 27.5V12.5C5.00109 11.5058 5.39652 10.5526 6.09955 9.84955C6.80257 9.14652 7.75577 8.75109 8.75 8.75H31.25C32.2442 8.75109 33.1974 9.14652 33.9004 9.84955C34.6035 10.5526 34.9989 11.5058 35 12.5V27.5Z" fill="black"/>
  <path d="M19.9995 18.2715C19.0141 18.2688 18.038 18.4616 17.1277 18.8388C16.2173 19.2159 15.3909 19.77 14.6962 20.4688C14.5801 20.5848 14.488 20.7226 14.4252 20.8743C14.3624 21.0259 14.3301 21.1884 14.3301 21.3526C14.3301 21.5167 14.3624 21.6792 14.4252 21.8309C14.488 21.9825 14.5801 22.1203 14.6962 22.2363C14.8122 22.3524 14.95 22.4445 15.1016 22.5073C15.2533 22.5701 15.4158 22.6024 15.5799 22.6024C15.7441 22.6024 15.9066 22.5701 16.0582 22.5073C16.2099 22.4445 16.3477 22.3524 16.4637 22.2363C17.4161 21.3267 18.6825 20.8191 19.9995 20.8191C21.3165 20.8191 22.5829 21.3267 23.5353 22.2363C23.7697 22.4707 24.0876 22.6024 24.4191 22.6024C24.7505 22.6024 25.0684 22.4707 25.3028 22.2363C25.5372 22.002 25.6689 21.684 25.6689 21.3526C25.6689 21.0211 25.5372 20.7032 25.3028 20.4688C24.6081 19.77 23.7817 19.2159 22.8713 18.8388C21.961 18.4616 20.9849 18.2688 19.9995 18.2715Z" fill="black"/>
  <path d="M20 26.7636C21.0355 26.7636 21.875 25.9242 21.875 24.8887C21.875 23.8531 21.0355 23.0137 20 23.0137C18.9645 23.0137 18.125 23.8531 18.125 24.8887C18.125 25.9242 18.9645 26.7636 20 26.7636Z" fill="black"/>
  <path d="M20.0001 13.2676C18.3576 13.2637 16.7305 13.5857 15.2133 14.2149C13.696 14.8442 12.3187 15.7681 11.161 16.9334C11.0449 17.0494 10.9529 17.1872 10.8901 17.3389C10.8273 17.4905 10.7949 17.653 10.7949 17.8172C10.7949 17.9813 10.8273 18.1438 10.8901 18.2955C10.9529 18.4471 11.0449 18.5849 11.161 18.701C11.2771 18.817 11.4148 18.9091 11.5665 18.9719C11.7181 19.0347 11.8807 19.067 12.0448 19.067C12.2089 19.067 12.3714 19.0347 12.5231 18.9719C12.6747 18.9091 12.8125 18.817 12.9286 18.701C13.8565 17.7711 14.9587 17.0334 16.1721 16.53C17.3854 16.0267 18.6862 15.7676 19.9998 15.7676C21.3135 15.7676 22.6142 16.0267 23.8276 16.53C25.041 17.0334 26.1432 17.7711 27.0711 18.701C27.3058 18.9337 27.6232 19.064 27.9537 19.0632C28.2843 19.0625 28.6011 18.9309 28.8348 18.6972C29.0686 18.4634 29.2002 18.1466 29.2009 17.8161C29.2016 17.4855 29.0713 17.1681 28.8386 16.9334C27.6811 15.7681 26.3039 14.8441 24.7867 14.2148C23.2695 13.5856 21.6426 13.2636 20.0001 13.2676V13.2676Z" fill="black"/>
</svg>
