<svg width="101" height="32" viewBox="0 0 101 32" fill="none" xmlns="http://www.w3.org/2000/svg">
  <path d="M0.231048 0.759999H9.38705C14.203 0.759999 17.913 2.188 20.517 5.044C22.897 7.676 24.087 11.288 24.087 15.88C24.087 20.948 22.505 24.84 19.341 27.556C16.681 29.852 13.293 31 9.17705 31H0.231048V0.759999ZM9.42905 3.448H3.50705V28.228H9.51305C13.237 28.228 16.093 27.038 18.081 24.658C19.873 22.502 20.769 19.576 20.769 15.88C20.769 11.568 19.593 8.32 17.241 6.136C15.281 4.344 12.677 3.448 9.42905 3.448ZM45.3932 0.759999H48.7112V31H45.3932V17.056H29.3912V31H26.1152V0.759999H29.3912V14.242H45.3932V0.759999ZM64.4733 31.63C59.9933 31.63 56.5213 30.062 54.0573 26.926C51.8453 24.154 50.7393 20.514 50.7393 16.006C50.7393 10.658 52.2233 6.556 55.1913 3.7C57.6553 1.32 60.8053 0.129999 64.6413 0.129999C68.2813 0.129999 71.3053 1.194 73.7133 3.322C75.7573 5.17 76.9333 7.452 77.2413 10.168H73.9233C73.5313 7.732 72.3973 5.87 70.5213 4.582C68.9253 3.462 66.9653 2.902 64.6413 2.902C61.2533 2.902 58.6073 4.162 56.7033 6.682C54.9673 8.978 54.0993 12.086 54.0993 16.006C54.0993 20.262 55.2053 23.552 57.4173 25.876C59.2653 27.836 61.6313 28.816 64.5153 28.816C67.2873 28.816 69.5553 27.962 71.3193 26.254C72.8313 24.77 73.6993 22.908 73.9233 20.668H77.2413C76.9613 23.944 75.5473 26.632 72.9993 28.732C70.6473 30.664 67.8053 31.63 64.4733 31.63ZM79.0319 0.759999H89.0279C92.8639 0.759999 95.7619 1.712 97.7219 3.616C99.4299 5.268 100.284 7.536 100.284 10.42C100.284 13.584 99.1499 15.992 96.8819 17.644C94.8939 19.072 92.2199 19.786 88.8599 19.786H82.3079V31H79.0319V0.759999ZM89.1119 3.49H82.3079V17.056H88.9439C91.7159 17.056 93.7739 16.398 95.1179 15.082C96.2659 13.962 96.8399 12.408 96.8399 10.42C96.8399 8.068 96.0839 6.29 94.5719 5.086C93.2279 4.022 91.4079 3.49 89.1119 3.49Z" fill="black"/>
</svg>
