<svg width="40" height="40" viewBox="0 0 40 40" fill="none" xmlns="http://www.w3.org/2000/svg">
  <path d="M31.25 5H8.75C7.09299 5.00195 5.50441 5.66105 4.33273 6.83273C3.16105 8.00441 2.50195 9.59299 2.5 11.25V22.5195C2.5 22.5403 2.5 22.5598 2.50125 22.5806C2.5 22.6001 2.5 22.6196 2.5 22.6404V23.75C2.50195 25.407 3.16105 26.9956 4.33273 28.1673C5.50441 29.3389 7.09299 29.9981 8.75 30H13.751L13.0005 31.001C12.7221 31.3724 12.5527 31.8139 12.511 32.2761C12.4694 32.7384 12.5573 33.2031 12.7649 33.6182C12.9724 34.0333 13.2915 34.3824 13.6862 34.6265C14.081 34.8705 14.5359 34.9999 15 35H25C25.4641 35 25.9191 34.8707 26.3139 34.6266C26.7087 34.3825 27.0277 34.0333 27.2351 33.6181C27.4426 33.2029 27.5303 32.7381 27.4885 32.2759C27.4467 31.8136 27.2769 31.3722 26.9983 31.001L26.2485 30H31.25C32.907 29.9981 34.4956 29.3389 35.6672 28.1673C36.8389 26.9956 37.498 25.407 37.5 23.75V11.25C37.498 9.593 36.8389 8.00442 35.6672 6.83274C34.4956 5.66106 32.907 5.00196 31.25 5ZM25 32.5H15L16.875 30H23.125L25 32.5ZM35 23.75C34.9989 24.7442 34.6035 25.6974 33.9004 26.4004C33.1974 27.1035 32.2442 27.4989 31.25 27.5H8.75C7.75577 27.4989 6.80257 27.1035 6.09955 26.4004C5.39652 25.6974 5.00109 24.7442 5 23.75V22.6404C5 22.6196 5 22.6001 4.99875 22.5806C5 22.5598 5 22.5403 5 22.5195V11.25C5.00109 10.2558 5.39652 9.30257 6.09955 8.59955C6.80257 7.89652 7.75577 7.50109 8.75 7.5H31.25C32.2442 7.50109 33.1974 7.89652 33.9004 8.59955C34.6035 9.30257 34.9989 10.2558 35 11.25V23.75Z" fill="black"/>
</svg>
