<svg width="32" height="32" viewBox="0 0 32 32" fill="none" xmlns="http://www.w3.org/2000/svg">
  <path d="M23 2H9C7.6744 2.00156 6.40353 2.52884 5.46619 3.46619C4.52884 4.40353 4.00156 5.6744 4 7V25C4.00156 26.3256 4.52884 27.5965 5.46618 28.5338C6.40353 29.4712 7.67439 29.9984 9 30H23C24.3256 29.9984 25.5965 29.4712 26.5338 28.5338C27.4712 27.5965 27.9984 26.3256 28 25V7C27.9984 5.6744 27.4712 4.40353 26.5338 3.46619C25.5965 2.52884 24.3256 2.00156 23 2ZM26 25C25.9991 25.7954 25.6828 26.5579 25.1204 27.1204C24.5579 27.6828 23.7954 27.9991 23 28H9C8.20461 27.9991 7.44205 27.6828 6.87963 27.1204C6.31721 26.5579 6.00086 25.7954 6 25V7C6.00087 6.20462 6.31721 5.44206 6.87964 4.87964C7.44206 4.31721 8.20462 4.00087 9 4H23C23.7954 4.00087 24.5579 4.31722 25.1204 4.87964C25.6828 5.44206 25.9991 6.20462 26 7V25Z" fill="black"/>
  <path d="M20 15.0027V14.0001C20.0011 13.4742 19.8985 12.9531 19.6979 12.4669C19.4974 11.9806 19.2029 11.5387 18.8314 11.1664C18.4598 10.7941 18.0185 10.4988 17.5326 10.2973C17.0468 10.0958 16.526 9.99212 16 9.99219C15.474 9.99225 14.9532 10.0961 14.4674 10.2977C13.9816 10.4993 13.5404 10.7947 13.1689 11.1671C12.7974 11.5395 12.5031 11.9815 12.3027 12.4678C12.1023 12.9541 11.9998 13.4752 12.001 14.0011V15.0001H11.9951C11.7336 15.0004 11.4747 15.0526 11.2334 15.1536C10.9922 15.2547 10.7735 15.4027 10.5899 15.589C10.402 15.7767 10.2532 15.9998 10.1519 16.2454C10.0507 16.4909 9.99906 16.7541 10 17.0197V22.006C10.0028 22.5367 10.2158 23.0447 10.5923 23.4188C10.9687 23.7929 11.4781 24.0026 12.0088 24.0021H12.0127L20.002 24.0011H20.0059C20.5374 23.9965 21.0455 23.7817 21.4192 23.4037C21.7928 23.0256 22.0016 22.5151 22 21.9835V16.9952C21.9963 16.4666 21.7842 15.9608 21.4097 15.5877C21.0352 15.2146 20.5286 15.0044 20 15.0027ZM14.001 14.0001C14.0027 13.4709 14.2141 12.964 14.5889 12.5903C14.9637 12.2167 15.4713 12.0069 16.0005 12.0069C16.5297 12.0069 17.0373 12.2167 17.4121 12.5903C17.7869 12.964 17.9983 13.4709 18 14.0001V15.0016L14.001 15.0006V14.0001ZM19.9893 22.0011L12 22.0041L11.9971 17.0001L20 16.9991L19.9893 22.0011Z" fill="black"/>
</svg>
