<svg width="51" height="24" viewBox="0 0 51 24" fill="none" xmlns="http://www.w3.org/2000/svg">
  <path d="M19.1984 11.54V23H17.4584L17.1284 19.91C16.4284 21.11 15.4284 22.02 14.1284 22.64C12.9684 23.18 11.6884 23.45 10.2884 23.45C7.30836 23.45 4.92836 22.36 3.14836 20.18C1.50836 18.16 0.688361 15.5 0.688361 12.2C0.688361 8.4 1.75836 5.48 3.89836 3.44C5.61836 1.78 7.79836 0.95 10.4384 0.95C12.9384 0.95 15.0084 1.64 16.6484 3.02C18.0284 4.2 18.8784 5.69 19.1984 7.49H16.8584C16.4984 5.95 15.6984 4.78 14.4584 3.98C13.3584 3.28 12.0184 2.93 10.4384 2.93C8.15836 2.93 6.34836 3.8 5.00836 5.54C3.72836 7.18 3.08836 9.4 3.08836 12.2C3.08836 15.32 3.93836 17.73 5.63836 19.43C6.97836 20.79 8.60836 21.47 10.5284 21.47C12.4684 21.47 14.0784 20.86 15.3584 19.64C16.4984 18.56 17.0684 17.24 17.0684 15.68V13.46H10.4084V11.54H19.1984ZM34.9896 1.4H37.3596V23H34.9896V13.04H23.5596V23H21.2196V1.4H23.5596V11.03H34.9896V1.4ZM50.7483 9.56L40.9383 21.08H50.7483V23H38.3583V20.87L48.1683 9.29H38.8083V7.4H50.7483V9.56Z" fill="black"/>
</svg>
