<svg width="32" height="32" viewBox="0 0 32 32" fill="none" xmlns="http://www.w3.org/2000/svg">
  <path d="M23 2H9C7.6744 2.00156 6.40353 2.52884 5.46619 3.46619C4.52884 4.40353 4.00156 5.6744 4 7V25C4.00156 26.3256 4.52884 27.5965 5.46618 28.5338C6.40353 29.4712 7.67439 29.9984 9 30H23C24.3256 29.9984 25.5965 29.4712 26.5338 28.5338C27.4712 27.5965 27.9984 26.3256 28 25V7C27.9984 5.6744 27.4712 4.40353 26.5338 3.46619C25.5965 2.52884 24.3256 2.00156 23 2ZM26 25C25.9991 25.7954 25.6828 26.5579 25.1204 27.1204C24.5579 27.6828 23.7954 27.9991 23 28H9C8.20461 27.9991 7.44205 27.6828 6.87963 27.1204C6.31721 26.5579 6.00086 25.7954 6 25V7C6.00087 6.20462 6.31721 5.44206 6.87964 4.87964C7.44206 4.31721 8.20462 4.00087 9 4H23C23.7954 4.00087 24.5579 4.31722 25.1204 4.87964C25.6828 5.44206 25.9991 6.20462 26 7V25Z" fill="black"/>
  <line x1="11" y1="17.5858" x2="17.5858" y2="11" stroke="black" stroke-width="2" stroke-linecap="round"/>
  <line x1="17" y1="17.5858" x2="20.5858" y2="14" stroke="black" stroke-width="2" stroke-linecap="round"/>
</svg>
