<svg width="40" height="40" viewBox="0 0 40 40" fill="none" xmlns="http://www.w3.org/2000/svg">
  <path d="M29.9998 17.5C31.4832 17.5 32.9332 17.0601 34.1666 16.236C35.4 15.4119 36.3613 14.2406 36.9289 12.8701C37.4966 11.4997 37.6451 9.99168 37.3557 8.53683C37.0663 7.08197 36.352 5.7456 35.3031 4.6967C34.2542 3.64781 32.9179 2.9335 31.463 2.64411C30.0082 2.35472 28.5002 2.50325 27.1297 3.07091C25.7593 3.63856 24.5879 4.59986 23.7638 5.83323C22.9397 7.0666 22.4998 8.51664 22.4998 10C22.502 11.9885 23.2929 13.8949 24.6989 15.3009C26.105 16.707 28.0114 17.4978 29.9998 17.5ZM29.9998 5C31.1053 5.00319 32.1786 5.37309 33.0513 6.05171C33.924 6.73034 34.5469 7.67935 34.8223 8.75H25.1773C25.4527 7.67934 26.0756 6.73033 26.9484 6.0517C27.8211 5.37307 28.8943 5.00318 29.9998 5ZM34.8223 11.25C34.5498 12.3222 33.9276 13.2731 33.0543 13.9522C32.1809 14.6313 31.1061 15 29.9998 15C28.8935 15 27.8187 14.6313 26.9453 13.9522C26.0719 13.2731 25.4498 12.3222 25.1772 11.25H34.8223Z" fill="black"/>
  <path d="M21.2498 3.75C21.2499 3.58582 21.2177 3.42323 21.1549 3.27153C21.0921 3.11983 21 2.982 20.8839 2.8659C20.7678 2.74981 20.63 2.65774 20.4783 2.59496C20.3266 2.53217 20.164 2.4999 19.9998 2.5C17.1033 2.50362 14.2976 3.51146 12.0608 5.35182C9.82401 7.19217 8.29455 9.75116 7.733 12.5928C6.1849 12.8469 4.78918 13.6745 3.8234 14.9108C2.85763 16.1471 2.39258 17.7016 2.52072 19.2652C2.64886 20.8288 3.36082 22.2869 4.515 23.3495C5.66918 24.412 7.18101 25.0013 8.74984 25C8.91401 25.0001 9.0766 24.9678 9.2283 24.905C9.38 24.8423 9.51784 24.7502 9.63393 24.6341C9.75002 24.518 9.84209 24.3802 9.90488 24.2285C9.96766 24.0768 9.99993 23.9142 9.99984 23.75V15C10.0029 12.3488 11.0574 9.80699 12.9321 7.93228C14.8068 6.05758 17.3486 5.00303 19.9998 5C20.164 5.0001 20.3266 4.96783 20.4783 4.90504C20.63 4.84226 20.7678 4.75019 20.8839 4.6341C21 4.518 21.0921 4.38017 21.1549 4.22847C21.2177 4.07677 21.2499 3.91418 21.2498 3.75ZM7.49984 22.2864C6.76994 22.0287 6.13774 21.5514 5.69009 20.9199C5.24244 20.2884 5.00131 19.5338 4.99984 18.7598C5.01337 17.9896 5.25932 17.2414 5.70544 16.6134C6.15156 15.9854 6.77702 15.5068 7.49984 15.2405V22.2864Z" fill="black"/>
  <path d="M36.2047 20.1732C35.9191 20.0048 35.5784 19.9568 35.2574 20.0397C34.9365 20.1226 34.6616 20.3295 34.4932 20.6151C34.036 21.3709 33.3319 21.9459 32.4998 22.2428V21.2596C32.4998 20.9281 32.3681 20.6101 32.1337 20.3757C31.8993 20.1413 31.5814 20.0096 31.2498 20.0096C30.9183 20.0096 30.6004 20.1413 30.366 20.3757C30.1315 20.6101 29.9998 20.9281 29.9998 21.2596V22.4998C29.9963 24.5781 29.3459 26.6037 28.139 28.2956C26.9321 29.9874 25.2284 31.2617 23.2645 31.9415C22.8349 31.1756 22.149 30.5857 21.3274 30.2755C20.5058 29.9654 19.6012 29.9549 18.7726 30.2458C17.944 30.5368 17.2446 31.1106 16.7973 31.8663C16.35 32.6221 16.1835 33.5113 16.3271 34.3777C16.4707 35.2441 16.9151 36.032 17.5823 36.6031C18.2495 37.1741 19.0967 37.4916 19.9749 37.4996C20.853 37.5077 21.7059 37.2059 22.3835 36.6473C23.0611 36.0887 23.52 35.309 23.6795 34.4454C25.8361 33.7752 27.7717 32.5349 29.2816 30.8555C30.7916 29.1762 31.8199 27.1202 32.258 24.9048C33.1642 24.7483 34.0258 24.3972 34.7834 23.8759C35.541 23.3545 36.1767 22.6751 36.6466 21.8846C36.8149 21.599 36.8629 21.2583 36.7801 20.9374C36.6972 20.6164 36.4902 20.3415 36.2047 20.1732ZM19.9998 34.9998C19.7526 34.9998 19.5109 34.9265 19.3054 34.7892C19.0998 34.6518 18.9396 34.4566 18.845 34.2282C18.7504 33.9998 18.7256 33.7484 18.7739 33.506C18.8221 33.2635 18.9411 33.0408 19.116 32.866C19.2908 32.6911 19.5135 32.5721 19.756 32.5239C19.9984 32.4756 20.2498 32.5004 20.4782 32.595C20.7066 32.6896 20.9018 32.8498 21.0392 33.0554C21.1765 33.2609 21.2498 33.5026 21.2498 33.7498C21.2496 34.0813 21.1178 34.3991 20.8835 34.6335C20.6491 34.8678 20.3313 34.9996 19.9998 34.9998Z" fill="black"/>
</svg>
