<svg width="32" height="32" viewBox="0 0 32 32" fill="none" xmlns="http://www.w3.org/2000/svg">
  <path d="M12.8353 7.21094C12.6808 6.85147 12.4244 6.54517 12.0976 6.32994C11.7709 6.11471 11.3882 6 10.9969 6C10.6057 6 10.223 6.11471 9.89625 6.32994C9.5695 6.54517 9.31303 6.85147 9.15855 7.21094L9.15562 7.21778L4.56968 18.1289C4.08145 19.2733 3.9024 20.5259 4.05048 21.7612C4.19856 22.9966 4.66856 24.1714 5.41343 25.168C6.0639 26.0476 6.9119 26.7622 7.88911 27.2541C8.86632 27.746 9.9454 28.0015 11.0394 28C12.1368 28.0232 13.2232 27.7772 14.2035 27.2833C15.1838 26.7894 16.0281 26.0628 16.6624 25.167C16.734 25.0621 16.8614 24.8483 16.8614 24.8483C17.5029 23.863 17.8903 22.7342 17.989 21.5627C18.0877 20.3912 17.8947 19.2134 17.4271 18.1347L12.8353 7.21094ZM15.0084 24.005C14.9452 24.0999 14.9032 24.1543 14.8431 24.2402C14.3549 24.8142 13.7432 25.2704 13.0539 25.5746C12.3645 25.8788 11.6153 26.0232 10.8622 25.997C10.1092 25.9708 9.37177 25.7746 8.70521 25.4232C8.03865 25.0719 7.46017 24.5743 7.01304 23.9678C6.4781 23.2515 6.14084 22.4073 6.03509 21.5196C5.92933 20.6319 6.0588 19.732 6.4105 18.9102L10.9974 7.99903L15.5863 18.917C15.9194 19.7465 16.041 20.6458 15.9401 21.534C15.8393 22.4222 15.5191 23.2713 15.0084 24.005Z" fill="black"/>
  <path d="M27.625 10.7041L25.0059 5.00294C24.8781 4.70474 24.6654 4.45069 24.3944 4.27238C24.1234 4.09406 23.8059 3.99935 23.4815 4.00001H23.4805C23.1667 3.99897 22.8593 4.08952 22.5962 4.26055C22.333 4.43159 22.1255 4.67567 21.999 4.9629L19.3623 10.7275C19.0518 11.4545 18.9379 12.2504 19.0322 13.0353C19.1264 13.8202 19.4255 14.5665 19.8995 15.1992C20.3163 15.7602 20.8592 16.2154 21.4843 16.528C22.1094 16.8406 22.7992 17.002 23.4981 16.999H23.4991C24.1982 17.0021 24.8881 16.8408 25.5134 16.5282C26.1387 16.2156 26.6817 15.7603 27.0987 15.1992C27.5736 14.5622 27.8722 13.8114 27.9646 13.0222C28.057 12.2331 27.9399 11.4336 27.625 10.7041ZM25.499 13.999C25.1335 14.4868 24.6023 14.8243 24.0054 14.9479C23.4085 15.0716 22.787 14.9729 22.2577 14.6705C21.7284 14.3681 21.3279 13.8827 21.1313 13.3057C20.9348 12.7287 20.9558 12.0997 21.1904 11.5371L23.4941 6.50294L25.7969 11.5146C25.969 11.9186 26.0321 12.3606 25.9798 12.7966C25.9275 13.2326 25.7618 13.6472 25.4991 13.999H25.499Z" fill="black"/>
</svg>
