<svg width="68" height="32" viewBox="0 0 68 32" fill="none" xmlns="http://www.w3.org/2000/svg">
  <path d="M28.0715 15.0714H26.1673C25.9585 12.7887 24.9846 10.6435 23.4037 8.98371L25.0146 7.37081C25.1881 7.19632 25.2853 6.96013 25.2848 6.71408C25.2844 6.46802 25.1864 6.23218 25.0123 6.05831C24.8382 5.88444 24.6022 5.78674 24.3561 5.78663C24.1101 5.78653 23.874 5.88403 23.6998 6.05776L22.0045 7.75507C20.5186 6.66507 18.7638 6.00048 16.9286 5.83272V3.92857C16.9286 3.6823 16.8308 3.44611 16.6566 3.27197C16.4825 3.09783 16.2463 3 16 3C15.7537 3 15.5176 3.09783 15.3434 3.27197C15.1693 3.44611 15.0715 3.6823 15.0715 3.92857V5.83272C13.2359 6.0005 11.4807 6.66535 9.99467 7.75579L8.3003 6.05867C8.12614 5.88566 7.89054 5.78868 7.64506 5.78892C7.39957 5.78916 7.16417 5.88662 6.99034 6.05996C6.81652 6.23331 6.71842 6.46844 6.7175 6.71393C6.71658 6.95941 6.81292 7.19527 6.98545 7.36991L8.59652 8.98352C7.0155 10.6434 6.04161 12.7886 5.83281 15.0714H3.92857C3.6823 15.0714 3.44611 15.1693 3.27197 15.3434C3.09783 15.5175 3 15.7537 3 16C3 16.2463 3.09783 16.4825 3.27197 16.6566C3.44611 16.8307 3.6823 16.9286 3.92857 16.9286H5.83281C6.04293 19.2278 7.02886 21.3871 8.62861 23.0518L6.99993 24.6156C6.82249 24.7862 6.72002 25.0202 6.71505 25.2663C6.71007 25.5124 6.80299 25.7504 6.9734 25.928C7.1438 26.1056 7.37775 26.2083 7.62383 26.2135C7.86992 26.2188 8.10801 26.1261 8.28579 25.9558L10.0362 24.2753C11.5137 25.3476 13.2533 26.0013 15.0714 26.1672V28.0714C15.0714 28.3177 15.1693 28.5539 15.3434 28.728C15.5176 28.9022 15.7537 29 16 29C16.2463 29 16.4825 28.9022 16.6566 28.728C16.8308 28.5539 16.9286 28.3177 16.9286 28.0714V26.1672C18.7558 26.0003 20.5036 25.3408 21.9856 24.2589L23.7069 25.9486C23.7939 26.0343 23.897 26.1019 24.0101 26.1477C24.1233 26.1935 24.2444 26.2165 24.3665 26.2155C24.4886 26.2144 24.6092 26.1893 24.7216 26.1415C24.834 26.0938 24.9358 26.0243 25.0213 25.9372C25.1068 25.85 25.1742 25.7468 25.2198 25.6336C25.2654 25.5203 25.2882 25.3992 25.2869 25.2771C25.2856 25.155 25.2602 25.0344 25.2122 24.9221C25.1643 24.8099 25.0946 24.7082 25.0073 24.6228L23.3881 23.0334C24.9781 21.3712 25.9578 19.2192 26.1672 16.9286H28.0714C28.3177 16.9286 28.5539 16.8307 28.728 16.6566C28.9022 16.4825 29 16.2463 29 16C29 15.7537 28.9022 15.5175 28.728 15.3434C28.5539 15.1693 28.3177 15.0714 28.0714 15.0714H28.0715ZM16 24.3571C14.3471 24.3571 12.7314 23.867 11.357 22.9487C9.98271 22.0304 8.91155 20.7252 8.27902 19.1981C7.64648 17.6711 7.48098 15.9907 7.80345 14.3696C8.12591 12.7485 8.92185 11.2594 10.0906 10.0906C11.2594 8.92184 12.7485 8.1259 14.3696 7.80344C15.9908 7.48098 17.6711 7.64647 19.1982 8.27901C20.7252 8.91154 22.0304 9.9827 22.9487 11.357C23.867 12.7313 24.3572 14.3471 24.3572 16C24.3548 18.2157 23.4735 20.34 21.9068 21.9067C20.34 23.4735 18.2157 24.3547 16 24.3571Z" fill="black"/>
  <path d="M43 16L55 5L67 16" stroke="black" stroke-width="2" stroke-linecap="round"/>
  <path d="M49 16V26H61V16" stroke="black" stroke-width="2" stroke-linecap="round"/>
</svg>
