<svg width="32" height="32" viewBox="0 0 32 32" fill="none" xmlns="http://www.w3.org/2000/svg">
  <path d="M17.9975 24.9985L9.85736 25C9.61397 24.0574 9.03513 23.2358 8.22935 22.6894C7.42357 22.143 6.44617 21.9092 5.48036 22.0319C4.51454 22.1546 3.62663 22.6253 2.98304 23.3558C2.33945 24.0863 1.98438 25.0264 1.98438 26C1.98438 26.9736 2.33945 27.9137 2.98304 28.6442C3.62663 29.3747 4.51454 29.8455 5.48036 29.9681C6.44617 30.0908 7.42357 29.857 8.22935 29.3106C9.03513 28.7642 9.61397 27.9427 9.85736 27L17.9974 26.9982C18.2626 26.9982 18.5169 26.8929 18.7045 26.7053C18.892 26.5178 18.9974 26.2634 18.9974 25.9982C18.9974 25.733 18.892 25.4786 18.7045 25.2911C18.5169 25.1036 18.2626 24.9982 17.9974 24.9982L17.9975 24.9985ZM5.99916 28C5.6036 28 5.21692 27.8827 4.88802 27.6629C4.55912 27.4432 4.30277 27.1308 4.1514 26.7654C4.00002 26.3999 3.96042 25.9978 4.03759 25.6098C4.11476 25.2219 4.30524 24.8655 4.58494 24.5858C4.86465 24.3061 5.22102 24.1156 5.60898 24.0384C5.99694 23.9613 6.39907 24.0009 6.76453 24.1523C7.12998 24.3036 7.44233 24.56 7.6621 24.8889C7.88186 25.2178 7.99916 25.6044 7.99916 26C7.99855 26.5303 7.78764 27.0386 7.4127 27.4136C7.03776 27.7885 6.5294 27.9994 5.99916 28Z" fill="black"/>
  <path d="M14 6.99851L22.14 7.00001C22.3834 7.94267 22.9622 8.7642 23.768 9.31061C24.5738 9.85702 25.5512 10.0908 26.517 9.96813C27.4828 9.84545 28.3707 9.37475 29.0143 8.64424C29.6579 7.91374 30.013 6.97358 30.013 6.00001C30.013 5.02644 29.6579 4.08628 29.0143 3.35578C28.3707 2.62527 27.4828 2.15457 26.517 2.03189C25.5512 1.90922 24.5738 2.143 23.768 2.68941C22.9622 3.23582 22.3834 4.05735 22.14 5.00001L14 4.99851C13.7348 4.99851 13.4804 5.10387 13.2929 5.2914C13.1054 5.47894 13 5.73329 13 5.99851C13 6.26373 13.1054 6.51808 13.2929 6.70562C13.4804 6.89315 13.7348 6.99851 14 6.99851ZM25.9983 4.00001C26.3939 4.00001 26.7805 4.11731 27.1094 4.33707C27.4383 4.55683 27.6947 4.86919 27.8461 5.23464C27.9974 5.60009 28.037 6.00223 27.9599 6.39019C27.8827 6.77815 27.6922 7.13452 27.4125 7.41422C27.1328 7.69393 26.7764 7.88441 26.3885 7.96158C26.0005 8.03875 25.5984 7.99914 25.2329 7.84777C24.8675 7.69639 24.5551 7.44005 24.3354 7.11115C24.1156 6.78225 23.9983 6.39557 23.9983 6.00001C23.9989 5.46976 24.2098 4.96141 24.5848 4.58647C24.9597 4.21153 25.4681 4.00062 25.9983 4.00001Z" fill="black"/>
  <path d="M27 22.1478L27.0022 14.0078C27.0022 13.7426 26.8969 13.4882 26.7093 13.3007C26.5218 13.1132 26.2674 13.0078 26.0022 13.0078C25.737 13.0078 25.4826 13.1132 25.2951 13.3007C25.1076 13.4882 25.0022 13.7426 25.0022 14.0078L25 22.1483C24.0574 22.3917 23.2358 22.9705 22.6894 23.7763C22.143 24.5821 21.9092 25.5595 22.0319 26.5253C22.1546 27.4911 22.6253 28.379 23.3558 29.0226C24.0863 29.6662 25.0264 30.0213 26 30.0213C26.9736 30.0213 27.9137 29.6662 28.6442 29.0226C29.3747 28.379 29.8455 27.4911 29.9681 26.5253C30.0908 25.5595 29.857 24.5821 29.3106 23.7763C28.7642 22.9705 27.9427 22.3917 27 22.1483V22.1478ZM26 28.006C25.6044 28.006 25.2178 27.8887 24.8889 27.669C24.56 27.4492 24.3036 27.1368 24.1523 26.7714C24.0009 26.4059 23.9613 26.0038 24.0384 25.6158C24.1156 25.2279 24.3061 24.8715 24.5858 24.5918C24.8655 24.3121 25.2219 24.1216 25.6098 24.0444C25.9978 23.9673 26.3999 24.0069 26.7654 24.1583C27.1308 24.3096 27.4432 24.566 27.6629 24.8949C27.8827 25.2238 28 25.6105 28 26.006C27.9994 26.5363 27.7885 27.0446 27.4136 27.4196C27.0386 27.7945 26.5303 28.0054 26 28.006Z" fill="black"/>
  <path d="M4.99904 9.86687L5.00124 18.0069C5.00124 18.2721 5.1066 18.5264 5.29413 18.714C5.48167 18.9015 5.73603 19.0069 6.00124 19.0069C6.26646 19.0069 6.52081 18.9015 6.70835 18.714C6.89588 18.5264 7.00124 18.2721 7.00124 18.0069L6.99904 9.86737C7.94176 9.62422 8.76344 9.04559 9.31005 8.23994C9.85666 7.4343 10.0907 6.45696 9.96825 5.49112C9.84582 4.52527 9.37534 3.63723 8.64499 2.99346C7.91465 2.34969 6.97458 1.99438 6.00101 1.99414C5.02744 1.9939 4.08719 2.34873 3.35653 2.99214C2.62586 3.63555 2.15493 4.52335 2.03202 5.48913C1.9091 6.45491 2.14264 7.43237 2.68885 8.23829C3.23506 9.0442 4.05644 9.62325 4.99904 9.86687ZM5.99904 4.00917C6.3946 4.00917 6.78128 4.12647 7.11018 4.34623C7.43908 4.566 7.69543 4.87835 7.8468 5.24381C7.99818 5.60926 8.03778 6.01139 7.96061 6.39935C7.88344 6.78732 7.69296 7.14368 7.41326 7.42339C7.13355 7.70309 6.77718 7.89357 6.38922 7.97074C6.00126 8.04791 5.59913 8.00831 5.23367 7.85693C4.86822 7.70556 4.55587 7.44921 4.3361 7.12031C4.11634 6.79142 3.99904 6.40474 3.99904 6.00917C3.99965 5.47893 4.21056 4.97057 4.5855 4.59563C4.96044 4.22069 5.4688 4.00978 5.99904 4.00917Z" fill="black"/>
</svg>
