<svg width="150" height="35" viewBox="0 0 150 35" fill="none" xmlns="http://www.w3.org/2000/svg">
  <path d="M0.633979 0.759999H3.90998V31H0.633979V0.759999ZM7.19976 0.759999H17.1958C21.0318 0.759999 23.9298 1.712 25.8898 3.616C27.5978 5.268 28.4518 7.536 28.4518 10.42C28.4518 13.584 27.3178 15.992 25.0498 17.644C23.0618 19.072 20.3878 19.786 17.0278 19.786H10.4758V31H7.19976V0.759999ZM17.2798 3.49H10.4758V17.056H17.1118C19.8838 17.056 21.9418 16.398 23.2858 15.082C24.4338 13.962 25.0078 12.408 25.0078 10.42C25.0078 8.068 24.2518 6.29 22.7398 5.086C21.3958 4.022 19.5758 3.49 17.2798 3.49ZM44.2828 9.16H47.5588L39.5788 31H35.3788L27.4828 9.16H30.8848L37.5628 28.438L44.2828 9.16ZM59.9859 1.6H63.3039V22.768H67.9239V25.456H63.3039V31H60.2379V25.456H47.0499V22.474L59.9859 1.6ZM50.4519 22.768H60.2379V6.598L50.4519 22.768ZM80.9275 0.129999L71.0575 34.78H68.0755L77.9455 0.129999H80.9275ZM82.3945 0.759999H85.6705V31H82.3945V0.759999ZM88.9603 0.759999H98.9563C102.792 0.759999 105.69 1.712 107.65 3.616C109.358 5.268 110.212 7.536 110.212 10.42C110.212 13.584 109.078 15.992 106.81 17.644C104.822 19.072 102.148 19.786 98.7883 19.786H92.2363V31H88.9603V0.759999ZM99.0403 3.49H92.2363V17.056H98.8723C101.644 17.056 103.702 16.398 105.046 15.082C106.194 13.962 106.768 12.408 106.768 10.42C106.768 8.068 106.012 6.29 104.5 5.086C103.156 4.022 101.336 3.49 99.0403 3.49ZM126.043 9.16H129.319L121.339 31H117.139L109.243 9.16H112.645L119.323 28.438L126.043 9.16ZM148.466 6.976H145.064C144.728 5.884 144.112 5.044 143.216 4.456C142.32 3.84 141.228 3.532 139.94 3.532C135.208 3.532 132.702 7.746 132.422 16.174C133.262 14.69 134.424 13.556 135.908 12.772C137.168 12.128 138.512 11.806 139.94 11.806C142.908 11.806 145.246 12.828 146.954 14.872C148.438 16.636 149.18 18.89 149.18 21.634C149.18 24.966 148.074 27.556 145.862 29.404C144.098 30.888 141.984 31.63 139.52 31.63C135.852 31.63 133.164 30.188 131.456 27.304C130.056 24.924 129.356 21.662 129.356 17.518C129.356 11.106 130.588 6.542 133.052 3.826C134.788 1.922 137.098 0.969999 139.982 0.969999C142.222 0.969999 144.14 1.586 145.736 2.818C147.136 3.882 148.046 5.268 148.466 6.976ZM139.436 14.452C137.308 14.452 135.642 15.194 134.438 16.678C133.374 17.91 132.842 19.478 132.842 21.382C132.842 23.65 133.472 25.498 134.732 26.926C135.964 28.298 137.574 28.984 139.562 28.984C141.494 28.984 143.076 28.284 144.308 26.884C145.456 25.568 146.03 23.888 146.03 21.844C146.03 19.38 145.344 17.49 143.972 16.174C142.796 15.026 141.284 14.452 139.436 14.452Z" fill="black"/>
</svg>
