<svg width="40" height="40" viewBox="0 0 40 40" fill="none" xmlns="http://www.w3.org/2000/svg">
  <path d="M14.9922 12.5117H7.49219C6.49796 12.5128 5.54476 12.9082 4.84174 13.6113C4.13871 14.3143 3.74327 15.2675 3.74219 16.2617V23.7617C3.74327 24.7559 4.13871 25.7091 4.84174 26.4122C5.54476 27.1152 6.49796 27.5106 7.49219 27.5117H14.9922C15.9864 27.5106 16.9396 27.1152 17.6426 26.4122C18.3457 25.7091 18.7411 24.7559 18.7422 23.7617V16.2617C18.7411 15.2675 18.3457 14.3143 17.6426 13.6113C16.9396 12.9082 15.9864 12.5128 14.9922 12.5117ZM16.2422 23.7617C16.242 24.0932 16.1102 24.411 15.8758 24.6454C15.6414 24.8797 15.3236 25.0115 14.9922 25.0117H7.49219C7.16074 25.0115 6.84292 24.8797 6.60855 24.6454C6.37418 24.411 6.24241 24.0932 6.24219 23.7617V16.2617C6.24241 15.9303 6.37418 15.6125 6.60855 15.3781C6.84292 15.1437 7.16073 15.0119 7.49219 15.0117H14.9922C15.3236 15.0119 15.6415 15.1437 15.8758 15.3781C16.1102 15.6125 16.242 15.9303 16.2422 16.2617V23.7617Z" fill="black"/>
  <path d="M32.4922 3.76172H24.9922C23.998 3.7628 23.0448 4.15824 22.3417 4.86127C21.6387 5.56429 21.2433 6.51749 21.2422 7.51172V32.5117C21.2433 33.5059 21.6387 34.4591 22.3417 35.1622C23.0448 35.8652 23.998 36.2606 24.9922 36.2617H32.4922C33.4864 36.2606 34.4396 35.8652 35.1426 35.1622C35.8457 34.4591 36.2411 33.5059 36.2422 32.5117V7.51172C36.2411 6.51749 35.8457 5.56429 35.1426 4.86127C34.4396 4.15824 33.4864 3.7628 32.4922 3.76172ZM33.7422 32.5117C33.742 32.8432 33.6102 33.161 33.3758 33.3954C33.1415 33.6297 32.8236 33.7615 32.4922 33.7617H24.9922C24.6607 33.7615 24.3429 33.6297 24.1086 33.3954C23.8742 33.161 23.7424 32.8432 23.7422 32.5117V7.51172C23.7424 7.18027 23.8742 6.86245 24.1086 6.62808C24.3429 6.39371 24.6607 6.26194 24.9922 6.26172H32.4922C32.8236 6.26194 33.1415 6.39371 33.3758 6.62808C33.6102 6.86245 33.742 7.18027 33.7422 7.51172V32.5117Z" fill="black"/>
  <path d="M29.6337 9.11622C29.5176 9.00012 29.3799 8.90802 29.2282 8.84518C29.0766 8.78234 28.914 8.75 28.7499 8.75C28.5857 8.75 28.4232 8.78234 28.2716 8.84518C28.1199 8.90802 27.9821 9.00012 27.8661 9.11622L25.3661 11.6162C25.1317 11.8506 25 12.1685 25 12.5C25 12.8315 25.1317 13.1494 25.3661 13.3838C25.6005 13.6182 25.9184 13.7499 26.2499 13.7499C26.5814 13.7499 26.8993 13.6182 27.1337 13.3839L28.7499 11.7676L30.3662 13.3839C30.6006 13.6182 30.9185 13.7499 31.25 13.7499C31.5814 13.7499 31.8994 13.6182 32.1337 13.3839C32.3681 13.1495 32.4998 12.8316 32.4998 12.5001C32.4998 12.1686 32.3681 11.8507 32.1337 11.6163L29.6337 9.11622Z" fill="black"/>
  <path d="M30.3679 15.3679L28.7517 16.9841L27.1354 15.3679C27.0195 15.2514 26.8816 15.159 26.7299 15.0959C26.5782 15.0327 26.4155 15.0002 26.2511 15C26.0867 14.9998 25.924 15.0321 25.7721 15.0949C25.6202 15.1577 25.4822 15.2499 25.366 15.3661C25.2498 15.4823 25.1577 15.6203 25.0949 15.7722C25.0321 15.9241 24.9998 16.0868 25 16.2512C25.0002 16.4155 25.0328 16.5783 25.0959 16.73C25.159 16.8817 25.2515 17.0195 25.3679 17.1355L27.8679 19.6355C27.984 19.7516 28.1217 19.8437 28.2734 19.9065C28.425 19.9694 28.5876 20.0017 28.7517 20.0017C28.9159 20.0017 29.0784 19.9694 29.23 19.9065C29.3817 19.8437 29.5195 19.7516 29.6355 19.6355L32.1355 17.1355C32.2516 17.0194 32.3436 16.8817 32.4064 16.73C32.4693 16.5784 32.5016 16.4158 32.5016 16.2517C32.5016 16.0876 32.4693 15.9251 32.4064 15.7734C32.3436 15.6218 32.2516 15.484 32.1355 15.3679C32.0194 15.2519 31.8817 15.1598 31.73 15.097C31.5784 15.0342 31.4159 15.0018 31.2517 15.0018C31.0876 15.0018 30.9251 15.0342 30.7734 15.097C30.6218 15.1598 30.484 15.2519 30.3679 15.3679V15.3679Z" fill="black"/>
  <path d="M30 22.5H27.5C27.1685 22.5 26.8505 22.6317 26.6161 22.8661C26.3817 23.1005 26.25 23.4185 26.25 23.75C26.25 24.0815 26.3817 24.3995 26.6161 24.6339C26.8505 24.8683 27.1685 25 27.5 25H30C30.3315 25 30.6495 24.8683 30.8839 24.6339C31.1183 24.3995 31.25 24.0815 31.25 23.75C31.25 23.4185 31.1183 23.1005 30.8839 22.8661C30.6495 22.6317 30.3315 22.5 30 22.5Z" fill="black"/>
  <path d="M30 27.5H27.5C27.1685 27.5 26.8505 27.6317 26.6161 27.8661C26.3817 28.1005 26.25 28.4185 26.25 28.75C26.25 29.0815 26.3817 29.3995 26.6161 29.6339C26.8505 29.8683 27.1685 30 27.5 30H30C30.3315 30 30.6495 29.8683 30.8839 29.6339C31.1183 29.3995 31.25 29.0815 31.25 28.75C31.25 28.4185 31.1183 28.1005 30.8839 27.8661C30.6495 27.6317 30.3315 27.5 30 27.5Z" fill="black"/>
</svg>
