<svg width="40" height="40" viewBox="0 0 40 40" fill="none" xmlns="http://www.w3.org/2000/svg">
  <path d="M31.2499 27.4999H9.9999V8.74994C10.001 7.75571 10.3964 6.80251 11.0994 6.09949C11.8025 5.39646 12.7557 5.00102 13.7499 4.99994H26.2499C27.0812 4.99962 27.8891 5.27543 28.5466 5.78406C29.2041 6.29268 29.6741 7.0053 29.8827 7.81C29.9656 8.13084 30.1725 8.40561 30.458 8.57387C30.7435 8.74213 31.0841 8.7901 31.4049 8.70722C31.7258 8.62434 32.0005 8.4174 32.1688 8.13193C32.3371 7.84646 32.385 7.50584 32.3022 7.185C31.9557 5.84352 31.1731 4.65528 30.0775 3.80717C28.9819 2.95907 27.6354 2.49924 26.2499 2.5H13.7499C12.0929 2.50195 10.5043 3.16106 9.33264 4.33274C8.16096 5.50442 7.50185 7.093 7.4999 8.75V31.25C7.50185 32.907 8.16096 34.4956 9.33264 35.6673C10.5043 36.8389 12.0929 37.4981 13.7499 37.5H26.2499C27.9069 37.4981 29.4955 36.8389 30.6672 35.6673C31.8388 34.4956 32.498 32.907 32.4999 31.25V28.75C32.5 28.5858 32.4677 28.4232 32.405 28.2715C32.3422 28.1198 32.2501 27.982 32.134 27.8659C32.0179 27.7498 31.8801 27.6577 31.7284 27.5949C31.5767 27.5321 31.4141 27.4998 31.2499 27.4999ZM29.9999 31.2499C29.9988 32.2442 29.6034 33.1974 28.9004 33.9004C28.1973 34.6034 27.2441 34.9989 26.2499 34.9999H13.7499C12.7557 34.9989 11.8025 34.6034 11.0994 33.9004C10.3964 33.1974 10.001 32.2442 9.9999 31.2499V29.9999H29.9999V31.2499Z" fill="black"/>
  <path d="M28.3838 10.8837C28.6181 10.6493 28.7498 10.3314 28.7498 9.99986C28.7498 9.66838 28.6181 9.35047 28.3837 9.11608C28.1493 8.88168 27.8314 8.75 27.5 8.75C27.1685 8.75 26.8506 8.88168 26.6162 9.11608L22.8674 12.8673C22.7513 12.9834 22.6592 13.1212 22.5964 13.2728C22.5335 13.4244 22.5012 13.587 22.5012 13.7511C22.5012 13.9153 22.5335 14.0778 22.5964 14.2295C22.6592 14.3811 22.7513 14.5189 22.8674 14.6349L26.6162 18.3837C26.8506 18.6181 27.1685 18.7497 27.5 18.7497C27.8314 18.7497 28.1494 18.6181 28.3838 18.3837C28.6181 18.1493 28.7498 17.8314 28.7498 17.4999C28.7498 17.1684 28.6181 16.8505 28.3838 16.6161L26.7688 15.0011H35C35.3315 15.0011 35.6495 14.8694 35.8839 14.635C36.1183 14.4005 36.25 14.0826 36.25 13.7511C36.25 13.4196 36.1183 13.1016 35.8839 12.8672C35.6495 12.6328 35.3315 12.5011 35 12.5011H26.7676L28.3838 10.8837Z" fill="black"/>
  <path d="M37.1337 20.3661L33.3837 16.6161C33.1494 16.3817 32.8314 16.25 32.5 16.25C32.1685 16.25 31.8506 16.3817 31.6162 16.6161C31.3818 16.8505 31.2501 17.1684 31.2501 17.4999C31.2501 17.8314 31.3818 18.1493 31.6162 18.3837L33.2324 19.9999H25.0012C24.6696 19.9999 24.3517 20.1316 24.1173 20.366C23.8829 20.6004 23.7512 20.9184 23.7512 21.2499C23.7512 21.5814 23.8829 21.8994 24.1173 22.1338C24.3517 22.3682 24.6696 22.4999 25.0012 22.4999H33.2324L31.6162 24.1162C31.499 24.232 31.4059 24.3698 31.3422 24.5217C31.2785 24.6737 31.2455 24.8367 31.2451 25.0014C31.2446 25.1661 31.2767 25.3293 31.3395 25.4816C31.4023 25.6339 31.4947 25.7723 31.6111 25.8888C31.7276 26.0052 31.866 26.0975 32.0183 26.1604C32.1706 26.2232 32.3338 26.2553 32.4985 26.2548C32.6632 26.2543 32.8263 26.2213 32.9782 26.1576C33.1301 26.0939 33.2679 26.0008 33.3837 25.8837L37.1337 22.1337C37.2498 22.0176 37.3419 21.8798 37.4048 21.7282C37.4676 21.5766 37.5 21.414 37.5 21.2499C37.5 21.0857 37.4676 20.9232 37.4048 20.7715C37.3419 20.6199 37.2498 20.4821 37.1337 20.3661Z" fill="black"/>
  <path d="M18.7499 33.75H21.2499C21.5814 33.75 21.8994 33.6183 22.1338 33.3839C22.3682 33.1495 22.4999 32.8315 22.4999 32.5C22.4999 32.1685 22.3682 31.8505 22.1338 31.6161C21.8994 31.3817 21.5814 31.25 21.2499 31.25H18.7499C18.4184 31.25 18.1004 31.3817 17.866 31.6161C17.6316 31.8505 17.4999 32.1685 17.4999 32.5C17.4999 32.8315 17.6316 33.1495 17.866 33.3839C18.1004 33.6183 18.4184 33.75 18.7499 33.75Z" fill="black"/>
</svg>
