<svg width="40" height="32" viewBox="0 0 40 32" fill="none" xmlns="http://www.w3.org/2000/svg">
  <path d="M31.2537 2H16.2537C14.5967 2.00156 13.0081 2.52884 11.8364 3.46618C10.6647 4.40353 10.0056 5.6744 10.0037 7V12H8.75C7.09299 12.0016 5.50441 12.5288 4.33273 13.4662C3.16105 14.4035 2.50195 15.6744 2.5 17V25C2.50195 26.3256 3.16105 27.5965 4.33273 28.5338C5.50441 29.4712 7.09299 29.9984 8.75 30H23.75C25.407 29.9984 26.9956 29.4712 28.1673 28.5338C29.3389 27.5965 29.9981 26.3256 30 25V20H31.2537C32.9107 19.9984 34.4992 19.4712 35.6709 18.5338C36.8426 17.5965 37.5017 16.3256 37.5037 15V7C37.5017 5.6744 36.8426 4.40353 35.6709 3.46619C34.4992 2.52884 32.9107 2.00156 31.2537 2ZM27.5 25C27.4989 25.7954 27.1035 26.5579 26.4005 27.1204C25.6974 27.6828 24.7442 27.9991 23.75 28H8.75C7.75577 27.9991 6.80257 27.6828 6.09955 27.1204C5.39652 26.5579 5.00109 25.7954 5 25V17C5.00109 16.2046 5.39652 15.4421 6.09955 14.8796C6.80257 14.3172 7.75577 14.0009 8.75 14H23.75C24.7442 14.0009 25.6974 14.3172 26.4005 14.8796C27.1035 15.4421 27.4989 16.2046 27.5 17V25ZM35.0037 15C35.0026 15.7954 34.6071 16.5579 33.9041 17.1204C33.2011 17.6828 32.2479 17.9991 31.2537 18H30V17C29.9981 15.6744 29.3389 14.4035 28.1673 13.4662C26.9956 12.5288 25.407 12.0016 23.75 12H12.5037V7C12.5047 6.20462 12.9002 5.44206 13.6032 4.87964C14.3062 4.31722 15.2594 4.00087 16.2537 4H31.2537C32.2479 4.00087 33.2011 4.31722 33.9041 4.87964C34.6071 5.44206 35.0026 6.20462 35.0037 7V15Z" fill="black"/>
  <path d="M25 6H22.5C22.1685 6 21.8505 6.10536 21.6161 6.29289C21.3817 6.48043 21.25 6.73478 21.25 7C21.25 7.26522 21.3817 7.51957 21.6161 7.70711C21.8505 7.89464 22.1685 8 22.5 8H25C25.3315 8 25.6495 7.89464 25.8839 7.70711C26.1183 7.51957 26.25 7.26522 26.25 7C26.25 6.73478 26.1183 6.48043 25.8839 6.29289C25.6495 6.10536 25.3315 6 25 6Z" fill="black"/>
  <path d="M17.5 16H15C14.6685 16 14.3505 16.1054 14.1161 16.2929C13.8817 16.4804 13.75 16.7348 13.75 17C13.75 17.2652 13.8817 17.5196 14.1161 17.7071C14.3505 17.8946 14.6685 18 15 18H17.5C17.8315 18 18.1495 17.8946 18.3839 17.7071C18.6183 17.5196 18.75 17.2652 18.75 17C18.75 16.7348 18.6183 16.4804 18.3839 16.2929C18.1495 16.1054 17.8315 16 17.5 16Z" fill="black"/>
</svg>
