<svg width="32" height="32" viewBox="0 0 32 32" fill="none" xmlns="http://www.w3.org/2000/svg">
  <path d="M25.5 2C24.8042 2.00451 24.1191 2.17237 23.5 2.49005C22.8809 2.17236 22.1958 2.00451 21.5 2C20.3065 2 19.1619 2.47411 18.318 3.31802C17.4741 4.16193 17 5.30653 17 6.5C17 7.69347 17.4741 8.83807 18.318 9.68198C19.1619 10.5259 20.3065 11 21.5 11C22.1958 10.9955 22.8809 10.8276 23.5 10.5099C24.1191 10.8276 24.8042 10.9955 25.5 11C26.6935 11 27.8381 10.5259 28.682 9.68198C29.5259 8.83807 30 7.69347 30 6.5C30 5.30653 29.5259 4.16193 28.682 3.31802C27.8381 2.47411 26.6935 2 25.5 2ZM23.5 7.98492C23.1756 7.55785 23 7.0363 23 6.5C23 5.9637 23.1756 5.44215 23.5 5.01508C23.8244 5.44215 24 5.9637 24 6.5C24 7.0363 23.8244 7.55785 23.5 7.98492ZM19 6.5C19.0006 5.83715 19.2642 5.20162 19.7329 4.73291C20.2016 4.2642 20.8371 4.00061 21.5 4C21.5831 4.00414 21.6659 4.01252 21.7482 4.02509C21.2603 4.75829 21 5.61932 21 6.5C21 7.38069 21.2603 8.24172 21.7482 8.97492C21.6659 8.98749 21.5831 8.99586 21.5 9C20.8371 8.99939 20.2016 8.7358 19.7329 8.26709C19.2642 7.79838 19.0006 7.16285 19 6.5ZM25.5 9C25.4169 8.99585 25.3341 8.98746 25.2519 8.97488C25.7397 8.24168 26 7.38065 26 6.49996C26 5.61928 25.7397 4.75825 25.2519 4.02505C25.3341 4.01248 25.4169 4.0041 25.5 3.99996C26.1631 3.99996 26.799 4.26335 27.2678 4.73219C27.7366 5.20103 28 5.83692 28 6.49996C28 7.163 27.7366 7.79889 27.2678 8.26773C26.799 8.73657 26.1631 8.99996 25.5 8.99996L25.5 9Z" fill="black"/>
  <path d="M24.2253 19.521C23.5652 18.8633 22.6711 18.4945 21.7393 18.4956C20.8074 18.4967 19.9142 18.8676 19.2556 19.5269C19.2556 19.5269 18.0994 20.7036 17.5847 21.2222C15.8107 21.1256 14.1316 20.3898 12.8582 19.1509C11.6179 17.8783 10.8819 16.1987 10.7869 14.4243C11.3064 13.9097 12.4822 12.7534 12.488 12.7476C12.814 12.4217 13.0727 12.0348 13.2491 11.6089C13.4255 11.183 13.5164 10.7266 13.5164 10.2656C13.5164 9.80467 13.4255 9.34822 13.2491 8.92236C13.0727 8.49651 12.814 8.10958 12.488 7.78369L9.7351 5.03076C9.06395 4.39045 8.17198 4.0332 7.24438 4.0332C6.31677 4.0332 5.4248 4.39045 4.75365 5.03076L3.28197 6.50244C1.27514 8.5083 0.787832 15.5161 8.64037 23.3687C13.6374 28.3667 18.2927 29.9858 21.5349 29.9858C22.9705 30.0862 24.3905 29.6365 25.5066 28.728L26.9783 27.2564C27.3055 26.9294 27.5651 26.5411 27.7422 26.1137C27.9193 25.6864 28.0105 25.2283 28.0105 24.7657C28.0105 24.3031 27.9193 23.845 27.7422 23.4176C27.5651 22.9902 27.3055 22.6019 26.9783 22.2749L24.2253 19.521ZM25.5642 25.8423L24.0925 27.314C22.8142 28.5894 16.9607 28.8608 10.0544 21.9546C3.14721 15.0474 3.41869 9.19385 4.69604 7.9165L6.16772 6.44482C6.30906 6.30334 6.4769 6.1911 6.66164 6.11453C6.84638 6.03795 7.0444 5.99853 7.24438 5.99853C7.44437 5.99853 7.64239 6.03795 7.82713 6.11453C8.01187 6.1911 8.1797 6.30334 8.32104 6.44482L11.074 9.19775C11.3562 9.47995 11.5152 9.86239 11.5163 10.2615C11.5174 10.6606 11.3605 11.0439 11.0798 11.3276C11.0798 11.3276 9.57494 12.8071 9.20971 13.1724C7.90697 14.479 9.67748 18.7984 11.4441 20.565C12.6055 21.6941 14.0351 22.5091 15.5984 22.9331C16.5085 23.1821 18.1394 23.4956 18.8376 22.7984C19.2009 22.4351 20.6755 20.9361 20.6755 20.9351C20.9592 20.6527 21.3431 20.4942 21.7434 20.4942C22.1437 20.4942 22.5276 20.6527 22.8113 20.9351L25.5642 23.689C25.7057 23.8303 25.8179 23.9982 25.8945 24.1829C25.9711 24.3676 26.0105 24.5657 26.0105 24.7657C26.0105 24.9656 25.9711 25.1637 25.8945 25.3484C25.8179 25.5331 25.7057 25.701 25.5642 25.8423V25.8423Z" fill="black"/>
</svg>
