<svg width="40" height="40" viewBox="0 0 40 40" fill="none" xmlns="http://www.w3.org/2000/svg">
  <path d="M26.2517 8.75001C24.0255 8.74784 21.8493 9.41019 20.0017 10.6522C18.3082 9.51818 16.3383 8.86552 14.3026 8.76397C12.267 8.66243 10.242 9.11583 8.44395 10.0757C6.64593 11.0356 5.14247 12.466 4.09419 14.2139C3.04591 15.9619 2.49219 17.9618 2.49219 20C2.49219 22.0382 3.04591 24.0381 4.09419 25.7861C5.14247 27.534 6.64593 28.9644 8.44395 29.9243C10.242 30.8842 12.267 31.3376 14.3026 31.236C16.3383 31.1345 18.3082 30.4818 20.0017 29.3478C21.462 30.3242 23.1306 30.9451 24.8739 31.1606C26.6173 31.3761 28.3869 31.1803 30.0409 30.5889C31.695 29.9974 33.1875 29.0268 34.399 27.7548C35.6104 26.4827 36.5071 24.9446 37.0171 23.2637C37.5272 21.5827 37.6364 19.8057 37.3361 18.0749C37.0358 16.3442 36.3343 14.7078 35.2878 13.2969C34.2413 11.8861 32.8789 10.7399 31.3098 9.95035C29.7406 9.16075 28.0083 8.74966 26.2517 8.75001ZM20.0017 26.1118C18.3995 24.481 17.5017 22.2862 17.5017 20C17.5017 17.7138 18.3995 15.519 20.0017 13.8882C21.604 15.519 22.5017 17.7138 22.5017 20C22.5017 22.2862 21.604 24.481 20.0017 26.1118ZM5.00173 20C4.99998 18.4746 5.39751 16.9753 6.1548 15.6511C6.91209 14.3269 8.00275 13.224 9.31839 12.452C10.634 11.68 12.1288 11.2657 13.6542 11.2505C15.1795 11.2352 16.6823 11.6194 18.0131 12.3649C16.0781 14.4364 15.0017 17.1653 15.0017 20C15.0017 22.8347 16.0781 25.5636 18.0131 27.6351C16.6823 28.3806 15.1795 28.7648 13.6542 28.7495C12.1288 28.7343 10.634 28.32 9.3184 27.548C8.00276 26.776 6.91209 25.6731 6.1548 24.3489C5.39752 23.0247 4.99999 21.5254 5.00173 20ZM26.2517 28.75C24.7591 28.7506 23.2915 28.3666 21.9903 27.6351C23.9254 25.5636 25.0017 22.8347 25.0017 20C25.0017 17.1653 23.9254 14.4364 21.9903 12.3649C23.1573 11.7134 24.4581 11.3379 25.7927 11.2674C27.1274 11.1969 28.4605 11.4331 29.6896 11.958C30.9188 12.4829 32.0113 13.2825 32.8833 14.2953C33.7553 15.3082 34.3837 16.5074 34.7201 17.8009C35.0565 19.0944 35.092 20.4477 34.824 21.7571C34.5559 23.0665 33.9913 24.297 33.1737 25.3542C32.356 26.4114 31.3069 27.2672 30.107 27.8559C28.9071 28.4445 27.5883 28.7504 26.2517 28.75Z" fill="black"/>
</svg>
