<svg width="32" height="32" viewBox="0 0 36 36" fill="none" xmlns="http://www.w3.org/2000/svg">
  <path d="M18 0.5C14.5388 0.5 11.1554 1.52636 8.27753 3.44928C5.39967 5.37221 3.15665 8.10533 1.83212 11.303C0.507582 14.5007 0.161024 18.0194 0.836265 21.4141C1.51151 24.8087 3.17822 27.927 5.62564 30.3744C8.07306 32.8218 11.1913 34.4885 14.5859 35.1637C17.9806 35.839 21.4993 35.4924 24.697 34.1679C27.8947 32.8434 30.6278 30.6003 32.5507 27.7225C34.4737 24.8446 35.5 21.4612 35.5 18C35.4948 13.3603 33.6494 8.91214 30.3686 5.63138C27.0879 2.35062 22.6397 0.505204 18 0.5ZM18 33C14.2407 32.9944 10.6202 31.5786 7.8545 29.0324C5.08874 26.4862 3.37899 22.9949 3.06326 19.2489L14.9822 19.2498L12.1162 22.1162C12.0002 22.2323 11.9081 22.3701 11.8453 22.5217C11.7825 22.6733 11.7501 22.8359 11.7501 23C11.7501 23.1641 11.7825 23.3267 11.8453 23.4783C11.9081 23.6299 12.0002 23.7677 12.1162 23.8838C12.2323 23.9999 12.3701 24.0919 12.5217 24.1547C12.6734 24.2175 12.8359 24.2499 13 24.2499C13.1642 24.2499 13.3267 24.2175 13.4783 24.1547C13.63 24.0919 13.7677 23.9998 13.8838 23.8838L18.8832 18.8838C19.1174 18.6493 19.2489 18.3314 19.2489 18C19.2489 17.6686 19.1174 17.3507 18.8832 17.1162L13.8838 12.1162C13.7677 12.0002 13.63 11.9081 13.4783 11.8453C13.3267 11.7825 13.1642 11.7501 13 11.7501C12.8359 11.7501 12.6734 11.7825 12.5217 11.8453C12.3701 11.9081 12.2323 12.0001 12.1162 12.1162C12.0002 12.2323 11.9081 12.3701 11.8453 12.5217C11.7825 12.6733 11.7501 12.8359 11.7501 13C11.7501 13.1641 11.7825 13.3267 11.8453 13.4783C11.9081 13.6299 12.0002 13.7677 12.1162 13.8838L14.9818 16.7498L3.06341 16.7489C3.30745 13.8468 4.39134 11.0785 6.18269 8.78227C7.97404 6.48601 10.3953 4.76112 13.1508 3.81825C15.9063 2.87538 18.8767 2.75535 21.6993 3.47281C24.5219 4.19028 27.0745 5.71419 29.0453 7.85842C31.0161 10.0027 32.3198 12.6744 32.7972 15.5474C33.2746 18.4203 32.905 21.3701 31.7336 24.0365C30.5622 26.7028 28.6397 28.9704 26.2008 30.5622C23.762 32.1539 20.9124 33.001 18 33Z" fill="black"/>
</svg>
