<svg width="28" height="28" viewBox="0 0 28 28" fill="none" xmlns="http://www.w3.org/2000/svg">
  <path d="M14 0C6.2803 0 0 6.2803 0 14C0 21.7197 6.2803 28 14 28C21.7197 28 28 21.7197 28 14C28 6.2803 21.7197 0 14 0ZM14 26C7.3828 26 2 20.6172 2 14C2 7.3828 7.3828 2 14 2C20.6172 2 26 7.3828 26 14C26 20.6172 20.6172 26 14 26Z" fill="black"/>
  <path d="M21.3715 11.0704C20.8627 10.8643 20.2768 11.1134 20.0717 11.628C19.2651 13.6456 18.2299 14.8692 17.2319 14.9854C16.1801 15.0899 15.271 14.045 14.8188 13.4014C13.6176 11.6885 12.1108 10.8438 10.5629 11.0225C9.2953 11.17 7.4877 12.0879 6.0717 15.628C5.8666 16.1407 6.1166 16.7227 6.6293 16.9278C6.7504 16.9766 6.8764 16.9991 7.0004 16.9991C7.3969 16.9991 7.7729 16.7618 7.9291 16.3702C8.7367 14.3516 9.7807 13.127 10.7934 13.0089C11.5659 12.9259 12.433 13.4825 13.1811 14.5499C14.4008 16.2901 15.9252 17.1505 17.4614 16.9718C18.7182 16.8263 20.5132 15.9093 21.9292 12.3702C22.1342 11.8575 21.8842 11.2755 21.3715 11.0704Z" fill="black"/>
</svg>
