<svg width="84" height="32" viewBox="0 0 84 32" fill="none" xmlns="http://www.w3.org/2000/svg">
  <path d="M23.081 31H19.133L11.405 19.03H3.34103V31H0.0650323V0.759999H10.103C13.967 0.759999 16.879 1.684 18.839 3.532C20.547 5.128 21.401 7.298 21.401 10.042C21.401 12.282 20.673 14.172 19.217 15.712C18.069 16.916 16.571 17.812 14.723 18.4L23.081 31ZM10.187 3.49H3.34103V16.3H10.229C12.805 16.3 14.793 15.656 16.193 14.368C17.369 13.248 17.957 11.806 17.957 10.042C17.957 5.674 15.367 3.49 10.187 3.49ZM21.4703 22.768H24.7463C24.8583 24.924 25.5023 26.506 26.6783 27.514C27.6583 28.382 28.9603 28.816 30.5843 28.816C32.4603 28.816 33.9023 28.186 34.9103 26.926C35.7783 25.806 36.2123 24.28 36.2123 22.348V0.759999H39.4883V22.348C39.4883 25.456 38.5923 27.836 36.8003 29.488C35.2323 30.916 33.1183 31.63 30.4583 31.63C27.6303 31.63 25.3763 30.692 23.6963 28.816C22.2963 27.22 21.5543 25.204 21.4703 22.768ZM54.4918 1.6H57.8098V22.768H62.4298V25.456H57.8098V31H54.7438V25.456H41.5558V22.474L54.4918 1.6ZM44.9578 22.768H54.7438V6.598L44.9578 22.768ZM73.4594 31.63C70.5754 31.63 68.1814 30.804 66.2774 29.152C64.6814 27.78 63.7014 26.072 63.3374 24.028H66.6134C66.9774 25.652 67.8314 26.912 69.1754 27.808C70.3794 28.592 71.8214 28.984 73.5014 28.984C75.7134 28.984 77.4774 28.228 78.7934 26.716C79.9974 25.344 80.5994 23.58 80.5994 21.424C80.5994 19.016 79.8714 17.168 78.4154 15.88C77.2114 14.788 75.6294 14.242 73.6694 14.242C72.3814 14.242 71.1634 14.522 70.0154 15.082C68.8674 15.614 67.9014 16.356 67.1174 17.308H64.3874L65.0174 1.6H82.4474V4.246H67.8734L67.4954 14.2C69.3434 12.548 71.6254 11.722 74.3414 11.722C77.2814 11.722 79.6334 12.674 81.3974 14.578C83.0214 16.342 83.8334 18.666 83.8334 21.55C83.8334 24.658 82.7694 27.164 80.6414 29.068C78.7374 30.776 76.3434 31.63 73.4594 31.63Z" fill="black"/>
</svg>
