<svg width="24" height="24" viewBox="0 0 24 24" fill="none" xmlns="http://www.w3.org/2000/svg">
  <path d="M19 0H18C17.7348 0 17.4804 0.105357 17.2929 0.292893C17.1054 0.48043 17 0.734784 17 1C17 1.26522 17.1054 1.51957 17.2929 1.70711C17.4804 1.89464 17.7348 2 18 2H19C19.7954 2.00087 20.5579 2.31722 21.1204 2.87964C21.6828 3.44206 21.9991 4.20462 22 5V6C22 6.26522 22.1054 6.51957 22.2929 6.70711C22.4804 6.89464 22.7348 7 23 7C23.2652 7 23.5196 6.89464 23.7071 6.70711C23.8946 6.51957 24 6.26522 24 6V5C23.9984 3.6744 23.4712 2.40353 22.5338 1.46619C21.5965 0.528847 20.3256 0.00156145 19 0Z" fill="black"/>
  <path d="M1 6.998C1.26522 6.998 1.51957 6.89264 1.70711 6.70511C1.89464 6.51757 2 6.26322 2 5.998V5C2.00087 4.20462 2.31722 3.44206 2.87964 2.87964C3.44206 2.31722 4.20462 2.00087 5 2H6C6.26522 2 6.51957 1.89464 6.70711 1.70711C6.89464 1.51957 7 1.26522 7 1C7 0.734784 6.89464 0.48043 6.70711 0.292893C6.51957 0.105357 6.26522 0 6 0H5C3.6744 0.00156145 2.40353 0.528847 1.46619 1.46619C0.528847 2.40353 0.00156145 3.6744 0 5V5.998C0 6.26322 0.105357 6.51757 0.292893 6.70511C0.48043 6.89264 0.734784 6.998 1 6.998Z" fill="black"/>
  <path d="M6 22H5C4.20462 21.9991 3.44206 21.6828 2.87964 21.1204C2.31722 20.5579 2.00087 19.7954 2 19V18C2 17.7348 1.89464 17.4804 1.70711 17.2929C1.51957 17.1054 1.26522 17 1 17C0.734784 17 0.48043 17.1054 0.292893 17.2929C0.105357 17.4804 0 17.7348 0 18V19C0.00156145 20.3256 0.528847 21.5965 1.46619 22.5338C2.40353 23.4712 3.6744 23.9984 5 24H6C6.26522 24 6.51957 23.8946 6.70711 23.7071C6.89464 23.5196 7 23.2652 7 23C7 22.7348 6.89464 22.4804 6.70711 22.2929C6.51957 22.1054 6.26522 22 6 22Z" fill="black"/>
  <path d="M23 17C22.7348 17 22.4804 17.1054 22.2929 17.2929C22.1054 17.4804 22 17.7348 22 18V19C21.9991 19.7954 21.6828 20.5579 21.1204 21.1204C20.5579 21.6828 19.7954 21.9991 19 22H18C17.7348 22 17.4804 22.1054 17.2929 22.2929C17.1054 22.4804 17 22.7348 17 23C17 23.2652 17.1054 23.5196 17.2929 23.7071C17.4804 23.8946 17.7348 24 18 24H19C20.3256 23.9984 21.5965 23.4712 22.5338 22.5338C23.4712 21.5965 23.9984 20.3256 24 19V18C24 17.7348 23.8946 17.4804 23.7071 17.2929C23.5196 17.1054 23.2652 17 23 17Z" fill="black"/>
  <path d="M23 11H1C0.734784 11 0.48043 11.1054 0.292893 11.2929C0.105357 11.4804 0 11.7348 0 12C0 12.2652 0.105357 12.5196 0.292893 12.7071C0.48043 12.8946 0.734784 13 1 13H23C23.2652 13 23.5196 12.8946 23.7071 12.7071C23.8946 12.5196 24 12.2652 24 12C24 11.7348 23.8946 11.4804 23.7071 11.2929C23.5196 11.1054 23.2652 11 23 11Z" fill="black"/>
</svg>
