<svg width="40" height="40" viewBox="0 0 40 40" fill="none" xmlns="http://www.w3.org/2000/svg">
  <path d="M20 2.5C16.5388 2.5 13.1554 3.52636 10.2775 5.44928C7.39967 7.37221 5.15665 10.1053 3.83212 13.303C2.50758 16.5007 2.16102 20.0194 2.83627 23.4141C3.51151 26.8087 5.17822 29.9269 7.62564 32.3744C10.0731 34.8218 13.1913 36.4885 16.5859 37.1637C19.9806 37.839 23.4993 37.4924 26.697 36.1679C29.8947 34.8434 32.6278 32.6003 34.5507 29.7225C36.4737 26.8446 37.5 23.4612 37.5 20C37.4948 15.3603 35.6494 10.9121 32.3686 7.63138C29.0879 4.35062 24.6397 2.5052 20 2.5ZM20 35C17.0333 35 14.1332 34.1203 11.6665 32.472C9.19972 30.8238 7.27713 28.4811 6.14182 25.7402C5.0065 22.9994 4.70945 19.9834 5.28823 17.0736C5.86701 14.1639 7.29562 11.4912 9.39341 9.3934C11.4912 7.29561 14.1639 5.867 17.0737 5.28822C19.9834 4.70944 22.9994 5.00649 25.7403 6.14181C28.4812 7.27712 30.8238 9.19971 32.4721 11.6664C34.1203 14.1332 35 17.0333 35 20C34.9957 23.9769 33.4139 27.7897 30.6018 30.6018C27.7897 33.4139 23.9769 34.9957 20 35Z" fill="black"/>
  <path d="M10.9888 17.4674C11.0746 17.4863 11.1622 17.4957 11.25 17.4954C11.535 17.4946 11.8112 17.3969 12.0332 17.2183C12.2553 17.0397 12.41 16.7909 12.4719 16.5128C12.7502 15.5356 13.2774 14.6473 14.0019 13.935C14.7264 13.2227 15.6235 12.7107 16.6052 12.449C16.9232 12.3548 17.1906 12.1382 17.3488 11.8467C17.507 11.5553 17.543 11.213 17.4488 10.8951C17.3546 10.5771 17.1379 10.3096 16.8465 10.1515C16.5551 9.99326 16.2127 9.95732 15.8948 10.0515C14.4808 10.4406 13.1941 11.1948 12.1639 12.2385C11.1337 13.2823 10.3963 14.5787 10.0256 15.9976C9.95915 16.3201 10.0232 16.6559 10.2037 16.9314C10.3842 17.2068 10.6665 17.3996 10.9888 17.4674Z" fill="black"/>
  <path d="M23.3951 12.449C24.3767 12.7108 25.2736 13.223 25.9981 13.9353C26.7226 14.6476 27.2499 15.5357 27.5284 16.5127C27.5883 16.7921 27.7421 17.0424 27.9643 17.2221C28.1864 17.4018 28.4634 17.5 28.7491 17.5002C28.8347 17.5001 28.9202 17.4915 29.0042 17.4746C29.3287 17.4068 29.6131 17.2132 29.795 16.9361C29.9769 16.659 30.0415 16.321 29.9746 15.9963C29.6034 14.5779 28.8657 13.282 27.8356 12.2386C26.8054 11.1952 25.5191 10.4409 24.1055 10.0515C23.9481 10.0049 23.783 9.98969 23.6197 10.0068C23.4564 10.024 23.2981 10.0731 23.1538 10.1515C23.0095 10.2298 22.882 10.3358 22.7787 10.4634C22.6754 10.5909 22.5982 10.7376 22.5515 10.8951C22.5049 11.0525 22.4897 11.2175 22.5068 11.3808C22.524 11.5441 22.5731 11.7024 22.6515 11.8467C22.7298 11.991 22.8358 12.1185 22.9634 12.2218C23.0909 12.3252 23.2376 12.4024 23.3951 12.449V12.449Z" fill="black"/>
  <path d="M16.6128 27.5521C15.6311 27.2903 14.7342 26.7782 14.0097 26.0659C13.2852 25.3536 12.758 24.4655 12.4795 23.4884C12.4093 23.1657 12.2143 22.8839 11.9371 22.7045C11.6598 22.5251 11.3228 22.4627 10.9997 22.5309C10.6766 22.5991 10.3936 22.7923 10.2125 23.0685C10.0314 23.3447 9.96698 23.6812 10.0332 24.0048C10.4045 25.4232 11.1422 26.7191 12.1723 27.7625C13.2024 28.8059 14.4888 29.5602 15.9024 29.9496C16.0177 29.9838 16.1373 30.0011 16.2576 30.0008C16.5581 30.0009 16.8486 29.8927 17.0758 29.6961C17.3031 29.4995 17.4519 29.2276 17.495 28.9302C17.5382 28.6328 17.4727 28.3298 17.3107 28.0768C17.1487 27.8237 16.9009 27.6374 16.6128 27.5521L16.6128 27.5521Z" fill="black"/>
  <path d="M29.0194 22.5341C28.6962 22.4641 28.3584 22.5254 28.0803 22.7044C27.8021 22.8834 27.6065 23.1655 27.5363 23.4887C27.258 24.4659 26.7308 25.3541 26.0063 26.0664C25.2818 26.7788 24.3848 27.2908 23.403 27.5524C23.1148 27.6378 22.8671 27.824 22.7051 28.0771C22.5431 28.3302 22.4776 28.6332 22.5208 28.9305C22.5639 29.2279 22.7127 29.4998 22.94 29.6964C23.1672 29.8931 23.4577 30.0012 23.7582 30.0012C23.8785 30.0014 23.9981 29.9842 24.1134 29.9499C25.5274 29.5609 26.8141 28.8066 27.8443 27.7629C28.8745 26.7192 29.6119 25.4228 29.9826 24.0039C30.0491 23.6813 29.985 23.3456 29.8045 23.0701C29.624 22.7946 29.3417 22.6019 29.0194 22.5341Z" fill="black"/>
</svg>
