<svg width="40" height="40" viewBox="0 0 40 40" fill="none" xmlns="http://www.w3.org/2000/svg">
  <path d="M5 26.25C4.83582 26.2499 4.67323 26.2822 4.52153 26.345C4.36983 26.4077 4.232 26.4998 4.1159 26.6159C3.99981 26.732 3.90774 26.8698 3.84496 27.0215C3.78217 27.1732 3.7499 27.3358 3.75 27.5V32.5C3.75 32.8315 3.8817 33.1495 4.11612 33.3839C4.35054 33.6183 4.66848 33.75 5 33.75C5.33152 33.75 5.64946 33.6183 5.88388 33.3839C6.1183 33.1495 6.25 32.8315 6.25 32.5V27.5C6.25009 27.3358 6.21783 27.1732 6.15504 27.0215C6.09226 26.8698 6.00018 26.732 5.88409 26.6159C5.768 26.4998 5.63016 26.4077 5.47847 26.345C5.32677 26.2822 5.16418 26.2499 5 26.25Z" fill="black"/>
  <path d="M15 21.248C14.8358 21.248 14.6732 21.2802 14.5215 21.343C14.3698 21.4058 14.232 21.4979 14.1159 21.614C13.9998 21.73 13.9077 21.8679 13.845 22.0196C13.7822 22.1713 13.7499 22.3339 13.75 22.498V32.498C13.75 32.8296 13.8817 33.1475 14.1161 33.3819C14.3505 33.6164 14.6685 33.748 15 33.748C15.3315 33.748 15.6495 33.6164 15.8839 33.3819C16.1183 33.1475 16.25 32.8296 16.25 32.498V22.498C16.2501 22.3339 16.2178 22.1713 16.155 22.0196C16.0923 21.8679 16.0002 21.73 15.8841 21.614C15.768 21.4979 15.6302 21.4058 15.4785 21.343C15.3268 21.2802 15.1642 21.248 15 21.248Z" fill="black"/>
  <path d="M25 13.75C24.8358 13.7499 24.6732 13.7822 24.5215 13.845C24.3698 13.9077 24.232 13.9998 24.1159 14.1159C23.9998 14.232 23.9077 14.3698 23.845 14.5215C23.7822 14.6732 23.7499 14.8358 23.75 15V32.5C23.75 32.8315 23.8817 33.1495 24.1161 33.3839C24.3505 33.6183 24.6685 33.75 25 33.75C25.3315 33.75 25.6495 33.6183 25.8839 33.3839C26.1183 33.1495 26.25 32.8315 26.25 32.5V15C26.2501 14.8358 26.2178 14.6732 26.155 14.5215C26.0923 14.3698 26.0002 14.232 25.8841 14.1159C25.768 13.9998 25.6302 13.9077 25.4785 13.845C25.3268 13.7822 25.1642 13.7499 25 13.75Z" fill="black"/>
  <path d="M35 8.74805C34.8358 8.74795 34.6732 8.78022 34.5215 8.843C34.3698 8.90579 34.232 8.99786 34.1159 9.11395C33.9998 9.23004 33.9077 9.36788 33.845 9.51958C33.7822 9.67128 33.7499 9.83387 33.75 9.99805V32.498C33.75 32.8296 33.8817 33.1475 34.1161 33.3819C34.3505 33.6164 34.6685 33.748 35 33.748C35.3315 33.748 35.6495 33.6164 35.8839 33.3819C36.1183 33.1475 36.25 32.8296 36.25 32.498V9.99805C36.2501 9.83387 36.2178 9.67128 36.155 9.51958C36.0923 9.36788 36.0002 9.23004 35.8841 9.11395C35.768 8.99786 35.6302 8.90579 35.4785 8.843C35.3268 8.78022 35.1642 8.74795 35 8.74805Z" fill="black"/>
</svg>
