<svg width="216" height="27" viewBox="0 0 216 27" fill="none" xmlns="http://www.w3.org/2000/svg">
  <path d="M18.9176 18.9075L15.0186 6.78817H11.1548L7.3051 18.8414L3.63671 6.78817H0L5.1699 22.6494H9.18154L13.0471 10.6802L16.9109 22.6494H20.9876L26.1575 6.78817H22.6018L18.9176 18.9075Z" fill="white"/>
  <path d="M37.9214 7.42645C36.8071 6.72595 35.5274 6.3757 34.0805 6.3757C32.5579 6.3757 31.2095 6.72595 30.0354 7.42645C28.8613 8.12694 27.946 9.10978 27.2876 10.3732C26.6293 11.6366 26.3019 13.0858 26.3019 14.7191C26.3019 16.3739 26.6416 17.8338 27.3211 19.0972C28.0005 20.3606 28.944 21.3381 30.1498 22.0279C31.3574 22.7176 32.7374 23.0625 34.2917 23.0625C35.5415 23.0625 36.6962 22.8892 37.7577 22.5407C38.8174 22.1923 39.8049 21.6222 40.7167 20.827L39.0215 18.361C38.3685 18.8899 37.6485 19.3027 36.8599 19.594C36.0713 19.8871 35.2863 20.0336 34.5029 20.0336C33.7425 20.0336 33.0384 19.8906 32.3906 19.6029C31.7428 19.3152 31.1972 18.8685 30.7518 18.2627C30.3065 17.6551 30.0125 16.8992 29.8717 15.995H41.4014C41.4454 15.4661 41.4665 15.0354 41.4665 14.703C41.4665 13.0697 41.1532 11.6241 40.5283 10.366C39.9052 9.10621 39.0356 8.12694 37.9214 7.42645ZM29.8735 13.361C30.0688 12.1584 30.5177 11.2059 31.2183 10.5054C31.9189 9.80492 32.8518 9.45467 34.0154 9.45467C35.0909 9.45467 35.9745 9.79777 36.6645 10.4804C37.3546 11.1648 37.7929 12.1244 37.9777 13.361H29.8735Z" fill="white"/>
  <path d="M55.9905 7.45129C54.8006 6.73471 53.4822 6.37553 52.0352 6.37553C50.9703 6.37553 50.0285 6.57746 49.2135 6.97953C48.3985 7.38338 47.7085 7.94807 47.1417 8.67716V0.0371094H43.7338V22.6496H47.1417V20.7625C47.7067 21.4916 48.3968 22.0563 49.2135 22.4601C50.0285 22.8622 50.9685 23.0641 52.0352 23.0641C53.4804 23.0641 54.7988 22.705 55.9905 21.9884C57.1805 21.2718 58.1205 20.2782 58.8122 19.0077C59.5023 17.7389 59.8473 16.3094 59.8473 14.7207C59.8473 13.1321 59.5023 11.7025 58.8122 10.4338C58.1205 9.16143 57.1805 8.16966 55.9905 7.45129ZM55.7687 17.285C55.3885 18.057 54.8393 18.67 54.1211 19.1221C53.403 19.5742 52.5721 19.8011 51.6268 19.8011C50.7027 19.8011 49.8842 19.5795 49.173 19.1381C48.4601 18.6968 47.9056 18.0892 47.5096 17.3172C47.1118 16.5452 46.9146 15.6785 46.9146 14.7172C46.9146 13.7575 47.1135 12.8909 47.5096 12.1189C47.9056 11.3469 48.4601 10.7393 49.173 10.2979C49.8842 9.85656 50.7027 9.63498 51.6268 9.63498C52.5721 9.63498 53.4047 9.86193 54.1211 10.314C54.8393 10.7661 55.3868 11.3791 55.7687 12.151C56.149 12.923 56.3391 13.779 56.3391 14.7172C56.3408 15.6571 56.1507 16.5131 55.7687 17.285Z" fill="white"/>
  <path d="M73.2587 7.42645C72.1445 6.72595 70.8647 6.3757 69.4178 6.3757C67.8952 6.3757 66.5468 6.72595 65.3727 7.42645C64.1986 8.12694 63.2833 9.10978 62.625 10.3732C61.9666 11.6366 61.6392 13.0858 61.6392 14.7191C61.6392 16.3739 61.9789 17.8338 62.6584 19.0972C63.3379 20.3606 64.2814 21.3381 65.4871 22.0279C66.6947 22.7176 68.0747 23.0625 69.629 23.0625C70.8788 23.0625 72.0336 22.8892 73.095 22.5407C74.1547 22.1923 75.1422 21.6222 76.054 20.827L74.3589 18.361C73.7058 18.8899 72.9859 19.3027 72.1973 19.594C71.4087 19.8871 70.6236 20.0336 69.8403 20.0336C69.0798 20.0336 68.3757 19.8906 67.728 19.6029C67.0802 19.3152 66.5345 18.8685 66.0892 18.2627C65.6438 17.6551 65.3498 16.8992 65.209 15.995H76.7387C76.7828 15.4661 76.8039 15.0354 76.8039 14.703C76.8039 13.0697 76.4905 11.6241 75.8656 10.366C75.2425 9.10621 74.373 8.12694 73.2587 7.42645ZM65.2108 13.361C65.4062 12.1584 65.855 11.2059 66.5556 10.5054C67.2562 9.80492 68.1891 9.45467 69.3527 9.45467C70.4282 9.45467 71.3119 9.79777 72.0019 10.4804C72.6919 11.1648 73.1302 12.1244 73.315 13.361H65.2108Z" fill="white"/>
  <path d="M87.1119 14.5204L92.8856 6.78817H88.8581L85.0418 12.0866L81.2256 6.78817H77.0344L82.8239 14.5526L76.9358 22.6494H80.9316L84.8465 17.1366L88.8088 22.6494H93L87.1119 14.5204Z" fill="white"/>
  <path d="M121.348 6.70117H123.356L119.298 22.5412H116.777L113.296 9.12117L109.707 22.5412H107.037L103 6.70117H105.221L108.49 19.8792L112.014 6.70117H114.727L118.059 19.8352L121.348 6.70117Z" fill="white"/>
  <path d="M122.844 16.8212C122.844 14.7238 123.449 13.1398 124.66 12.0692C125.628 11.2038 126.853 10.7712 128.334 10.7712C130.057 10.7712 131.409 11.3358 132.392 12.4652C133.332 13.5212 133.802 14.9732 133.802 16.8212C133.802 18.8892 133.211 20.4658 132.029 21.5512C131.061 22.4312 129.822 22.8712 128.312 22.8712C126.589 22.8712 125.229 22.2845 124.232 21.1112C123.307 20.0405 122.844 18.6105 122.844 16.8212ZM124.98 16.8212C124.98 18.2878 125.343 19.4098 126.069 20.1872C126.667 20.8325 127.429 21.1552 128.355 21.1552C129.437 21.1552 130.27 20.7372 130.854 19.9012C131.395 19.1385 131.666 18.1118 131.666 16.8212C131.666 15.3252 131.31 14.1958 130.598 13.4332C130.014 12.8025 129.259 12.4872 128.334 12.4872C127.266 12.4872 126.433 12.9052 125.834 13.7412C125.265 14.5038 124.98 15.5305 124.98 16.8212Z" fill="white"/>
  <path d="M137.268 22.5412H135.218V11.1012H136.905L137.183 12.7952C137.81 11.4458 138.749 10.7712 140.002 10.7712C140.415 10.7712 140.821 10.8225 141.22 10.9252V13.0372C140.736 12.9052 140.302 12.8392 139.917 12.8392C139.091 12.8392 138.443 13.1838 137.973 13.8732C137.503 14.5625 137.268 15.5378 137.268 16.7992V22.5412Z" fill="white"/>
  <path d="M143.953 22.5412H141.903V6.70117H143.953V15.5452L148.311 11.1012H151.002L146.004 16.0732L151.622 22.5412H148.888L143.953 16.7772V22.5412Z" fill="white"/>
  <path d="M158.565 19.4392C158.565 18.7938 158.237 18.3098 157.582 17.9872C157.198 17.8112 156.45 17.5912 155.339 17.3272C153.972 17.0192 152.997 16.5718 152.413 15.9852C151.929 15.4865 151.687 14.8338 151.687 14.0272C151.687 12.9565 152.107 12.1352 152.947 11.5632C153.702 11.0352 154.72 10.7712 156.002 10.7712C157.326 10.7712 158.401 11.1085 159.227 11.7832C159.939 12.3698 160.38 13.1472 160.551 14.1152H158.458C158.216 13.0005 157.39 12.4432 155.98 12.4432C155.197 12.4432 154.613 12.5898 154.229 12.8832C153.915 13.1325 153.759 13.4478 153.759 13.8292C153.759 14.2985 153.93 14.6505 154.271 14.8852C154.627 15.1198 155.318 15.3545 156.343 15.5892C157.91 15.9412 158.999 16.3738 159.611 16.8872C160.295 17.4592 160.637 18.2585 160.637 19.2852C160.637 20.4292 160.181 21.3312 159.27 21.9912C158.444 22.5778 157.354 22.8712 156.002 22.8712C154.521 22.8712 153.346 22.5045 152.477 21.7712C151.722 21.1258 151.302 20.2898 151.217 19.2632H153.31C153.538 20.5538 154.442 21.1992 156.023 21.1992C156.877 21.1992 157.54 21.0085 158.009 20.6272C158.38 20.3192 158.565 19.9232 158.565 19.4392Z" fill="white"/>
  <path d="M162.052 11.1012H163.74L164.06 12.5972C164.971 11.3798 166.225 10.7712 167.819 10.7712C169.414 10.7712 170.653 11.3578 171.536 12.5312C172.319 13.5872 172.711 14.9878 172.711 16.7332C172.711 18.8012 172.177 20.3852 171.109 21.4852C170.212 22.4092 169.065 22.8712 167.67 22.8712C166.089 22.8712 164.9 22.2698 164.103 21.0672V26.5012H162.052V11.1012ZM170.575 16.6892C170.575 15.2518 170.226 14.1738 169.528 13.4552C168.973 12.8685 168.247 12.5752 167.349 12.5752C166.31 12.5752 165.484 12.9638 164.872 13.7412C164.288 14.4892 163.996 15.4718 163.996 16.6892C163.996 18.1558 164.345 19.2778 165.043 20.0552C165.626 20.7298 166.395 21.0672 167.349 21.0672C168.417 21.0672 169.229 20.6638 169.785 19.8572C170.311 19.1092 170.575 18.0532 170.575 16.6892Z" fill="white"/>
  <path d="M175.891 14.2912H173.713C173.827 13.1472 174.353 12.2598 175.293 11.6292C176.133 11.0572 177.194 10.7712 178.476 10.7712C180 10.7712 181.167 11.1818 181.979 12.0032C182.662 12.7072 183.004 13.6165 183.004 14.7312V22.5412H181.317L181.06 20.9792C180.192 22.2405 178.953 22.8712 177.344 22.8712C176.076 22.8712 175.087 22.5192 174.375 21.8152C173.791 21.2285 173.499 20.4878 173.499 19.5932C173.499 18.4638 173.876 17.5912 174.631 16.9752C175.3 16.4325 176.326 16.0365 177.707 15.7872L180.954 15.2152V14.6432C180.954 13.8952 180.704 13.3305 180.206 12.9492C179.765 12.6118 179.159 12.4432 178.39 12.4432C176.881 12.4432 176.048 13.0592 175.891 14.2912ZM177.835 21.0892C178.704 21.0892 179.458 20.7958 180.099 20.2092C180.669 19.6665 180.954 19.0432 180.954 18.3392V16.8652L178.198 17.3712C177.187 17.5472 176.497 17.8185 176.126 18.1852C175.827 18.4785 175.678 18.8745 175.678 19.3732C175.678 19.9305 175.863 20.3558 176.233 20.6492C176.603 20.9425 177.137 21.0892 177.835 21.0892Z" fill="white"/>
  <path d="M192.196 18.8672H194.439C194.268 20.0992 193.706 21.0892 192.751 21.8372C191.883 22.5265 190.822 22.8712 189.569 22.8712C187.931 22.8712 186.628 22.2918 185.66 21.1332C184.763 20.0625 184.314 18.6545 184.314 16.9092C184.314 14.8852 184.855 13.3158 185.938 12.2012C186.863 11.2478 188.066 10.7712 189.547 10.7712C190.914 10.7712 192.039 11.1452 192.922 11.8932C193.706 12.5532 194.183 13.4185 194.353 14.4892H192.089C191.947 13.8732 191.655 13.3965 191.214 13.0592C190.786 12.7218 190.245 12.5532 189.59 12.5532C188.579 12.5532 187.803 12.9638 187.262 13.7852C186.749 14.5478 186.493 15.6112 186.493 16.9752C186.493 18.3978 186.835 19.4758 187.518 20.2092C188.059 20.7958 188.757 21.0892 189.611 21.0892C190.352 21.0892 190.957 20.8692 191.427 20.4292C191.84 20.0478 192.096 19.5272 192.196 18.8672Z" fill="white"/>
  <path d="M203.415 19.2412H205.637C205.323 20.3998 204.704 21.3092 203.778 21.9692C202.91 22.5705 201.87 22.8712 200.66 22.8712C198.908 22.8712 197.541 22.2992 196.558 21.1552C195.661 20.0845 195.213 18.6398 195.213 16.8212C195.213 14.7532 195.782 13.1838 196.922 12.1132C197.861 11.2185 199.072 10.7712 200.553 10.7712C202.29 10.7712 203.6 11.3505 204.483 12.5092C205.337 13.6238 205.765 15.2152 205.765 17.2832H197.306C197.392 18.6325 197.79 19.6372 198.502 20.2972C199.086 20.8252 199.827 21.0892 200.724 21.0892C201.421 21.0892 202.027 20.8912 202.539 20.4952C202.967 20.1578 203.258 19.7398 203.415 19.2412ZM200.596 12.4652C199.684 12.4652 198.951 12.7585 198.395 13.3452C197.869 13.8878 197.534 14.6432 197.392 15.6112H203.671C203.6 14.5112 203.244 13.6898 202.603 13.1472C202.091 12.6925 201.421 12.4652 200.596 12.4652Z" fill="white"/>
  <path d="M213.788 19.4392C213.788 18.7938 213.461 18.3098 212.805 17.9872C212.421 17.8112 211.673 17.5912 210.563 17.3272C209.196 17.0192 208.22 16.5718 207.636 15.9852C207.152 15.4865 206.91 14.8338 206.91 14.0272C206.91 12.9565 207.33 12.1352 208.17 11.5632C208.925 11.0352 209.943 10.7712 211.225 10.7712C212.549 10.7712 213.624 11.1085 214.45 11.7832C215.162 12.3698 215.604 13.1472 215.775 14.1152H213.681C213.439 13.0005 212.613 12.4432 211.203 12.4432C210.42 12.4432 209.836 12.5898 209.452 12.8832C209.139 13.1325 208.982 13.4478 208.982 13.8292C208.982 14.2985 209.153 14.6505 209.495 14.8852C209.851 15.1198 210.541 15.3545 211.567 15.5892C213.133 15.9412 214.222 16.3738 214.835 16.8872C215.518 17.4592 215.86 18.2585 215.86 19.2852C215.86 20.4292 215.404 21.3312 214.493 21.9912C213.667 22.5778 212.578 22.8712 211.225 22.8712C209.744 22.8712 208.569 22.5045 207.7 21.7712C206.946 21.1258 206.526 20.2898 206.44 19.2632H208.533C208.761 20.5538 209.666 21.1992 211.246 21.1992C212.101 21.1992 212.763 21.0085 213.233 20.6272C213.603 20.3192 213.788 19.9232 213.788 19.4392Z" fill="white"/>
</svg>
