<svg width="40" height="40" viewBox="0 0 40 40" fill="none" xmlns="http://www.w3.org/2000/svg">
  <path d="M31.25 6.25H8.75C7.09299 6.25195 5.50441 6.91105 4.33273 8.08273C3.16105 9.25441 2.50195 10.843 2.5 12.5V27.5C2.50195 29.157 3.16105 30.7456 4.33273 31.9173C5.50441 33.0889 7.09299 33.748 8.75 33.75H31.25C32.907 33.748 34.4956 33.0889 35.6673 31.9173C36.8389 30.7456 37.498 29.157 37.5 27.5V12.5C37.498 10.843 36.8389 9.25441 35.6673 8.08273C34.4956 6.91105 32.907 6.25195 31.25 6.25ZM35 27.5C34.9989 28.4942 34.6035 29.4474 33.9004 30.1504C33.1974 30.8535 32.2442 31.2489 31.25 31.25H8.75C7.75577 31.2489 6.80257 30.8535 6.09955 30.1504C5.39652 29.4474 5.00109 28.4942 5 27.5V12.5C5.00109 11.5058 5.39652 10.5526 6.09955 9.84955C6.80257 9.14652 7.75577 8.75109 8.75 8.75H31.25C32.2442 8.75109 33.1974 9.14652 33.9004 9.84955C34.6035 10.5526 34.9989 11.5058 35 12.5V27.5Z" fill="black"/>
</svg>
