<svg width="88" height="31" viewBox="0 0 88 31" fill="none" xmlns="http://www.w3.org/2000/svg">
  <path d="M36.8649 0.759999H39.9309L31.7409 31H27.7509L20.3169 4.162L12.7569 31H8.5569L0.408899 0.759999H3.7689L10.8249 27.304L18.3009 0.759999H22.5429L29.7669 27.22L36.8649 0.759999ZM64.1537 31H60.4997L57.3497 22.894H42.4817L39.2477 31H35.8037L48.0677 0.759999H51.9317L64.1537 31ZM49.9577 4.036L43.5317 20.164H56.2577L49.9577 4.036ZM84.7177 0.759999H87.6997V31H83.6257L67.2877 4.708V31H64.2637V0.759999H68.5057L84.7177 26.842V0.759999Z" fill="black"/>
</svg>
