<svg width="40" height="40" viewBox="0 0 40 40" fill="none" xmlns="http://www.w3.org/2000/svg">
  <path d="M20.0078 32.5195C21.0433 32.5195 21.8828 31.68 21.8828 30.6445C21.8828 29.609 21.0433 28.7695 20.0078 28.7695C18.9723 28.7695 18.1328 29.609 18.1328 30.6445C18.1328 31.68 18.9723 32.5195 20.0078 32.5195Z" fill="black"/>
  <path d="M14.5019 24.7238C14.3827 24.8382 14.2873 24.975 14.2213 25.1264C14.1553 25.2778 14.12 25.4408 14.1173 25.606C14.1147 25.7711 14.1448 25.9352 14.206 26.0886C14.2671 26.2421 14.3581 26.3819 14.4736 26.5C14.5891 26.618 14.7268 26.7121 14.8789 26.7766C15.031 26.8411 15.1943 26.8748 15.3595 26.8759C15.5246 26.8769 15.6884 26.8452 15.8412 26.7825C15.9941 26.7199 16.133 26.6276 16.2499 26.5109C17.2556 25.5384 18.5998 24.9948 19.9987 24.9948C21.3976 24.9948 22.7418 25.5384 23.7475 26.5109C23.9852 26.7391 24.3033 26.8642 24.6328 26.859C24.9622 26.8538 25.2763 26.7188 25.5067 26.4832C25.7371 26.2477 25.8652 25.9307 25.8631 25.6012C25.861 25.2717 25.7289 24.9564 25.4955 24.7238C24.0212 23.2974 22.0501 22.5 19.9987 22.5C17.9473 22.5 15.9762 23.2974 14.5019 24.7238Z" fill="black"/>
  <path d="M9.205 19.3749C9.0858 19.4892 8.99044 19.6261 8.92444 19.7775C8.85844 19.9289 8.8231 20.0919 8.82047 20.257C8.81784 20.4222 8.84797 20.5862 8.90912 20.7397C8.97026 20.8931 9.06121 21.0329 9.17671 21.151C9.29221 21.2691 9.42997 21.3631 9.58203 21.4276C9.73408 21.4922 9.89741 21.5259 10.0626 21.5269C10.2278 21.5279 10.3915 21.4962 10.5443 21.4336C10.6972 21.3709 10.8361 21.2786 10.953 21.162C13.3814 18.8153 16.6264 17.5035 20.0033 17.5035C23.3803 17.5035 26.6253 18.8153 29.0536 21.162C29.2913 21.3902 29.6095 21.5153 29.9389 21.5101C30.2684 21.5049 30.5825 21.3698 30.8129 21.1343C31.0433 20.8987 31.1713 20.5818 31.1692 20.2523C31.1672 19.9228 31.035 19.6075 30.8017 19.3749C27.9049 16.5737 24.033 15.0078 20.0033 15.0078C15.9737 15.0078 12.1018 16.5737 9.205 19.3749Z" fill="black"/>
  <path d="M35.8746 13.9324C31.6159 9.81519 25.9241 7.51367 20.0006 7.51367C14.077 7.51367 8.38524 9.81519 4.12655 13.9324C4.00741 14.0468 3.91212 14.1836 3.84618 14.335C3.78023 14.4864 3.74494 14.6494 3.74234 14.8145C3.73974 14.9796 3.76989 15.1436 3.83103 15.297C3.89218 15.4504 3.98312 15.5902 4.09859 15.7083C4.21407 15.8263 4.35179 15.9203 4.5038 15.9848C4.65581 16.0494 4.8191 16.0831 4.98424 16.0842C5.14938 16.0852 5.31308 16.0535 5.4659 15.991C5.61872 15.9284 5.75763 15.8361 5.8746 15.7195C9.66403 12.0551 14.7292 10.0067 20.0006 10.0067C25.272 10.0067 30.3371 12.0551 34.1265 15.7195C34.3642 15.9477 34.6824 16.0728 35.0119 16.0676C35.3413 16.0625 35.6554 15.9274 35.8858 15.6919C36.1162 15.4563 36.2443 15.1393 36.2422 14.8098C36.2401 14.4804 36.108 14.165 35.8746 13.9324Z" fill="black"/>
</svg>
